<svg width="36" height="36" viewBox="0 0 36 36" fill="none" xmlns="http://www.w3.org/2000/svg">
<path d="M4.5 3.75C4.08579 3.75 3.75 4.08579 3.75 4.5C3.75 4.91421 4.08579 5.25 4.5 5.25L4.5 3.75ZM8.25 4.5L8.97761 4.3181C8.89414 3.98422 8.59415 3.75 8.25 3.75V4.5ZM28.5 24.75C28.9142 24.75 29.25 24.4142 29.25 24C29.25 23.5858 28.9142 23.25 28.5 23.25V24.75ZM31.5 7.5L32.2276 7.6819C32.2836 7.45785 32.2333 7.22048 32.0912 7.03844C31.949 6.8564 31.731 6.75 31.5 6.75V7.5ZM28.5 19.5V20.25C28.8442 20.25 29.1441 20.0158 29.2276 19.6819L28.5 19.5ZM4.5 5.25H8.25V3.75H4.5L4.5 5.25ZM7.52239 4.6819L8.27239 7.6819L9.72761 7.3181L8.97761 4.3181L7.52239 4.6819ZM8.27239 7.6819L11.2724 19.6819L12.7276 19.3181L9.72761 7.3181L8.27239 7.6819ZM12 18.75H11.25V20.25H12V18.75ZM11.25 24.75H28.5V23.25H11.25V24.75ZM8.25 21.75C8.25 23.4069 9.59315 24.75 11.25 24.75V23.25C10.4216 23.25 9.75 22.5784 9.75 21.75H8.25ZM11.25 18.75C9.59315 18.75 8.25 20.0931 8.25 21.75H9.75C9.75 20.9216 10.4216 20.25 11.25 20.25V18.75ZM9 8.25H31.5V6.75H9V8.25ZM30.7724 7.3181L27.7724 19.3181L29.2276 19.6819L32.2276 7.6819L30.7724 7.3181ZM28.5 18.75H12V20.25H28.5V18.75ZM27.75 30C27.75 30.4142 27.4142 30.75 27 30.75V32.25C28.2426 32.25 29.25 31.2426 29.25 30H27.75ZM27 30.75C26.5858 30.75 26.25 30.4142 26.25 30H24.75C24.75 31.2426 25.7574 32.25 27 32.25V30.75ZM26.25 30C26.25 29.5858 26.5858 29.25 27 29.25V27.75C25.7574 27.75 24.75 28.7574 24.75 30H26.25ZM27 29.25C27.4142 29.25 27.75 29.5858 27.75 30H29.25C29.25 28.7574 28.2426 27.75 27 27.75V29.25ZM12.75 30C12.75 30.4142 12.4142 30.75 12 30.75V32.25C13.2426 32.25 14.25 31.2426 14.25 30H12.75ZM12 30.75C11.5858 30.75 11.25 30.4142 11.25 30H9.75C9.75 31.2426 10.7574 32.25 12 32.25V30.75ZM11.25 30C11.25 29.5858 11.5858 29.25 12 29.25V27.75C10.7574 27.75 9.75 28.7574 9.75 30H11.25ZM12 29.25C12.4142 29.25 12.75 29.5858 12.75 30H14.25C14.25 28.7574 13.2426 27.75 12 27.75V29.25Z" fill="#425363"/>
<path d="M34.26 20.42V27H33.28V21.35H32.53V20.42H34.26Z" fill="white"/>
</svg>
