<svg width="39" height="37" viewBox="0 0 39 37" fill="none" xmlns="http://www.w3.org/2000/svg">
<path d="M35.5121 33.0053C35.5286 32.4628 35.434 31.9226 35.2337 31.4167C35.0334 30.9108 34.7315 30.4496 34.346 30.0606C33.9604 29.6716 33.499 29.3628 32.9893 29.1527C32.4796 28.9426 31.932 28.8356 31.3792 28.838L31.3787 28.838L31.3452 28.838H31.3117H31.2782H31.2447H31.2112H31.1777H31.1442H31.1107H31.0772H31.0437H31.0103H30.9768H30.9433H30.9098H30.8763H30.8428H30.8093H30.7758H30.7423H30.7088H30.6753H30.6419H30.6084H30.5749H30.5414H30.5079H30.4744H30.4409H30.4074H30.3739H30.3404H30.3069H30.2735H30.24H30.2065H30.173H30.1395H30.106H30.0725H30.039H30.0055H29.972H29.9386H29.9051H29.8716H29.8381H29.8046H29.7711H29.7376H29.7041H29.6706H29.6371H29.6036H29.5702H29.5367H29.5032H29.4697H29.4362H29.4027H29.3692H29.3357H29.3022H29.2687H29.2353H29.2018H29.1683H29.1348H29.1013H29.0678H29.0343H29.0008H28.9673H28.9338H28.9003H28.8669H28.8334H28.7999H28.7664H28.7329H28.6994H28.6659H28.6324H28.5989H28.5654H28.5319H28.4985H28.465H28.4315H28.398H28.3645H28.331H28.2975H28.264H28.2305H28.197H28.1635H28.1301H28.0966H28.0631H28.0296H27.9961H27.9626H27.9291H27.8956H27.8621H27.8286H27.7952H27.7617H27.7282H27.6947H27.6612H27.6277H27.5942H27.5607H27.5272H27.4937H27.4602H27.4268H27.3933H27.3598H27.3263H27.2928H27.2593H27.2258H27.1923H27.1588H27.1253H27.0919H27.0584H27.0249H26.9914H26.9579H26.9244H26.8909H26.8574H26.8239H26.7904H26.7569H26.7235H26.69H26.6565H26.623H26.5895H26.556H26.5225H26.489H26.4555H26.422H26.3885H26.3551H26.3216H26.2881H26.2546H26.2211H26.1876H26.1541H26.1206H26.0871H26.0536H26.0201H25.9867H25.9532H25.9197H25.8862H25.8527H25.8192H25.7857H25.7522H25.7187H25.6852H25.6518H25.6183H25.5848H25.5513H25.5178H25.4843H25.4508H25.4173H25.3838H25.3503H25.3168H25.2834H25.2499H25.2164H25.1829H25.1494H25.1159H25.0824H25.0489H25.0154H24.9819H24.9485H24.915H24.8815H24.848H24.8145H24.781H24.7475H24.714H24.6805H24.647H24.6135H24.5801H24.5466H24.5131H24.4796H24.4461H24.4126H24.3791H24.3456H24.3121H24.2786H24.2451H24.2117H24.1782H24.1447H24.1112H24.0777H24.0442H24.0107H23.9772H23.9437H23.9102H23.8768H23.8433H23.8098H23.7763H23.7428H23.7093H23.6758H23.6423H23.6088H23.5753H23.5418H23.5084H23.4749H23.4414H23.4079H23.3744H23.3409H23.3074H23.2739H23.2404H23.2069H23.1734H23.14H23.1065H23.073H23.0395H23.006H22.9725H22.939H22.9055H22.872H22.8385H22.805H22.7716H22.7381H22.7046H22.6711H22.6376H22.6041H22.5706H22.5371H22.5036H22.4701H22.4367H22.4032H22.3697H22.3362H22.3027H22.2692H22.2357H22.2022H22.1687H22.1352H22.1017H22.0683H22.0348H22.0013H21.9678H21.9343H21.9008H21.8673H21.8338H21.8003H21.7668H21.7334H21.6999H21.6664H21.6329H21.5994H21.5659H21.5324H21.4989H21.4654H21.4319H21.3984H21.365H21.3315H21.298H21.2645H21.231H21.1975H21.164H21.1305H21.097H21.0635H21.03H20.9966H20.9631H20.9296H20.8961H20.8626H20.8291H20.7956H20.7621H20.7286H20.6951H20.6616H20.6282H20.5947H20.5612H20.5277H20.4942H20.4607H20.4272H20.3937H20.3602H20.3267H20.2933H20.2598H20.2263H20.1928H20.1593H20.1258H20.0923H20.0588H20.0253H19.9918H19.9583H19.9249H19.8914H19.8579H19.8244H19.7909H19.7574H19.7239H19.6904H19.6569H19.6234H19.59H19.5565H19.523H19.4895H19.456H19.4225H19.389H19.3555H19.322H19.2885H19.255H19.2216H19.1881H19.1546H19.1211H19.0876H19.0541H19.0206H18.9871H18.9536H18.9201H18.8866H18.8532H18.8197H18.7862H18.7527H18.7192H18.6857H18.6522H18.6187H18.5852H18.5517H18.5183H18.4848H18.4513H18.4178H18.3843H18.3508H18.3173H18.2838H18.2503H18.2168H18.1833H18.1499H18.1164H18.0829H18.0494H18.0159H17.9824H17.9489H17.9154H17.8819H17.8484H17.8149H17.7815H17.748H17.7145H17.681H17.6475H17.614H17.5805H17.547H17.5135H17.48H17.4466H17.4131H17.3796H17.3461H17.3126H17.2791H17.2456H17.2121H17.1786H17.1451H17.1116H17.0782H17.0447H17.0112H16.9777H16.9442H16.9107H16.8772H16.8437H16.8102H16.7767H16.7432H16.7098H16.6763H16.6428H16.6093H16.5758H16.5423H16.5088H16.4753H16.4418H16.4083H16.3749H16.3414H16.3079H16.2744H16.2409H16.2074H16.1739H16.1404H16.1069H16.0734H16.0399H16.0065H15.973H15.9395H15.906H15.8725H15.839H15.8055H15.772H15.7385H15.705H15.6715H15.6381H15.6046H15.5711H15.5376H15.5041H15.4706H15.4371H15.4036H15.3701H15.3366H15.3032H15.2697H15.2362H15.2027H15.1692H15.1357H15.1022H15.0687H15.0352H15.0017H14.9682H14.9348H14.9013H14.8678H14.8343H14.8008H14.7673H14.7338H14.7003H14.6668H14.6333H14.5998H14.5664H14.5329H14.4994H14.4659H14.4324H14.3989H14.3654H14.3319H14.2984H14.2649H14.2315H13.7264H13.6311L13.6058 28.7461C13.3959 27.9816 13.1939 27.2471 12.9884 26.5015L12.942 26.3331L13.1164 26.3436C13.2413 26.351 13.3579 26.3597 13.4691 26.368C13.6969 26.385 13.9023 26.4003 14.1111 26.4003H14.1447H14.1783H14.2118H14.2454H14.279H14.3125H14.3461H14.3797H14.4132H14.4468H14.4804H14.5139H14.5475H14.5811H14.6146H14.6482H14.6818H14.7153H14.7489H14.7825H14.816H14.8496H14.8832H14.9167H14.9503H14.9839H15.0174H15.051H15.0846H15.1181H15.1517H15.1853H15.2188H15.2524H15.2859H15.3195H15.3531H15.3866H15.4202H15.4538H15.4873H15.5209H15.5545H15.588H15.6216H15.6552H15.6887H15.7223H15.7559H15.7894H15.823H15.8566H15.8901H15.9237H15.9573H15.9908H16.0244H16.058H16.0915H16.1251H16.1587H16.1922H16.2258H16.2593H16.2929H16.3265H16.36H16.3936H16.4272H16.4607H16.4943H16.5279H16.5614H16.595H16.6286H16.6621H16.6957H16.7293H16.7628H16.7964H16.83H16.8635H16.8971H16.9307H16.9642H16.9978H17.0314H17.0649H17.0985H17.132H17.1656H17.1992H17.2327H17.2663H17.2999H17.3334H17.367H17.4006H17.4341H17.4677H17.5013H17.5348H17.5684H17.602H17.6355H17.6691H17.7027H17.7362H17.7698H17.8034H17.8369H17.8705H17.904H17.9376H17.9712H18.0047H18.0383H18.0719H18.1054H18.139H18.1726H18.2061H18.2397H18.2733H18.3068H18.3404H18.374H18.4075H18.4411H18.4746H18.5082H18.5418H18.5753H18.6089H18.6425H18.676H18.7096H18.7432H18.7767H18.8103H18.8439H18.8774H18.911H18.9446H18.9781H19.0117H19.0452H19.0788H19.1124H19.1459H19.1795H19.2131H19.2466H19.2802H19.3138H19.3473H19.3809H19.4145H19.448H19.4816H19.5152H19.5487H19.5823H19.6158H19.6494H19.683H19.7165H19.7501H19.7837H19.8172H19.8508H19.8844H19.9179H19.9515H19.9851H20.0186H20.0522H20.0858H20.1193H20.1529H20.1864H20.22H20.2536H20.2871H20.3207H20.3543H20.3878H20.4214H20.455H20.4885H20.5221H20.5557H20.5892H20.6228H20.6563H20.6899H20.7235H20.757H20.7906H20.8242H20.8577H20.8913H20.9249H20.9584H20.992H21.0256H21.0591H21.0927H21.1262H21.1598H21.1934H21.2269H21.2605H21.2941H21.3276H21.3612H21.3948H21.4283H21.4619H21.4955H21.529H21.5626H21.5961H21.6297H21.6633H21.6968H21.7304H21.764H21.7975H21.8311H21.8647H21.8982H21.9318H21.9653H21.9989H22.0325H22.066H22.0996H22.1332H22.1667H22.2003H22.2339H22.2674H22.301H22.3346H22.3681H22.4017H22.4352H22.4688H22.5024H22.5359H22.5695H22.6031H22.6366H22.6702H22.7038H22.7373H22.7709H22.8044H22.838H22.8716H22.9051H22.9387H22.9723H23.0058H23.0394H23.073H23.1065H23.1401H23.1736H23.2072H23.2408H23.2743H23.3079H23.3415H23.375H23.4086H23.4422H23.4757H23.5093H23.5428H23.5764H23.61H23.6435H23.6771H23.7107H23.7442H23.7778H23.8114H23.8449H23.8785H23.912H23.9456H23.9792H24.0127H24.0463H24.0799H24.1134H24.147H24.1805H24.2141H24.2477H24.2812H24.3148H24.3484H24.3819H24.4155H24.4491H24.4826H24.5162H24.5497H24.5833H24.6169H24.6504H24.684H24.7176H24.7511H24.7847H24.8183H24.8518H24.8854H24.9189H24.9525H24.9861H25.0196H25.0532H25.0868H25.1203H25.1539H25.1874H25.221H25.2546H25.2881H25.3217H25.3553H25.3888H25.4224H25.456H25.4895H25.5231H25.5566H25.5902H25.6238H25.6573H25.6909H25.7245H25.758H25.7916H25.8251H25.8587H25.8923H25.9258H25.9594H25.993H26.0265H26.0601H26.0936H26.1272H26.1608H26.1943H26.2279H26.2615H26.295H26.3286H26.3622H26.3957H26.4293H26.4628H26.4964H26.53H26.5635H26.5971H26.6307H26.6642H26.6978H26.7313H26.7649H26.7985H26.832H26.8656H26.8992H26.9327H26.9663H26.9998H27.0334H27.067H27.1005H27.1341H27.1677H27.2012H27.2348H27.2683H27.3019H27.3355H27.369H27.4026H27.4362H27.4697H27.5033H27.5368H27.5704H27.604H27.6375H27.6711H27.7047H27.7382H27.7718H27.8053H27.8389H27.8725H27.906H27.9396H27.9732H28.0067H28.0403H28.0738H28.1074H28.141H28.1745H28.2081H28.2417H28.2752H28.3088H28.3423H28.3759H28.4095H28.443H28.4766H28.5102H28.5437H28.5773H28.6108H28.6444H28.678H28.7115H28.7451H28.7787H28.8122H28.8458H28.8793H28.9129H28.9465H28.98H29.0136H29.0471H29.0807H29.1143H29.1478H29.1814H29.215H29.2485H29.2821H29.3156H29.3492H29.3828H29.4163H29.4499H29.4835H29.517H29.5506H29.5841H29.6177H29.6513H29.6848H29.7184H29.752H29.7855H29.8191H29.8526H29.8862H29.9198H29.9533H29.9869H30.0204H30.054H30.0876H30.1211H30.1547H30.1883H30.2218H30.2554H30.2889H30.3225H30.3561H30.3896H30.4232H30.4568H30.4903H30.5239H30.5574H30.591H30.6246H30.6581H30.6917H30.7252H30.7588H30.7924H30.8259H30.8595H30.8931H30.9266H30.9602H30.9937H31.0273H31.0609H31.0944H31.128H31.1615H31.1951H31.2287H31.2622H31.2958C32.2179 26.4003 32.9978 26.1535 33.6057 25.694C34.2135 25.2346 34.6578 24.556 34.8979 23.6772C35.9724 19.7251 37.0499 15.7745 38.1304 11.8253C38.2887 11.2467 38.4595 10.6705 38.6299 10.0959C38.7139 9.81265 38.7978 9.52978 38.88 9.2472L39 9.28212V8.76866C38.7526 8.24628 38.3236 8.09894 37.7629 8.09894H8.49869H8.00838C7.99167 8.04122 7.9761 7.98843 7.96141 7.93866C7.93719 7.85655 7.91538 7.78262 7.89488 7.70827C7.26687 5.43344 6.63847 3.15936 6.00969 0.886017C5.82015 0.198434 5.56705 0.00421143 4.84975 0.00421143H0.354115H0.125V0.129211M35.5121 33.0053L6.43871 9.51094C5.97358 7.82956 5.52783 6.14234 5.08218 4.45551C4.88081 3.69329 4.67945 2.93115 4.47634 2.16965C4.44343 2.05022 4.40824 1.9319 4.36284 1.79014H0.125V1.66514M35.5121 33.0053C35.4812 33.8152 35.2021 34.5973 34.7111 35.2489C34.22 35.9008 33.5397 36.3918 32.7594 36.657C31.9839 36.9171 31.1467 36.9412 30.357 36.7263C29.5672 36.5114 28.862 36.0675 28.3331 35.4529C27.8062 34.8378 27.4797 34.0814 27.3956 33.282C27.3114 32.4827 27.4734 31.6769 27.8607 30.9691C27.8608 30.9689 27.8608 30.9688 27.8609 30.9686L28.0761 30.5821L28.1796 30.3963H27.9669H17.3753H17.1641L17.2658 30.5814C17.31 30.662 17.3522 30.7421 17.3936 30.8207C17.409 30.8499 17.4242 30.8789 17.4395 30.9076C17.8384 31.676 18.0183 32.4292 17.9702 33.1573C17.9221 33.885 17.6456 34.5965 17.1174 35.2815L17.1174 35.2815C16.0851 36.621 14.6649 37.1307 12.9934 36.7539L12.9934 36.7539C12.1302 36.5598 11.4437 36.1851 10.9289 35.6518C10.414 35.1183 10.0647 34.4197 9.88653 33.5686L9.88647 33.5683C9.55762 32.017 10.2816 30.4058 11.6753 29.5253L11.6085 29.4196M35.5121 33.0053L6.55919 9.47761M0.125 0.129211H0V1.66514H0.125M0.125 0.129211V1.66514M0.125 0.129211H0.354115H0.362893H0.371672H0.38045H0.389228H0.398007H0.406785H0.415563H0.424342H0.43312H0.441899H0.450677H0.459455H0.468234H0.477012H0.485791H0.494569H0.503348H0.512126H0.520905H0.529683H0.538462H0.54724H0.556019H0.564797H0.573576H0.582354H0.591133H0.599911H0.60869H0.617469H0.626247H0.635026H0.643804H0.652583H0.661362H0.67014H0.678919H0.687697H0.696476H0.705255H0.714033H0.722812H0.731591H0.740369H0.749148H0.757927H0.766706H0.775484H0.784263H0.793042H0.801821H0.810599H0.819378H0.828157H0.836936H0.845715H0.854493H0.863272H0.872051H0.88083H0.889609H0.898387H0.907166H0.915945H0.924724H0.933503H0.942282H0.951061H0.95984H0.968619H0.977398H0.986176H0.994955H1.00373H1.01251H1.02129H1.03007H1.03885H1.04763H1.05641H1.06519H1.07397H1.08275H1.09152H1.1003H1.10908H1.11786H1.12664H1.13542H1.1442H1.15298H1.16176H1.17054H1.17932H1.18809H1.19687H1.20565H1.21443H1.22321H1.23199H1.24077H1.24955H1.25833H1.26711H1.27589H1.28467H1.29344H1.30222H1.311H1.31978H1.32856H1.33734H1.34612H1.3549H1.36368H1.37246H1.38124H1.39002H1.3988H1.40758H1.41635H1.42513H1.43391H1.44269H1.45147H1.46025H1.46903H1.47781H1.48659H1.49537H1.50415H1.51293H1.52171H1.53049H1.53927H1.54805H1.55683H1.56561H1.57438H1.58316H1.59194H1.60072H1.6095H1.61828H1.62706H1.63584H1.64462H1.6534H1.66218H1.67096H1.67974H1.68852H1.6973H1.70608H1.71486H1.72364H1.73242H1.7412H1.74998H1.75876H1.76754H1.77632H1.7851H1.79388H1.80266H1.81144H1.82021H1.82899H1.83777H1.84655H1.85533H1.86411H1.87289H1.88167H1.89045H1.89923H1.90801H1.91679H1.92557H1.93435H1.94313H1.95191H1.96069H1.96947H1.97825H1.98703H1.99581H2.00459H2.01337H2.02215H2.03093H2.03971H2.04849H2.05727H2.06605H2.07483H2.08361H2.09239H2.10117H2.10995H2.11873H2.12751H2.13629H2.14507H2.15385H2.16263H2.17141H2.18019H2.18897H2.19775H2.20653H2.21531H2.22409H2.23287H2.24165H2.25043H2.25921H2.26799H2.27677H2.28555H2.29433H2.30311H2.3119H2.32068H2.32946H2.33824H2.34702H2.3558H2.36458H2.37336H2.38214H2.39092H2.3997H2.40848H2.41726H2.42604H2.43482H2.4436H2.45238H2.46116H2.46994H2.47872H2.4875H2.49628H2.50506H2.51384H2.52262H2.5314H2.54018H2.54896H2.55775H2.56653H2.57531H2.58409H2.59287H2.60165H2.61043H2.61921H2.62799H2.63677H2.64555H2.65433H2.66311H2.67189H2.68067H2.68945H2.69823H2.70701H2.7158H2.72458H2.73336H2.74214H2.75092H2.7597H2.76848H2.77726H2.78604H2.79482H2.8036H2.81238H2.82116H2.82994H2.83873H2.84751H2.85629H2.86507H2.87385H2.88263H2.89141H2.90019H2.90897H2.91775H2.92653H2.93531H2.9441H2.95288H2.96166H2.97044H2.97922H2.988H2.99678H3.00556H3.01434H3.02312H3.0319H3.04069H3.04947H3.05825H3.06703H3.07581H3.08459H3.09337H3.10215H3.11093H3.11971H3.1285H3.13728H3.14606H3.15484H3.16362H3.1724H3.18118H3.18996H3.19874H3.20753H3.21631H3.22509H3.23387H3.24265H3.25143H3.26021H3.26899H3.27777H3.28656H3.29534H3.30412H3.3129H3.32168H3.33046H3.33924H3.34802H3.35681H3.36559H3.37437H3.38315H3.39193H3.40071H3.40949H3.41827H3.42706H3.43584H3.44462H3.4534H3.46218H3.47096H3.47974H3.48853H3.49731H3.50609H3.51487H3.52365H3.53243H3.54121H3.55H3.55878H3.56756H3.57634H3.58512H3.5939H3.60268H3.61147H3.62025H3.62903H3.63781H3.64659H3.65537H3.66416H3.67294H3.68172H3.6905H3.69928H3.70806H3.71685H3.72563H3.73441H3.74319H3.75197H3.76075H3.76954H3.77832H3.7871H3.79588H3.80466H3.81344H3.82223H3.83101H3.83979H3.84857H3.85735H3.86613H3.87492H3.8837H3.89248H3.90126H3.91004H3.91883H3.92761H3.93639H3.94517H3.95395H3.96273H3.97152H3.9803H3.98908H3.99786H4.00664H4.01543H4.02421H4.03299H4.04177H4.05055H4.05934H4.06812H4.0769H4.08568H4.09446H4.10325H4.11203H4.12081H4.12959H4.13837H4.14716H4.15594H4.16472H4.1735H4.18228H4.19107H4.19985H4.20863H4.21741H4.22619H4.23498H4.24376H4.25254H4.26132H4.27011H4.27889H4.28767H4.29645H4.30523H4.31402H4.3228H4.33158H4.34036H4.34915H4.35793H4.36671H4.37549H4.38427H4.39306H4.40184H4.41062H4.4194H4.42819H4.43697H4.44575H4.45453H4.46332H4.4721H4.48088H4.48966H4.49845H4.50723H4.51601H4.52479H4.53357H4.54236H4.55114H4.55992H4.5687H4.57749H4.58627H4.59505H4.60383H4.61262H4.6214H4.63018H4.63896H4.64775H4.65653H4.66531H4.67409H4.68288H4.69166H4.70044H4.70923H4.71801H4.72679H4.73557H4.74436H4.75314H4.76192H4.7707H4.77949H4.78827H4.79705H4.80583H4.81462H4.8234H4.83218H4.84097H4.84975C5.20171 0.129211 5.40915 0.178017 5.5519 0.286719C5.69462 0.395402 5.79618 0.581856 5.88919 0.919236L5.88922 0.919339C6.51799 3.19266 7.14638 5.46672 7.77439 7.74153M0.125 1.66514H4.36284H4.45406L4.48189 1.75202C4.52777 1.89527 4.56345 2.01524 4.59685 2.13644L4.59712 2.13744L4.59712 2.13744C4.8004 2.89956 5.00184 3.66205 5.20326 4.42444C5.64882 6.11092 6.09425 7.79695 6.55919 9.47761M6.55919 9.47761C8.34485 15.9269 10.1381 22.3741 11.9389 28.8189L11.9389 28.8189C11.9785 28.9608 11.9981 29.0943 11.9546 29.2198C11.9103 29.3475 11.8101 29.4405 11.6751 29.5254L11.6085 29.4196M6.55919 9.47761L37.7629 8.22394H37.7057H37.6486H37.5914H37.5342H37.4771H37.4199H37.3628H37.3056H37.2484H37.1913H37.1341H37.077H37.0198H36.9626H36.9055H36.8483H36.7911H36.734H36.6768H36.6197H36.5625H36.5053H36.4482H36.391H36.3339H36.2767H36.2195H36.1624H36.1052H36.0481H35.9909H35.9337H35.8766H35.8194H35.7623H35.7051H35.6479H35.5908H35.5336H35.4765H35.4193H35.3621H35.305H35.2478H35.1907H35.1335H35.0763H35.0192H34.962H34.9049H34.8477H34.7905H34.7334H34.6762H34.6191H34.5619H34.5047H34.4476H34.3904H34.3333H34.2761H34.2189H34.1618H34.1046H34.0475H33.9903H33.9331H33.876H33.8188H33.7617H33.7045H33.6473H33.5902H33.533H33.4759H33.4187H33.3615H33.3044H33.2472H33.1901H33.1329H33.0757H33.0186H32.9614H32.9043H32.8471H32.7899H32.7328H32.6756H32.6185H32.5613H32.5041H32.447H32.3898H32.3327H32.2755H32.2183H32.1612H32.104H32.0469H31.9897H31.9325H31.8754H31.8182H31.7611H31.7039H31.6467H31.5896H31.5324H31.4753H31.4181H31.361H31.3038H31.2466H31.1895H31.1323H31.0752H31.018H30.9608H30.9037H30.8465H30.7894H30.7322H30.675H30.6179H30.5607H30.5036H30.4464H30.3893H30.3321H30.2749H30.2178H30.1606H30.1035H30.0463H29.9891H29.932H29.8748H29.8177H29.7605H29.7033H29.6462H29.589H29.5319H29.4747H29.4176H29.3604H29.3032H29.2461H29.1889H29.1318H29.0746H29.0174H28.9603H28.9031H28.846H28.7888H28.7317H28.6745H28.6173H28.5602H28.503H28.4459H28.3887H28.3315H28.2744H28.2172H28.1601H28.1029H28.0458H27.9886H27.9314H27.8743H27.8171H27.76H27.7028H27.6456H27.5885H27.5313H27.4742H27.417H27.3599H27.3027H27.2455H27.1884H27.1312H27.0741H27.0169H26.9598H26.9026H26.8454H26.7883H26.7311H26.674H26.6168H26.5596H26.5025H26.4453H26.3882H26.331H26.2739H26.2167H26.1595H26.1024H26.0452H25.9881H25.9309H25.8738H25.8166H25.7594H25.7023H25.6451H25.588H25.5308H25.4737H25.4165H25.3593H25.3022H25.245H25.1879H25.1307H25.0736H25.0164H24.9592H24.9021H24.8449H24.7878H24.7306H24.6735H24.6163H24.5591H24.502H24.4448H24.3877H24.3305H24.2734H24.2162H24.159H24.1019H24.0447H23.9876H23.9304H23.8733H23.8161H23.7589H23.7018H23.6446H23.5875H23.5303H23.4732H23.416H23.3588H23.3017H23.2445H23.1874H23.1302H23.0731H23.0159H22.9587H22.9016H22.8444H22.7873H22.7301H22.673H22.6158H22.5587H22.5015H22.4443H22.3872H22.33H22.2729H22.2157H22.1586H22.1014H22.0442H21.9871H21.9299H21.8728H21.8156H21.7585H21.7013H21.6442H21.587H21.5298H21.4727H21.4155H21.3584H21.3012H21.2441H21.1869H21.1297H21.0726H21.0154H20.9583H20.9011H20.844H20.7868H20.7297H20.6725H20.6153H20.5582H20.501H20.4439H20.3867H20.3296H20.2724H20.2153H20.1581H20.1009H20.0438H19.9866H19.9295H19.8723H19.8152H19.758H19.7009H19.6437H19.5865H19.5294H19.4722H19.4151H19.3579H19.3008H19.2436H19.1865H19.1293H19.0721H19.015H18.9578H18.9007H18.8435H18.7864H18.7292H18.6721H18.6149H18.5577H18.5006H18.4434H18.3863H18.3291H18.272H18.2148H18.1577H18.1005H18.0433H17.9862H17.929H17.8719H17.8147H17.7576H17.7004H17.6433H17.5861H17.529H17.4718H17.4146H17.3575H17.3003H17.2432H17.186H17.1289H17.0717H17.0146H16.9574H16.9003H16.8431H16.7859H16.7288H16.6716H16.6145H16.5573H16.5002H16.443H16.3859H16.3287H16.2715H16.2144H16.1572H16.1001H16.0429H15.9858H15.9286H15.8715H15.8143H15.7572H15.7H15.6429H15.5857H15.5285H15.4714H15.4142H15.3571H15.2999H15.2428H15.1856H15.1285H15.0713H15.0142H14.957H14.8998H14.8427H14.7855H14.7284H14.6712H14.6141H14.5569H14.4998H14.4426H14.3855H14.3283H14.2712H14.214H14.1568H14.0997H14.0425H13.9854H13.9282H13.8711H13.8139H13.7568H13.6996H13.6425H13.5853H13.5282H13.471H13.4138H13.3567H13.2995H13.2424H13.1852H13.1281H13.0709H13.0138H12.9566H12.8995H12.8423H12.7852H12.728H12.6708H12.6137H12.5565H12.4994H12.4422H12.3851H12.3279H12.2708H12.2136H12.1565H12.0993H12.0422H11.985H11.9279H11.8707H11.8135H11.7564H11.6992H11.6421H11.5849H11.5278H11.4706H11.4135H11.3563H11.2992H11.242H11.1849H11.1277H11.0706H11.0134H10.9563H10.8991H10.8419H10.7848H10.7276H10.6705H10.6133H10.5562H10.499H10.4419H10.3847H10.3276H10.2704H10.2133H10.1561H10.099H10.0418H9.98465H9.9275H9.87035H9.8132H9.75604H9.69889H9.64174H9.58459H9.52743H9.47028H9.41313H9.35598H9.29882H9.24167H9.18452H9.12737H9.07021H9.01306H8.95591H8.89876H8.84161H8.78445H8.7273H8.67015H8.613H8.55584H8.49869H8.00838H7.91443L7.88831 8.1337C7.87205 8.07752 7.85665 8.02532 7.84201 7.97569C7.81751 7.89263 7.79513 7.81677 7.77439 7.74153M11.6085 29.4196C10.1739 30.326 9.42369 31.988 9.76419 33.5942L11.8185 28.8526C11.8945 29.1249 11.8605 29.2611 11.6085 29.4196ZM7.77439 7.74153L7.89475 7.7083L7.77438 7.74148C7.77438 7.7415 7.77439 7.74151 7.77439 7.74153ZM36.8821 9.91278L37.0028 9.94536L37.0454 9.78778H36.8821V9.91278ZM36.8821 9.91278C36.7432 10.4273 36.6065 10.9347 36.4709 11.4379C36.2852 12.1268 36.1017 12.808 35.9174 13.4891M36.8821 9.91278H8.45783M35.9174 13.4891C35.0382 16.7298 34.1605 19.9709 33.2843 23.2124M35.9174 13.4891L36.0381 13.5218L36.0381 13.5218L35.9174 13.4891ZM8.45783 9.91278V9.78778H8.30144L8.33591 9.94032L8.45783 9.91278ZM8.45783 9.91278C8.4676 9.95602 8.47652 9.99736 8.48513 10.0373C8.50454 10.1273 8.52243 10.2104 8.54523 10.2923M8.54523 10.2923L8.4248 10.3258L8.42485 10.326L8.54523 10.2923ZM8.54523 10.2923C9.75587 14.6194 10.9665 18.947 12.1771 23.2749C12.4825 24.3665 13.0795 24.8175 14.2417 24.8175H31.1585C32.4001 24.8175 32.9665 24.3855 33.2843 23.2124M33.2843 23.2124L33.4049 23.2451L33.4049 23.245L33.2843 23.2124ZM31.4671 30.3729L31.4665 30.3729L31.466 30.4979L31.4671 30.3729ZM33.9892 32.8658L33.8642 32.8664L33.9892 32.8662L33.9892 32.8658ZM13.8782 30.374L13.8779 30.374L13.8785 30.499L13.8782 30.374Z" fill="white" stroke="#FFB140" stroke-width="0.25"/>
</svg>
