<svg width="53" height="54" viewBox="0 0 53 54" fill="none" xmlns="http://www.w3.org/2000/svg">
<g clip-path="url(#clip0_34_1210)">
<path d="M4.44045 29.2114V46.8833H27.3797V38.6978C27.3797 38.55 27.3797 38.4021 27.3797 38.2543C27.4151 37.7221 27.7573 37.3777 28.2484 37.3673C28.3637 37.3627 28.4787 37.3816 28.5865 37.423C28.6943 37.4643 28.7925 37.5272 28.8753 37.6079C28.9581 37.6885 29.0236 37.7851 29.0679 37.8919C29.1123 37.9988 29.1345 38.1135 29.1332 38.2292C29.1553 38.615 29.1406 39.0023 29.1406 39.3897V46.9113C29.7083 46.9113 30.2348 46.9039 30.7628 46.9113C31.4529 46.9217 31.7833 47.241 31.7877 47.9255C31.7877 48.6646 31.8408 49.4038 31.742 50.1341C31.4293 52.4373 29.6154 53.9954 27.2898 53.9954C19.694 54.0033 12.0982 54.0033 4.5024 53.9954C4.2085 53.9945 3.9153 53.9668 3.62641 53.9127C2.62191 53.7336 1.71105 53.2093 1.05055 52.4298C0.39004 51.6503 0.0211865 50.6644 0.00744401 49.6418C-0.00287904 49.0889 -0.00140432 48.5345 0.00744401 47.9816C0.0148176 47.2321 0.330407 46.9246 1.09431 46.9173C1.58834 46.9173 2.08385 46.9173 2.65457 46.9173V28.7162C2.65457 27.6976 2.9097 27.4434 3.92135 27.4434C6.47852 27.4434 9.03421 27.4434 11.5899 27.4434C12.0574 27.4434 12.4275 27.5823 12.5912 28.0509C12.8006 28.66 12.37 29.2055 11.6607 29.2114C10.3187 29.2247 8.97522 29.2114 7.63322 29.2114H4.44045ZM6.1703 52.2215C6.23372 51.4956 5.96384 50.5347 7.01532 50.4948C8.19509 50.4504 7.8854 51.5104 7.96946 52.186H23.8286C23.8935 50.8644 24.0631 50.4682 24.653 50.4785C25.8534 50.5007 25.5467 51.4882 25.6381 52.183C29.4222 52.7064 30.2967 50.6677 29.9664 48.7252H1.77711C1.77711 49.0889 1.76089 49.4186 1.77711 49.7468C1.81557 50.3788 2.07959 50.9759 2.52094 51.4289C2.96229 51.8819 3.55149 52.1606 4.1809 52.2141C4.82093 52.2569 5.46391 52.2215 6.1703 52.2215Z" fill="#185494"/>
<path d="M26.4889 21.7135L15.4285 30.8628C15.7087 31.3566 15.9845 31.8474 16.2647 32.3411C16.6864 33.0803 17.1156 33.8047 17.5374 34.5394C17.9311 35.2268 17.8647 35.7531 17.3574 36.031C16.8501 36.3089 16.3856 36.0872 15.9904 35.4042L13.9479 31.8696C12.8418 32.5215 11.7358 33.1143 10.7035 33.8032C10.0015 34.2703 9.83637 35.2283 10.2522 35.9867C10.8259 37.0363 11.4202 38.077 12.0455 39.0911C12.5395 39.8968 13.4627 40.126 14.3136 39.7298C14.3481 39.7168 14.3812 39.7005 14.4124 39.681C18.024 37.2403 22.2034 36.102 26.1954 34.535C28.2601 33.7219 30.3512 32.9665 32.4896 32.1697C32.3775 31.9686 32.286 31.7986 32.1946 31.6301C31.0276 29.6048 29.8611 27.579 28.6951 25.5527C28.3441 24.9392 28.524 24.3242 29.0859 24.138C29.5549 23.9827 29.9339 24.1631 30.2539 24.7175C31.3589 26.6304 32.461 28.5448 33.5602 30.4607C33.8433 30.956 34.1324 31.4482 34.4111 31.939C34.8535 32.7314 34.6898 33.2045 33.8404 33.5253C30.2136 34.8932 26.5867 36.2587 22.9599 37.6217C22.2742 37.8789 21.5884 38.1391 20.8466 38.42C21.3982 39.3912 21.9497 40.3167 22.4585 41.2657C22.6413 41.5926 22.7527 41.9547 22.7854 42.328C22.818 42.7013 22.7712 43.0773 22.6479 43.4311C22.5247 43.7849 22.3278 44.1084 22.0704 44.3801C21.813 44.6518 21.5009 44.8657 21.1548 45.0074C19.9294 45.51 18.5726 45.0517 17.8618 43.8661C17.2645 42.8727 16.6997 41.8615 16.1909 40.9819C15.2619 41.2406 14.408 41.5732 13.5261 41.6945C12.5897 41.8216 11.7904 41.3323 11.081 40.701C10.7507 40.8829 10.4366 41.0706 10.1092 41.2332C9.49902 41.5529 8.78879 41.6225 8.12843 41.4272C7.46806 41.2319 6.90922 40.7871 6.56986 40.1866C5.86347 38.9359 6.27491 37.4088 7.51516 36.6164C7.6047 36.5517 7.70056 36.4962 7.80125 36.4509C8.26874 36.2675 8.41326 36.0074 8.34395 35.4486C8.18615 34.1476 8.71558 33.0833 9.7582 32.2746C9.82957 32.2182 9.90611 32.1687 9.98679 32.1268C13.8211 30.2582 16.89 27.3311 20.1491 24.6716C22.0942 23.0721 24.0276 21.4533 25.9728 19.8464C26.6762 19.2654 27.1747 19.3512 27.6333 20.1288C27.8766 20.5412 28.1244 20.9507 28.35 21.372C28.6228 21.8806 28.5137 22.3743 28.0919 22.636C27.6495 22.9154 27.154 22.7749 26.8237 22.2649C26.7234 22.1141 26.6334 21.9545 26.4889 21.7135ZM19.1227 39.0645L17.6052 39.9515C18.2246 41.0218 18.7968 42.0448 19.4058 43.0471C19.4629 43.1427 19.5384 43.226 19.6278 43.2921C19.7172 43.3583 19.8188 43.406 19.9267 43.4325C20.0347 43.4591 20.1468 43.4639 20.2566 43.4467C20.3664 43.4295 20.4717 43.3907 20.5664 43.3324C20.6642 43.28 20.7507 43.2087 20.8209 43.1227C20.8912 43.0367 20.9437 42.9376 20.9757 42.8311C21.0076 42.7247 21.0182 42.613 21.007 42.5024C20.9957 42.3918 20.9628 42.2845 20.91 42.1867C20.3482 41.1519 19.745 40.1452 19.1227 39.0645ZM10.0281 39.1724L9.17274 37.6941C8.01951 38.2766 7.72604 38.729 8.0726 39.3203C8.41916 39.9116 9.00315 39.8776 10.0355 39.1769L10.0281 39.1724Z" fill="#185494"/>
<path d="M45.0453 0.883971C46.756 0.883971 48.4667 0.883971 50.1774 0.883971C51.888 0.883971 52.9793 1.99567 52.9882 3.6839C52.9941 7.13331 52.9941 10.5827 52.9882 14.0321C52.9882 15.6923 51.8703 16.8173 50.2216 16.8202C46.7649 16.8271 43.3071 16.8271 39.8484 16.8202C38.2262 16.8202 37.1054 15.6864 37.0966 14.0735C37.0877 12.4134 37.0966 10.7547 37.0966 9.09454C37.0966 8.38791 37.4122 7.98581 37.9593 7.97398C38.5064 7.96215 38.8604 8.37756 38.8618 9.11228C38.8618 10.7163 38.8618 12.3202 38.8618 13.9242C38.8618 14.7506 39.1671 15.0507 40.0003 15.0507C43.3656 15.0507 46.7314 15.0507 50.0977 15.0507C50.9206 15.0507 51.2229 14.7447 51.2229 13.9109C51.2229 10.5374 51.2229 7.16337 51.2229 3.78886C51.2229 2.96101 50.928 2.65943 50.0889 2.65943C46.7236 2.65943 43.3578 2.65943 39.9915 2.65943C39.1612 2.65943 38.8662 2.95509 38.8618 3.79182C38.8618 4.27227 38.8707 4.75125 38.8618 5.23022C38.8456 5.82155 38.4695 6.21183 37.9534 6.19409C37.4372 6.17635 37.1143 5.80381 37.1025 5.23022C37.0907 4.65664 37.0892 4.08601 37.1025 3.51538C37.1044 3.16822 37.1747 2.82485 37.3092 2.50495C37.4437 2.18505 37.6399 1.89491 37.8865 1.65115C38.1331 1.40739 38.4253 1.21481 38.7462 1.08443C39.0672 0.954048 39.4107 0.88844 39.757 0.891363C41.5148 0.872145 43.2801 0.883971 45.0453 0.883971Z" fill="#FFB140"/>
<path d="M37.0951 36.2972C37.0951 34.5824 37.0951 32.8676 37.0951 31.1527C37.0951 29.4379 38.2085 28.3291 39.9369 28.3276C43.3386 28.3276 46.7412 28.3276 50.1449 28.3276C51.8762 28.3276 52.9837 29.4275 52.9896 31.1497C52.9896 32.7907 52.9896 34.4316 52.9896 36.0725C52.9896 36.7674 52.6549 37.1754 52.1048 37.1754C51.5547 37.1754 51.22 36.7688 51.22 36.0711C51.22 34.4449 51.22 32.8188 51.22 31.2044C51.22 30.4091 50.9088 30.0987 50.1169 30.0987C46.7319 30.0987 43.3479 30.0987 39.9649 30.0987C39.1685 30.0987 38.8603 30.4076 38.8589 31.2C38.8589 34.5923 38.8589 37.985 38.8589 41.3782C38.8589 42.175 39.1671 42.4884 39.956 42.4899C43.3391 42.4899 46.7231 42.4899 50.108 42.4899C50.9044 42.4899 51.2126 42.1795 51.22 41.3915C51.22 40.8948 51.2111 40.3966 51.22 39.8984C51.2362 39.3308 51.5887 38.9597 52.0901 38.9538C52.5915 38.9479 52.9616 39.3189 52.9749 39.8822C52.9911 40.509 53 41.1373 52.9749 41.7626C52.91 43.1034 51.8158 44.2358 50.4767 44.2462C46.8528 44.2767 43.2294 44.2767 39.6065 44.2462C38.1997 44.2343 37.1069 43.0458 37.0995 41.6059C37.0833 39.8378 37.0951 38.0668 37.0951 36.2972Z" fill="#FFB140"/>
<path d="M12.367 16.8734C12.367 19.1234 12.367 21.3734 12.367 23.6234C12.367 24.4897 12.072 24.7839 11.2064 24.7839C7.85876 24.7839 4.51065 24.7839 1.16205 24.7839C0.29786 24.7839 0.00439453 24.4882 0.00439453 23.6219C0.00439453 19.0884 0.00439453 14.5515 0.00439453 10.0111C0.00439453 9.14328 0.299337 8.85205 1.16352 8.85205C4.51114 8.85205 7.85925 8.85205 11.2079 8.85205C12.0735 8.85205 12.3655 9.14772 12.367 10.0125C12.3689 12.3 12.3689 14.5869 12.367 16.8734ZM10.5767 10.6645H1.81388V22.9848H10.5767V10.6645Z" fill="#FFB140"/>
<path d="M14.1337 7.95489C14.1362 6.90672 14.3449 5.86934 14.7477 4.90207C15.1505 3.93481 15.7396 3.05664 16.4813 2.31781C17.223 1.57898 18.1027 0.993988 19.0701 0.596285C20.0376 0.198582 21.0737 -0.00402325 22.1193 6.05267e-05C23.165 0.00586195 24.1992 0.218333 25.1627 0.62531C26.1263 1.03229 27.0004 1.62578 27.7349 2.37181C28.4694 3.11784 29.0499 4.00176 29.4432 4.97297C29.8364 5.94419 30.0348 6.98362 30.0268 8.03176C30.0076 12.4165 26.4049 15.9585 21.9807 15.9319C17.6627 15.9053 14.116 12.3071 14.1337 7.95489ZM28.2616 7.95489C28.2565 6.31534 27.6047 4.74435 26.4485 3.58474C25.2923 2.42512 23.7254 1.77102 22.0898 1.76517C21.2748 1.76517 20.4679 1.9264 19.7151 2.23963C18.9624 2.55286 18.2788 3.01193 17.7034 3.59052C17.128 4.16911 16.6721 4.85585 16.362 5.61137C16.0518 6.36689 15.8935 7.17634 15.896 7.99333C15.908 9.62367 16.5592 11.1839 17.7089 12.337C18.8587 13.4902 20.4148 14.1437 22.0412 14.1564C22.8558 14.1599 23.6631 14.0023 24.4169 13.6926C25.1707 13.3829 25.8561 12.9271 26.4339 12.3515C27.0117 11.7758 27.4705 11.0916 27.7842 10.3379C28.0978 9.58423 28.26 8.77594 28.2616 7.95932V7.95489Z" fill="#FFB140"/>
<path d="M48.5729 36.2778C48.5752 37.2185 48.2048 38.1217 47.543 38.7887C46.8813 39.4557 45.9823 39.8319 45.0439 39.8346C44.1138 39.8347 43.2211 39.4678 42.5588 38.8133C41.8964 38.1588 41.5177 37.2692 41.5046 36.3369C41.4999 35.8706 41.587 35.408 41.7608 34.9754C41.9347 34.5429 42.1919 34.149 42.5177 33.8161C42.8435 33.4833 43.2316 33.2182 43.6598 33.0358C44.0879 32.8535 44.5478 32.7575 45.0129 32.7535C45.9511 32.748 46.8531 33.1161 47.5206 33.777C48.1882 34.4378 48.5667 35.3373 48.5729 36.2778ZM45.0336 34.526C44.5693 34.5299 44.1252 34.7164 43.7969 35.0455C43.4686 35.3746 43.2825 35.8198 43.2787 36.2852C43.2786 36.5204 43.3253 36.7533 43.4159 36.9703C43.5064 37.1873 43.6392 37.384 43.8063 37.5491C43.9735 37.7142 44.1717 37.8443 44.3895 37.9319C44.6073 38.0194 44.8402 38.0627 45.0749 38.0592C45.5396 38.0491 45.9817 37.8561 46.3056 37.522C46.6296 37.1878 46.8094 36.7393 46.8062 36.2734C46.7992 35.8075 46.6097 35.3631 46.2786 35.0361C45.9474 34.7092 45.5013 34.5259 45.0365 34.526H45.0336Z" fill="#FFB140"/>
<path d="M45.0424 7.94482C46.4212 8.01135 46.7885 8.20501 46.8032 8.83182C46.8179 9.45862 46.4419 9.6715 45.0424 9.76759C45.0424 10.6014 45.0424 11.441 45.0424 12.2807C45.0424 12.7878 44.8197 13.1352 44.3227 13.2549C43.7815 13.3836 43.2904 12.9593 43.2816 12.3354C43.2654 11.4913 43.2816 10.6457 43.2816 9.77055C42.5619 9.66263 41.5311 9.97751 41.5473 8.83182C41.5621 7.73047 42.556 8.02761 43.2831 7.94482C43.2831 7.60629 43.2727 7.29732 43.2831 6.98835C43.3065 6.31795 43.5827 5.6814 44.0559 5.20706C44.5291 4.73272 45.1641 4.45587 45.8328 4.43234C46.4227 4.41164 47.0126 4.41756 47.6025 4.43234C48.1924 4.44712 48.5876 4.80931 48.5773 5.32968C48.567 5.85005 48.185 6.18563 47.573 6.19745C47.1306 6.20632 46.6882 6.19745 46.2458 6.19745C45.3182 6.19745 45.0468 6.48129 45.0483 7.42889L45.0424 7.94482Z" fill="#FFB140"/>
<path d="M36.2619 26.5566C35.672 26.5492 35.2945 26.2328 35.2399 25.7583C35.1854 25.2837 35.5054 24.8964 36.0289 24.79C37.4505 24.4943 38.8731 24.2065 40.2967 23.9266C40.9309 23.801 41.3895 24.0626 41.5016 24.5874C41.6181 25.1418 41.3084 25.5543 40.6374 25.6947C39.2718 25.9815 37.9018 26.255 36.5332 26.5314C36.4434 26.5455 36.3528 26.5539 36.2619 26.5566Z" fill="#185494"/>
<path d="M29.9309 18.6639C30.0233 18.4318 30.1338 18.2074 30.2612 17.9927C31.0989 16.8544 31.9444 15.721 32.7978 14.5926C33.165 14.1092 33.6708 14.0219 34.0896 14.3383C34.5084 14.6547 34.5645 15.1588 34.2002 15.654C33.3626 16.7923 32.5166 17.9257 31.6622 19.0541C31.3953 19.4075 31.0163 19.6174 30.6093 19.3853C30.3291 19.2301 30.1433 18.9033 29.9309 18.6639Z" fill="#185494"/>
<path d="M37.1939 18.4805C37.4343 18.7155 37.7499 18.9121 37.9047 19.1975C38.1141 19.5848 37.918 19.9544 37.5832 20.2086C36.4448 21.0749 35.3033 21.9383 34.153 22.7868C33.6693 23.1431 33.1532 23.0647 32.8464 22.639C32.5397 22.2132 32.6385 21.7372 33.0957 21.3839C33.833 20.8118 34.5881 20.2574 35.3372 19.6956C35.7177 19.4089 36.0923 19.1132 36.4831 18.8412C36.7122 18.706 36.9496 18.5855 37.1939 18.4805Z" fill="#185494"/>
<path d="M6.14806 17.7026C5.59652 17.7026 5.04497 17.713 4.49342 17.7026C3.94188 17.6923 3.54665 17.3331 3.54665 16.8364C3.53485 16.313 3.91828 15.9494 4.51702 15.9361C5.63928 15.9257 6.76154 15.9242 7.88233 15.9361C8.45157 15.9361 8.82468 16.2968 8.83648 16.7979C8.84827 17.2991 8.46042 17.6849 7.86464 17.6982C7.28949 17.713 6.71878 17.7026 6.14806 17.7026Z" fill="#FFB140"/>
<path d="M6.17313 21.2434C5.62159 21.2434 5.07004 21.2537 4.51849 21.2434C3.91681 21.2301 3.53338 20.8694 3.54075 20.3564C3.54813 19.8434 3.93008 19.4901 4.54061 19.4857C5.64567 19.4768 6.74926 19.4768 7.85136 19.4857C8.45305 19.4857 8.83795 19.8582 8.83058 20.3726C8.8232 20.8871 8.44125 21.2345 7.82925 21.2449C7.2777 21.2522 6.72615 21.2434 6.17313 21.2434Z" fill="#FFB140"/>
<path d="M7.033 14.1579C6.73805 14.1579 6.44311 14.1756 6.14817 14.1579C5.92481 14.1511 5.71263 14.0584 5.55559 13.899C5.39855 13.7397 5.30869 13.5259 5.30462 13.3019C5.30006 13.186 5.31887 13.0704 5.35994 12.962C5.40101 12.8536 5.46348 12.7546 5.54362 12.6709C5.62376 12.5873 5.71991 12.5207 5.82632 12.4752C5.93273 12.4297 6.04722 12.4062 6.16291 12.4061C6.76754 12.3809 7.3766 12.3809 7.98271 12.4061C8.20678 12.4103 8.42039 12.5019 8.57817 12.6614C8.73594 12.821 8.82547 13.0359 8.82773 13.2605C8.83008 13.3757 8.80978 13.4901 8.76798 13.5974C8.72619 13.7046 8.66373 13.8026 8.58416 13.8857C8.50459 13.9687 8.40948 14.0352 8.30426 14.0814C8.19904 14.1276 8.08577 14.1526 7.97092 14.1549C7.65975 14.1756 7.34564 14.1593 7.033 14.1579Z" fill="#FFB140"/>
<path d="M19.4324 7.95334C19.4324 7.124 19.4235 6.29466 19.4324 5.4668C19.4441 4.57981 20.0532 4.20432 20.8466 4.5946C22.5263 5.42245 24.2075 6.24883 25.8607 7.12548C26.1599 7.31505 26.3744 7.61328 26.4594 7.95777C26.5523 8.37318 26.2175 8.65258 25.8459 8.84476C24.1692 9.68001 22.4998 10.5286 20.8186 11.3579C20.0547 11.7334 19.4456 11.3579 19.4309 10.5049C19.4161 9.65192 19.4324 8.80189 19.4324 7.95334ZM21.2138 9.18182L23.6265 7.96369L21.2138 6.75442V9.18182Z" fill="#FFB140"/>
</g>
<defs>
<clipPath id="clip0_34_1210">
<rect width="53" height="54" fill="white"/>
</clipPath>
</defs>
</svg>
