<svg width="35" height="35" viewBox="0 0 35 35" fill="none" xmlns="http://www.w3.org/2000/svg">
<path d="M17.038 0.00402832C26.3667 0.00402832 34.0077 7.6362 34.0039 16.9728C34.0039 26.51 26.255 34.0617 16.8128 34.0031C7.63641 33.9463 -0.00176672 26.2981 0.00390941 17.0854C0.00958554 7.60404 7.58438 0.00402832 17.038 0.00402832ZM17.2991 2.2741C9.28059 2.08493 2.46924 8.56031 2.26584 16.5207C2.05583 24.7374 8.41498 31.3963 16.406 31.7132C18.3445 31.7939 20.2798 31.4906 22.1005 30.8205C23.9212 30.1505 25.5914 29.1271 27.0149 27.8091C28.4385 26.4911 29.5872 24.9046 30.3951 23.141C31.2029 21.3774 31.6539 19.4714 31.7221 17.5328C32.0116 9.37942 25.6524 2.48787 17.2943 2.26748L17.2991 2.2741Z" fill="white"/>
<path d="M7.29492 17.2866C7.32519 16.8581 7.52764 16.5006 7.95714 16.3124C8.16619 16.2096 8.40284 16.177 8.63191 16.2194C8.86098 16.2618 9.07024 16.377 9.22859 16.5479C9.82742 17.1334 10.4158 17.7302 11.0081 18.3233L13.638 20.9509C13.9975 21.3103 14.0675 21.3094 14.4374 20.9395L24.5532 10.8273C24.6364 10.7441 24.7168 10.658 24.8058 10.5804C25.2457 10.2021 25.9069 10.1851 26.2976 10.5464C26.5168 10.7402 26.6558 11.0087 26.6878 11.2995C26.7199 11.5902 26.6425 11.8825 26.4708 12.1194C26.3903 12.2204 26.3024 12.3152 26.2078 12.4031L14.4251 24.1517C14.0713 24.5045 14.0032 24.5045 13.6522 24.1517C11.6826 22.1837 9.71201 20.2153 7.7405 18.2467C7.47845 17.9875 7.3006 17.699 7.29492 17.2866Z" fill="white"/>
</svg>
