<svg width="51" height="33" viewBox="0 0 51 33" fill="none" xmlns="http://www.w3.org/2000/svg">
<path d="M50.9984 26.3764C50.7635 26.8237 50.3852 26.9569 49.9025 26.9424C49.1745 26.9187 48.4452 26.9424 47.6846 26.9424C47.6063 28.5944 47.001 29.9495 45.7277 30.9537C44.8127 31.6883 43.6657 32.0632 42.4987 32.0092C40.4439 31.9367 37.9207 30.3876 37.7055 26.9847H20.1125C20.0356 28.6617 19.3911 30.0458 18.0434 31.05C17.1176 31.7389 15.9791 32.0711 14.8327 31.9868C12.9044 31.8786 10.38 30.4443 10.136 26.9319H9.6259C8.45173 26.9319 7.27756 26.9319 6.10339 26.9319C4.97358 26.924 4.32388 26.2576 4.31475 25.1136C4.31475 24.607 4.31475 24.1016 4.31475 23.5408H2.22733C2.03226 23.5477 1.83695 23.5406 1.64286 23.5197C1.46951 23.5044 1.30788 23.4248 1.18913 23.2962C1.07037 23.1675 1.00289 22.999 0.999676 22.823C0.973334 22.6406 1.01705 22.4548 1.12186 22.3039C1.22667 22.153 1.38461 22.0484 1.56328 22.0115C1.72127 21.9733 1.88365 21.9569 2.04599 21.9627C4.37345 21.9627 6.70135 21.9627 9.02968 21.9627C9.14345 21.9592 9.25733 21.9649 9.37019 21.9799C9.56618 22.002 9.74669 22.0982 9.87561 22.2491C10.0045 22.4001 10.0724 22.5946 10.0656 22.794C10.0601 22.9944 9.97654 23.1845 9.8331 23.3229C9.68965 23.4613 9.49795 23.5368 9.29974 23.5329C8.35519 23.5514 7.41063 23.5408 6.46739 23.5421H5.91553V25.3036C6.03613 25.3276 6.15816 25.3434 6.28082 25.3511C7.55023 25.3511 8.82094 25.3511 10.0903 25.3604C10.3669 25.3604 10.4726 25.2509 10.5848 25.0094C11.4824 23.0698 13.001 21.9878 15.1158 21.9838C17.2502 21.9838 18.7883 23.0566 19.682 25.0186C19.7154 25.1254 19.7844 25.2171 19.8772 25.2782C19.9699 25.3393 20.0808 25.366 20.1908 25.3538C25.3511 25.3459 30.5113 25.3459 35.6716 25.3538C35.7825 25.3538 35.8933 25.3353 36.063 25.3221V19.7803C36.063 19.6484 36.0564 19.5164 36.063 19.3845C36.1008 18.92 36.4243 18.5928 36.8366 18.5835C37.275 18.5835 37.6194 18.916 37.6194 19.4135C37.6298 21.1921 37.6194 22.9761 37.6194 24.7495C37.6075 24.8637 37.6102 24.979 37.6272 25.0925C37.652 25.1836 37.7277 25.3195 37.7916 25.3261C37.8764 25.3353 37.9821 25.2495 38.0616 25.1836C38.1047 25.1466 38.1073 25.0622 38.1347 25.0028C39.0479 23.0684 40.5587 21.9865 42.6722 21.9799C44.8079 21.9799 46.3421 23.0566 47.2384 25.0147C47.3532 25.2654 47.4759 25.3604 47.7433 25.3511C48.2782 25.3327 48.8131 25.3511 49.3845 25.3511V21.8532C49.1132 21.8532 48.8275 21.8611 48.5431 21.8532C47.108 21.8123 46.1099 20.7884 46.089 19.333C46.089 18.8224 46.0812 18.3117 46.089 17.8024C46.0995 17.1862 46.3787 16.9052 47.0023 16.8972C47.7342 16.888 48.4661 16.8972 49.2632 16.8972C49.1445 16.3695 48.8888 15.9617 48.4922 15.7242C48.0447 15.4603 47.5254 15.1503 47.0323 15.1423C43.9729 15.0882 40.911 15.1146 37.8516 15.1146C37.7739 15.122 37.6967 15.1348 37.6207 15.1529C37.6207 15.4419 37.6311 15.7176 37.6207 15.9921C37.5972 16.4658 37.288 16.7838 36.8614 16.7917C36.4348 16.7996 36.1112 16.4856 36.0669 16.0185C36.0525 15.872 36.0669 15.7229 36.0669 15.5738V1.61504H5.88813V15.5685C5.89359 15.7331 5.89054 15.8978 5.879 16.062C5.83464 16.504 5.57502 16.7547 5.14971 16.7825C4.7244 16.8102 4.46869 16.5806 4.36693 16.1847C4.33202 16.0076 4.31931 15.8267 4.3291 15.6464C4.3291 11.0722 4.3291 6.49447 4.3291 1.91324C4.3291 0.63335 4.95532 0 6.21951 0H35.759C37.0062 0 37.6233 0.621483 37.6272 1.87235C37.6272 2.34736 37.6272 2.82236 37.6272 3.34752C37.832 3.35675 38.0042 3.37259 38.1765 3.37259C39.8529 3.37259 41.5307 3.40821 43.2058 3.36467C45.3115 3.31057 47.151 4.78047 46.7831 7.67145C46.7505 7.93534 46.4739 8.16757 46.2469 8.50931C46.6174 10.0135 47.0179 11.6563 47.4367 13.2924C47.4604 13.3644 47.4994 13.4302 47.551 13.4851C47.6027 13.5401 47.6656 13.5829 47.7355 13.6104C49.4828 14.0661 50.547 15.1828 50.9279 16.9606C50.945 17.0075 50.9682 17.0519 50.9971 17.0925L50.9984 26.3764ZM45.8372 13.5009C45.8099 13.3465 45.7929 13.2185 45.7629 13.0945C45.4159 11.6747 45.0558 10.259 44.7192 8.83656C44.6344 8.47238 44.4922 8.33647 44.1034 8.34043C42.119 8.36286 40.1347 8.35098 38.1504 8.3523C37.9925 8.3523 37.8333 8.36683 37.665 8.37606V13.5009H45.8372ZM42.6892 30.4193C43.3601 30.4193 44.0159 30.218 44.5737 29.8411C45.1315 29.4641 45.5663 28.9283 45.823 28.3015C46.0798 27.6746 46.1469 26.9848 46.016 26.3193C45.8852 25.6538 45.5621 25.0426 45.0877 24.5628C44.6133 24.083 44.0089 23.7563 43.3509 23.6239C42.6929 23.4915 42.0109 23.5595 41.3911 23.8191C40.7713 24.0788 40.2415 24.5185 39.8688 25.0827C39.4961 25.6468 39.2971 26.3101 39.2971 26.9886C39.305 27.896 39.6649 28.764 40.2993 29.4057C40.9337 30.0473 41.792 30.4113 42.6892 30.4193ZM15.1614 30.4193C15.8326 30.4137 16.487 30.207 17.0419 29.8252C17.5968 29.4434 18.0272 28.9036 18.2788 28.2743C18.5303 27.645 18.5915 26.9543 18.4548 26.2898C18.3181 25.6252 17.9895 25.0167 17.5106 24.5411C17.0318 24.0654 16.4242 23.7442 15.7647 23.6179C15.1053 23.4917 14.4237 23.5661 13.8061 23.8319C13.1885 24.0976 12.6627 24.5426 12.2953 25.1106C11.9279 25.6787 11.7353 26.3442 11.742 27.0229C11.7564 27.9297 12.123 28.7943 12.7627 29.4298C13.4023 30.0653 14.2635 30.4208 15.1601 30.4193H15.1614ZM45.2032 6.72407C45.2684 5.72919 44.5196 4.9718 43.4537 4.9652C41.6272 4.952 39.8125 4.9652 37.9912 4.9652C37.8782 4.97312 37.7658 4.98811 37.6546 5.01007V6.72539L45.2032 6.72407ZM49.4054 20.2171V18.511H47.7094C47.5163 20.0297 47.9234 20.4374 49.4054 20.2171Z" fill="white"/>
<path d="M20.0953 14.9536L25.957 9.00675C26.3249 8.63334 26.6863 8.25333 27.0646 7.8918C27.443 7.53026 27.9126 7.51575 28.2323 7.85881C28.5323 8.18076 28.5245 8.64389 28.1683 9.00543C25.6982 11.5133 23.2234 14.0164 20.7437 16.5146C20.3523 16.9104 19.9426 16.9025 19.5408 16.5001C18.1762 15.1331 16.8185 13.7591 15.4678 12.378C15.1077 12.0086 15.1038 11.5573 15.4169 11.2314C15.73 10.9055 16.1997 10.8923 16.5832 11.2789C17.6387 12.3345 18.6824 13.3901 19.7261 14.4562C19.8598 14.6137 19.9831 14.7799 20.0953 14.9536Z" fill="white"/>
<path d="M27.6567 23.5422C25.8302 23.5422 24.0072 23.5422 22.1877 23.5422C22.009 23.5506 21.8299 23.5418 21.6528 23.5158C21.2614 23.4406 21.0083 23.1516 21.0618 22.7914C21.1036 22.5169 21.3488 22.2425 21.568 22.0406C21.6854 21.9337 21.9411 21.9654 22.1342 21.9654C25.8289 21.9654 29.5232 21.9654 33.2171 21.9654C33.3311 21.9625 33.4453 21.9669 33.5589 21.9786C34.0168 22.0406 34.3182 22.3863 34.2921 22.8098C34.2816 23.0106 34.1938 23.1993 34.0475 23.3354C33.9012 23.4716 33.708 23.5443 33.5093 23.5382C32.9079 23.5567 32.3051 23.5461 31.7037 23.5461L27.6567 23.5422Z" fill="white"/>
<path d="M8.42339 20.1643C6.82913 20.1643 5.23531 20.1643 3.64192 20.1643C3.02091 20.1643 2.66605 19.8766 2.66214 19.3871C2.65823 18.8976 3.03005 18.5862 3.63279 18.5862C6.85088 18.5862 10.0711 18.5862 13.2936 18.5862C13.8859 18.5862 14.2655 18.9213 14.2512 19.4016C14.2368 19.8819 13.8859 20.163 13.3027 20.1643C11.6763 20.166 10.0498 20.166 8.42339 20.1643Z" fill="white"/>
<path d="M42.6785 25.3591C42.8907 25.3542 43.1019 25.3919 43.2996 25.4701C43.4973 25.5483 43.6777 25.6654 43.8304 25.8147C43.983 25.9639 44.1049 26.1423 44.1889 26.3395C44.2729 26.5367 44.3173 26.7488 44.3197 26.9636C44.328 27.1815 44.2931 27.399 44.217 27.6031C44.1409 27.8072 44.0252 27.9939 43.8766 28.1521C43.7281 28.3102 43.5498 28.4368 43.3522 28.5242C43.1546 28.6116 42.9417 28.6581 42.726 28.661C42.5103 28.6639 42.2963 28.6232 42.0964 28.5411C41.8966 28.459 41.715 28.3374 41.5624 28.1832C41.4097 28.0291 41.2891 27.8456 41.2077 27.6436C41.1263 27.4416 41.0856 27.2252 41.0881 27.0071C41.0843 26.7929 41.1226 26.5801 41.2007 26.381C41.2788 26.182 41.3952 26.0005 41.5431 25.8472C41.691 25.6939 41.8675 25.5719 42.0624 25.4881C42.2573 25.4043 42.4667 25.3604 42.6785 25.3591Z" fill="white"/>
<path d="M15.1255 25.3591C15.3373 25.3548 15.5478 25.3935 15.7446 25.4728C15.9414 25.5521 16.1205 25.6705 16.2713 25.8208C16.4222 25.9712 16.5418 26.1506 16.6231 26.3484C16.7044 26.5463 16.7457 26.7586 16.7446 26.9728C16.747 27.1873 16.7076 27.4002 16.6287 27.5993C16.5497 27.7985 16.4328 27.9799 16.2845 28.1333C16.1362 28.2867 15.9595 28.4091 15.7644 28.4934C15.5694 28.5777 15.3598 28.6224 15.1477 28.6248C14.7197 28.6208 14.31 28.4484 14.0054 28.1443C13.7007 27.8401 13.5251 27.4281 13.5156 26.9952C13.5151 26.7809 13.5563 26.5685 13.637 26.3703C13.7176 26.1721 13.836 25.9919 13.9855 25.8399C14.135 25.688 14.3127 25.5673 14.5083 25.4848C14.7039 25.4023 14.9136 25.3596 15.1255 25.3591Z" fill="white"/>
</svg>
