<svg width="26" height="18" viewBox="0 0 26 18" fill="none" xmlns="http://www.w3.org/2000/svg">
<g clip-path="url(#clip0_472_881)">
<path d="M25.6797 15.9951C25.5688 16.2142 25.484 16.4532 25.334 16.639C25.0666 16.9776 24.6818 17.0771 24.2643 17.0771C21.6293 17.0771 18.9943 17.0771 16.3593 17.0771C11.6176 17.0771 6.87588 17.0771 2.12764 17.0771C1.76891 17.0771 1.42975 17.0108 1.14929 16.7652C0.823178 16.4864 0.679688 16.1213 0.679688 15.6898C0.68621 14.0303 0.679688 12.3708 0.679688 10.7113C0.679688 7.66442 0.679688 4.6242 0.679688 1.57734C0.679687 0.594915 1.18843 0.0771484 2.15373 0.0771484C9.46523 0.0771484 16.7767 0.0771484 24.0948 0.0771484C25.0209 0.0771484 25.334 0.289565 25.6797 1.15915C25.6797 6.10448 25.6797 11.0498 25.6797 15.9951ZM24.0165 16.0881C23.9513 16.0018 23.9121 15.942 23.8665 15.8823C22.2555 13.8511 20.6445 11.8198 19.0269 9.78859C18.8704 9.58945 18.7008 9.39694 18.5573 9.18453C18.4204 8.98539 18.4334 8.77961 18.5834 8.58711C18.7204 8.41452 18.9682 8.36141 19.1574 8.47426C19.2552 8.534 19.3465 8.63357 19.4183 8.7265C21.1271 10.8706 22.8294 13.0213 24.5318 15.1654C24.5709 15.2185 24.6231 15.265 24.6883 15.338C24.6883 10.7777 24.6883 6.25716 24.6883 1.70347C24.5905 1.77648 24.5187 1.82295 24.447 1.87606C21.1728 4.38523 17.8986 6.89441 14.6179 9.40358C13.7113 10.0939 12.6546 10.0939 11.7546 9.40358C8.46732 6.88777 5.18008 4.37859 1.89284 1.86278C1.82761 1.80967 1.74935 1.76321 1.66456 1.70347C1.66456 6.25716 1.66456 10.7843 1.66456 15.3513C1.74935 15.2517 1.80805 15.1853 1.86023 15.1189C3.34731 13.2404 4.84092 11.3684 6.32801 9.48988C6.56281 9.19117 6.79761 8.89246 7.03241 8.60038C7.16938 8.42779 7.35853 8.37469 7.56072 8.44107C7.75639 8.50745 7.89336 8.66012 7.87379 8.8659C7.86075 9.01858 7.789 9.18453 7.69117 9.31065C5.9758 11.4813 4.25391 13.6453 2.53854 15.8159C2.47332 15.8956 2.41462 15.9819 2.33635 16.0881C9.57611 16.0881 16.7767 16.0881 24.0165 16.0881ZM2.4668 1.06622C2.57116 1.15251 2.62986 1.20561 2.69508 1.25208C5.91058 3.70815 9.11955 6.17086 12.335 8.62693C12.8764 9.04513 13.4765 9.04513 14.0243 8.62693C17.2463 6.16422 20.4749 3.69488 23.6969 1.22553C23.7491 1.1857 23.7947 1.13923 23.873 1.06622C16.7311 1.06622 9.62829 1.06622 2.4668 1.06622Z" fill="#185494"/>
</g>
<defs>
<clipPath id="clip0_472_881">
<rect width="25" height="17" fill="white" transform="translate(0.679688 0.0771484)"/>
</clipPath>
</defs>
</svg>
