<svg width="46" height="47" viewBox="0 0 46 47" fill="none" xmlns="http://www.w3.org/2000/svg">
<path d="M28.1157 25.0618C28.2757 25.0618 28.4757 25.0017 28.6557 24.9417C28.7757 24.9017 28.8957 24.8616 28.9957 24.8416H29.0357L29.0157 24.8016C28.9957 24.7015 28.9757 24.5814 28.9557 24.4613C28.9157 24.181 28.8757 23.9008 28.7157 23.7607C28.3957 23.4604 27.9557 23.2602 27.5357 23.0801L27.3957 23.02C25.7557 22.2994 24.0957 21.5587 22.4757 20.8581L20.8157 20.1375C19.9357 19.7572 19.5157 19.4169 19.3757 18.9965C19.2157 18.4961 19.4957 17.8555 20.0157 17.0148C21.5157 14.5326 22.4557 12.4909 22.9757 10.5692C23.2557 9.56832 23.0357 8.40731 22.8357 7.28634C22.7357 6.7859 22.6557 6.24543 22.5957 5.745C22.3357 3.08268 20.8757 1.36119 18.0957 0.500437C17.1957 0.180159 16.1957 0.0200195 15.1757 0.0200195C12.1757 0.0200195 9.67573 1.30113 8.97573 3.18277C8.33573 4.92428 8.15573 6.88599 7.97573 8.76763C7.89573 9.56832 7.81573 10.4091 7.71573 11.2098C7.69573 11.3499 7.77573 11.51 7.85573 11.6501L7.87573 11.6701C8.15573 12.1906 8.45573 12.7311 8.73573 13.2715C9.45573 14.6327 10.2157 16.0339 11.0357 17.3951C11.3757 17.9756 11.4957 18.5161 11.3557 18.9765C11.2357 19.3769 10.9157 19.6971 10.4157 19.8973C8.99573 20.5178 7.57573 21.1384 6.17573 21.7389C5.15573 22.1793 4.15573 22.6197 3.13573 23.0601C1.21573 23.9008 0.135736 25.3621 0.0757356 27.1636C-0.0442644 31.3873 -0.00426436 35.4508 0.0757356 40.3351C0.0757356 40.7354 0.635735 41.356 1.01574 41.436C1.41574 41.4961 1.81573 41.5361 2.29573 41.5361C2.71573 41.5361 3.19573 41.5161 3.77573 41.4561C3.99573 41.436 4.19573 41.2158 4.39573 41.0157C4.47573 40.9356 4.57573 40.8355 4.65573 40.7554L4.69573 40.7354L4.65573 40.6954C4.55573 40.6153 4.47573 40.5152 4.37573 40.4151C4.17573 40.195 3.95573 39.9748 3.71573 39.9147C3.47573 39.8747 3.23573 39.8547 2.91573 39.8547C2.71573 39.8547 2.53573 39.8547 2.31573 39.8747C2.09573 39.8747 1.87573 39.8947 1.63573 39.8947C1.63573 38.7337 1.63573 37.5727 1.63573 36.4317C1.63573 33.5692 1.63574 30.8468 1.61574 28.0844C1.59574 26.3229 2.37573 25.1419 4.01573 24.4413C5.87573 23.6406 7.77573 22.8198 9.59573 22.0392L11.2957 21.2985C12.1157 20.9382 12.6957 20.2776 12.9157 19.4369C13.1957 18.436 12.9357 17.255 12.2557 16.3142C11.3557 15.0931 10.6957 13.6919 10.0357 12.3107C9.79573 11.7903 9.53573 11.2498 9.25573 10.7093C9.15573 10.5091 9.19573 10.2289 9.21573 9.96867C9.25573 9.50827 9.31573 9.04787 9.37573 8.56745C9.45573 7.86684 9.55573 7.14622 9.61573 6.42559C9.81573 3.82333 10.9157 2.56223 13.5357 1.92167C14.1557 1.76153 14.8357 1.68146 15.5157 1.68146C17.5357 1.68146 19.7957 2.38207 20.2957 3.96345C21.1957 6.72585 21.4957 9.0879 21.1957 10.9896C20.9357 12.5309 19.9157 13.9922 18.9157 15.4134C18.6357 15.8138 18.3557 16.2141 18.0957 16.6145C17.6557 17.295 17.5357 18.6762 17.8557 19.7572C17.9757 20.1976 18.2357 20.7581 18.6957 20.9582C21.2157 22.0992 24.5557 23.6005 27.8957 25.0418C27.9757 25.0418 28.0357 25.0618 28.1157 25.0618Z" fill="#FFB140"/>
<path d="M45.9558 30.6267C45.8558 30.3264 45.4758 30.1263 44.7158 29.9861C43.8558 29.826 42.9758 29.6659 42.1358 29.5257C40.9158 29.3055 39.6358 29.0854 38.4158 28.8251C37.8758 28.705 37.2558 28.2646 36.9758 27.7842C36.3558 26.7433 35.7758 25.6424 35.2358 24.5814C34.8358 23.8208 34.4358 23.0401 34.0158 22.2794C33.8158 21.9191 33.3758 21.2986 32.9558 21.2986C32.5958 21.2986 32.1158 21.8791 31.9158 22.2594C30.8158 24.2011 29.9158 25.9426 29.1358 27.524C28.6758 28.4448 28.1758 28.8251 27.2358 28.9452C25.2958 29.1854 23.3358 29.5858 21.4358 29.9661L21.0558 30.0462C20.3758 30.1863 20.0158 30.3865 19.9158 30.6667C19.8158 30.947 19.9958 31.3073 20.4758 31.8077C21.0558 32.4283 21.6558 33.0488 22.2558 33.6493C23.1758 34.5901 24.1358 35.571 25.0158 36.5719C25.3558 36.9722 25.5758 37.6929 25.5358 38.2734C25.3758 39.8747 25.1358 41.4962 24.8958 43.0775C24.8158 43.658 24.7358 44.2185 24.6358 44.799C24.5958 45.3395 24.6558 45.6998 24.8358 45.9C24.9358 46.0201 25.0958 46.0801 25.2758 46.0801C25.4958 46.0801 25.7758 46.0001 26.1158 45.8399C27.6758 45.1193 29.7158 44.1385 31.7358 43.0775C32.1958 42.8373 32.5758 42.7372 32.9558 42.7372C33.3158 42.7372 33.6958 42.8373 34.0958 43.0575C35.9558 44.0584 37.8758 44.9592 39.7158 45.8199C40.0758 46.0001 40.3758 46.0801 40.5958 46.0801C40.7958 46.0801 40.9358 46.0201 41.0558 45.9C41.2358 45.6798 41.2958 45.2995 41.2158 44.6989C41.1158 43.9383 40.9958 43.1776 40.8958 42.417C40.6958 41.0758 40.4958 39.6946 40.3758 38.3334C40.3158 37.7329 40.5758 36.9522 40.9558 36.5118C41.8558 35.4709 42.8558 34.47 43.7958 33.5092C44.2758 33.0088 44.7958 32.4883 45.2758 31.9879C45.8558 31.3273 46.0558 30.927 45.9558 30.6267ZM38.6558 38.0932C38.8758 39.3943 39.0558 40.6955 39.2558 42.0767C39.3358 42.6572 39.4158 43.2377 39.5158 43.8582C38.9558 43.578 38.4158 43.3177 37.8958 43.0575C36.5358 42.3769 35.2558 41.7364 33.9558 41.1959C33.6758 41.0758 33.3358 41.0157 32.9558 41.0157C32.5958 41.0157 32.2358 41.0758 31.9558 41.1959C30.6558 41.7564 29.3758 42.3969 28.0358 43.0575C27.5158 43.3177 26.9758 43.578 26.4358 43.8582C26.5158 43.2777 26.5758 42.7172 26.6558 42.1567C26.8158 40.8556 26.9758 39.6145 27.2158 38.4135C27.4958 37.1123 27.1958 36.2116 26.2358 35.4109C25.2958 34.6102 24.3358 33.7694 23.4358 32.9487C23.0558 32.5884 22.6558 32.2481 22.2758 31.9078L22.5758 31.4074C23.1158 31.3073 23.6358 31.2272 24.1758 31.1271C25.4358 30.9069 26.7358 30.6667 28.0158 30.4666C29.1358 30.3064 29.8158 29.826 30.2558 28.8852C30.8158 27.7042 31.4358 26.5431 32.1158 25.3221C32.3958 24.8216 32.6758 24.3012 32.9758 23.7607C33.2358 24.2612 33.5158 24.7416 33.7758 25.222C34.3958 26.343 34.9758 27.4039 35.4758 28.5049C36.0558 29.806 36.8958 30.4065 38.2558 30.5466C39.4358 30.6667 40.6158 30.8869 41.8558 31.1472C42.3958 31.2472 42.9558 31.3673 43.5558 31.4674C43.1358 31.9078 42.7358 32.3282 42.3358 32.7485C41.3558 33.7694 40.4358 34.7503 39.4758 35.6711C38.6958 36.3116 38.4758 37.0523 38.6558 38.0932Z" fill="#185494"/>
<path d="M32.6958 12.4309C32.5558 12.511 32.3958 12.6111 32.2358 12.6711L32.1958 12.6911L32.2158 12.7312C32.2958 12.8713 32.3558 13.0314 32.4158 13.1916C32.5558 13.5319 32.6958 13.8922 32.9758 14.1124C34.7558 15.5136 35.2958 17.135 34.6158 19.0967C34.5758 19.1968 34.5758 19.3169 34.5758 19.417C34.5758 19.457 34.5758 19.5171 34.5758 19.5571C34.5558 20.1776 34.6358 20.598 34.8158 20.7982C34.9158 20.8983 35.0558 20.9583 35.2158 20.9583C35.4758 20.9583 35.8158 20.8182 36.2558 20.5379C37.3358 19.8574 38.2958 19.5371 39.1958 19.5371C40.0758 19.5371 40.9158 19.8373 41.7758 20.4779C42.0158 20.6581 42.3758 20.6981 42.7358 20.7381C42.8958 20.7581 43.0558 20.7782 43.1958 20.7982H43.2358V20.7581C43.2758 20.598 43.3158 20.4178 43.3758 20.2577C43.4958 19.8974 43.6158 19.5171 43.5158 19.1968C42.8358 17.135 43.3958 15.4735 45.2758 13.9522C45.6358 13.672 45.9758 12.9513 45.8358 12.6711C45.6558 12.3108 44.9958 12.0105 44.5558 12.0105H44.5358C42.2958 12.0105 40.9158 11.0097 40.1758 8.88781C40.0558 8.56753 39.7558 8.30731 39.4758 8.0671C39.3358 7.94699 39.2158 7.84691 39.0958 7.7268L39.0758 7.68677L39.0558 7.7268C38.9358 7.84691 38.8158 7.96701 38.6758 8.08712C38.3958 8.34734 38.0958 8.60757 37.9758 8.92785C37.2358 11.0297 35.8758 11.9905 33.7158 12.0305C33.3758 12.0305 33.0358 12.2307 32.6958 12.4309ZM41.6758 18.6963C40.7358 18.0158 39.8558 17.6955 38.9758 17.6955C38.1358 17.6955 37.3158 17.9957 36.4758 18.6363C36.8158 16.9348 36.8558 15.0332 34.8158 13.5919C37.0358 13.5118 38.3358 12.4109 39.0358 10.0488C39.8158 12.3708 41.0158 13.4117 42.8958 13.4117C43.0358 13.4117 43.1758 13.4117 43.3158 13.3917C41.6358 16.1141 41.6158 16.1742 41.6758 18.6963Z" fill="#185494"/>
<path d="M17.7157 24.4413C17.6957 24.101 17.4357 23.8007 17.1757 23.5004C17.0557 23.3603 16.9357 23.2202 16.8557 23.0801L16.8157 23.02L16.7957 23.0801C16.7357 23.2402 16.6357 23.4003 16.5557 23.5605C16.3757 23.9008 16.1757 24.2611 16.1957 24.6014C16.3757 29.0252 16.5357 32.7485 16.8157 36.5118C16.9157 37.8529 16.4757 38.7137 15.3357 39.3542C14.2357 38.6736 13.8157 37.8329 13.9157 36.5318C14.1357 33.7493 14.2757 30.9269 14.3957 28.1845C14.4557 27.1036 14.4957 26.0026 14.5557 24.9217C14.5557 24.8216 14.5757 24.7415 14.5757 24.6414C14.5957 24.4212 14.6357 24.181 14.5557 24.0009C14.4757 23.7607 14.2957 23.5405 14.1357 23.3403C14.0557 23.2602 13.9957 23.1601 13.9357 23.0801L13.9157 23.04L13.8757 23.0601C13.7957 23.1401 13.6957 23.2002 13.6157 23.2602C13.4157 23.4204 13.1957 23.5805 13.0757 23.8007C12.9557 23.9809 12.9557 24.2411 12.9557 24.5013C12.9557 24.5814 12.9557 24.6614 12.9557 24.7215C12.7557 28.6049 12.5157 32.9887 12.2957 37.2524C12.2357 38.4334 13.9357 40.9756 15.0357 41.356C15.1557 41.396 15.2757 41.416 15.3757 41.416C15.4157 41.416 15.4557 41.416 15.4957 41.416C16.2957 41.2959 18.4557 38.5735 18.4157 37.7328L18.3757 37.0923C18.1957 32.9487 17.9757 28.6649 17.7157 24.4413Z" fill="#185494"/>
<path d="M25.0158 5.02437C26.1158 5.96519 27.1358 7.14621 26.3358 8.68755C26.2958 9.46823 26.3758 9.94865 26.5958 10.1889C26.6958 10.2889 26.8358 10.349 26.9958 10.349C27.2158 10.349 27.4958 10.2489 27.8558 10.0287C28.5758 9.58834 29.2558 9.36814 29.8958 9.36814C30.5358 9.36814 31.1758 9.56832 31.8758 9.98868C32.2358 10.2089 32.5558 10.329 32.8158 10.329C33.0358 10.329 33.1958 10.2489 33.3158 10.1088C33.4958 9.8886 33.5358 9.48825 33.4158 8.9678C33.0158 7.26632 33.4158 6.08529 34.7358 5.02437C35.1958 4.64404 35.3958 4.24369 35.2958 3.92341C35.1958 3.60313 34.8158 3.40296 34.2358 3.34291C32.4358 3.18277 31.3558 2.40209 30.7558 0.800696C30.5758 0.300261 30.2558 0 29.8958 0C29.5558 0 29.2558 0.280244 29.0558 0.760661C28.3758 2.44212 27.2758 3.24282 25.4358 3.36292C24.9158 3.40296 24.5958 3.58312 24.4958 3.88338C24.3958 4.24369 24.5958 4.64404 25.0158 5.02437ZM27.4558 4.88425L29.9358 3.14273L32.3158 4.92428L31.3158 7.7067H28.4358L27.4558 4.88425Z" fill="#185494"/>
</svg>
