<svg width="25" height="38" viewBox="0 0 25 38" fill="none" xmlns="http://www.w3.org/2000/svg">
<g clip-path="url(#clip0_469_1561)">
<path d="M10.9585 38C10.2339 37.9208 9.49943 37.8713 8.77479 37.7724C6.54212 37.4854 4.34862 37.0401 2.38035 35.9021C1.75364 35.5458 1.16609 35.0609 0.686264 34.5166C-0.224429 33.4776 -0.204844 32.1812 0.656887 31.0927C1.39132 30.1625 2.38035 29.6083 3.43793 29.163C4.87741 28.5495 6.38544 28.2031 7.9914 27.9359C7.88368 27.7776 7.79555 27.6588 7.70742 27.5401C6.07209 25.363 4.40738 23.2156 2.8308 20.9989C1.52841 19.188 0.607925 17.1792 0.206437 14.9427C-1.01761 8.18385 3.37918 1.60312 10.038 0.247396C10.5374 0.148437 11.0466 0.0791666 11.546 0C12.1532 0 12.7701 0 13.387 0C14.19 0.148437 15.0125 0.247396 15.7959 0.455208C20.7901 1.79114 24.4916 6.29375 24.942 11.4792C25.2162 14.6755 24.3545 17.5651 22.6898 20.2469C21.2503 22.5625 19.5268 24.6703 17.8719 26.8375C17.6075 27.1838 17.3333 27.5401 17.0298 27.926C17.6369 28.0448 18.2147 28.1536 18.7728 28.2823C20.1634 28.5989 21.5245 29.0047 22.7388 29.7666C23.2871 30.1031 23.8159 30.5187 24.2468 30.9937C25.2652 32.112 25.2358 33.4974 24.2468 34.6453C23.6005 35.3974 22.7779 35.9021 21.8868 36.3078C20.085 37.1291 18.1755 37.5349 16.2268 37.7823C15.5022 37.8713 14.7677 37.9307 14.0431 38.0099C13.0149 38 11.9867 38 10.9585 38ZM12.4959 31.5083C12.584 31.3995 12.6428 31.3302 12.7015 31.251C14.1704 29.3015 15.6491 27.362 17.0983 25.4026C18.5574 23.4333 20.0556 21.4937 21.407 19.4453C23.1109 16.8625 23.8551 14.0026 23.3851 10.8755C22.3862 4.18593 15.463 -0.11875 9.10773 2.02864C2.99727 4.08698 -0.0873353 10.7865 2.26284 16.8724C2.97769 18.7328 4.08423 20.3656 5.26911 21.9489C7.46261 24.8583 9.67569 27.7578 11.879 30.6573C12.0846 30.9245 12.2805 31.2114 12.4959 31.5083ZM12.4959 36.5354C13.1716 36.4958 14.3271 36.4661 15.4728 36.3573C17.2648 36.189 19.0274 35.8427 20.7215 35.1896C21.5539 34.863 22.3666 34.487 23.0129 33.8239C23.6886 33.1312 23.7082 32.4583 23.0031 31.8052C22.6212 31.4489 22.1806 31.1422 21.7203 30.8948C19.9969 29.9745 18.1167 29.5984 16.2072 29.3411C16.0799 29.3213 15.8939 29.4401 15.8057 29.5588C14.944 30.7166 14.1019 31.8844 13.2499 33.0422C12.7505 33.725 12.2609 33.725 11.7713 33.0422C10.9291 31.8745 10.0674 30.7166 9.23503 29.539C9.09794 29.351 8.96084 29.2817 8.74541 29.3312C7.60949 29.5786 6.46378 29.7666 5.34745 30.0734C4.19194 30.3901 3.07561 30.8453 2.15512 31.6666C1.27381 32.4583 1.25422 33.2203 2.1845 33.9625C2.76225 34.4177 3.42814 34.8036 4.10381 35.0906C6.63025 36.1396 9.31337 36.4364 12.4959 36.5354Z" fill="white"/>
<path d="M17.6472 12.5974C17.657 15.4573 15.3558 17.8026 12.5356 17.8125C9.68603 17.8224 7.36523 15.487 7.36523 12.6172C7.36523 9.75729 9.66645 7.43177 12.4964 7.42188C15.3265 7.42188 17.6375 9.7474 17.6472 12.5974ZM12.5062 16.3281C14.5235 16.3281 16.1784 14.6656 16.1784 12.6271C16.1784 10.5885 14.5431 8.91615 12.5258 8.90625C10.4988 8.89635 8.83409 10.5688 8.83409 12.6271C8.84389 14.6656 10.489 16.3281 12.5062 16.3281Z" fill="white"/>
<path d="M22.0541 12.2807C22.0541 12.4391 22.0541 12.5479 22.0541 12.6568C22.0346 13.1021 21.7212 13.4286 21.3197 13.4187C20.9182 13.4187 20.644 13.0922 20.5853 12.6469C20.4678 11.7859 20.4286 10.8854 20.1642 10.0641C19.3808 7.61979 17.7455 5.9375 15.3757 4.9875C14.9057 4.79948 14.6903 4.52239 14.7392 4.15625C14.798 3.64167 15.2778 3.37448 15.8164 3.57239C17.5105 4.20573 18.9206 5.23489 20.0271 6.67969C21.3099 8.33229 21.966 10.2224 22.0541 12.2807Z" fill="white"/>
<path d="M13.3087 3.72081C13.2989 4.12654 12.9464 4.46299 12.5449 4.4531C12.1532 4.43331 11.8398 4.10675 11.8398 3.70102C11.8398 3.28539 12.1826 2.95883 12.5939 2.96872C12.9856 2.98852 13.3087 3.32497 13.3087 3.72081Z" fill="white"/>
</g>
<defs>
<clipPath id="clip0_469_1561">
<rect width="25" height="38" fill="white"/>
</clipPath>
</defs>
</svg>
