<svg width="17" height="25" viewBox="0 0 17 25" fill="none" xmlns="http://www.w3.org/2000/svg">
<path d="M7.69261 25C7.22884 24.9479 6.7588 24.9153 6.29504 24.8502C4.86613 24.6614 3.46229 24.3685 2.20259 23.6198C1.8015 23.3854 1.42547 23.0664 1.11838 22.7083C0.535535 22.0247 0.54807 21.1719 1.09958 20.4557C1.56961 19.8437 2.20259 19.4792 2.87945 19.1862C3.80071 18.7825 4.76585 18.5547 5.79366 18.3789C5.72473 18.2747 5.66832 18.1966 5.61192 18.1185C4.56531 16.6862 3.49989 15.2734 2.49088 13.8151C1.65735 12.6237 1.06824 11.3021 0.811289 9.83072C0.0278971 5.38411 2.84184 1.05469 7.1035 0.16276C7.42312 0.0976562 7.74901 0.0520833 8.06864 0C8.4572 0 8.85203 0 9.24686 0C9.76076 0.0976562 10.2872 0.16276 10.7886 0.299479C13.9848 1.17838 16.3538 4.14062 16.6421 7.55208C16.8176 9.65494 16.2661 11.556 15.2006 13.3203C14.2794 14.8437 13.1764 16.2305 12.1172 17.6562C11.948 17.8841 11.7725 18.1185 11.5782 18.3724C11.9668 18.4505 12.3366 18.5221 12.6938 18.6068C13.5837 18.8151 14.4549 19.082 15.232 19.5833C15.5829 19.8047 15.9214 20.0781 16.1971 20.3906C16.8489 21.1263 16.8301 22.0377 16.1971 22.7929C15.7835 23.2877 15.257 23.6198 14.6867 23.8867C13.5336 24.4271 12.3115 24.694 11.0643 24.8567C10.6006 24.9153 10.1305 24.9544 9.66676 25.0065C9.00871 25 8.35066 25 7.69261 25ZM8.67655 20.7291C8.73295 20.6575 8.77056 20.612 8.80816 20.5599C9.74823 19.2773 10.6946 18.0013 11.6221 16.7122C12.5559 15.4167 13.5148 14.1406 14.3796 12.793C15.4701 11.0937 15.9464 9.21223 15.6456 7.15494C15.0064 2.7539 10.5755 -0.078125 6.50812 1.33463C2.59742 2.6888 0.623275 7.09635 2.12739 11.1003C2.58489 12.3242 3.29308 13.3984 4.0514 14.4401C5.45524 16.3542 6.87161 18.2617 8.28172 20.1693C8.41333 20.345 8.53867 20.5338 8.67655 20.7291ZM8.67655 24.0364C9.10898 24.0104 9.8485 23.9909 10.5818 23.9193C11.7286 23.8086 12.8567 23.5807 13.9409 23.151C14.4737 22.9362 14.9938 22.6888 15.4075 22.2526C15.8399 21.7969 15.8524 21.3541 15.4012 20.9245C15.1568 20.6901 14.8747 20.4883 14.5802 20.3255C13.4772 19.72 12.2739 19.4726 11.0518 19.3034C10.9703 19.2903 10.8512 19.3685 10.7948 19.4466C10.2433 20.2083 9.70436 20.9765 9.15912 21.7383C8.83949 22.1875 8.52614 22.1875 8.21278 21.7383C7.67381 20.97 7.1223 20.2083 6.58959 19.4336C6.50185 19.3099 6.41411 19.2643 6.27623 19.2969C5.54925 19.4596 4.81599 19.5833 4.10154 19.7851C3.36201 19.9935 2.64756 20.293 2.05845 20.8333C1.49441 21.3541 1.48187 21.8555 2.07725 22.3437C2.44701 22.6432 2.87318 22.8971 3.30561 23.0859C4.92253 23.776 6.63973 23.9713 8.67655 24.0364Z" fill="#185494"/>
<path d="M11.9731 8.28776C11.9793 10.1693 10.5066 11.7122 8.70162 11.7188C6.87789 11.7253 5.39258 10.1888 5.39258 8.30078C5.39258 6.41927 6.86535 4.88932 8.67656 4.88281C10.4878 4.88281 11.9668 6.41276 11.9731 8.28776ZM8.68282 10.7422C9.97385 10.7422 11.033 9.64844 11.033 8.30729C11.033 6.96615 9.98639 5.86589 8.69536 5.85938C7.39806 5.85286 6.33265 6.95313 6.33265 8.30729C6.33892 9.64844 7.39179 10.7422 8.68282 10.7422Z" fill="#185494"/>
<path d="M14.7933 8.07983C14.7933 8.184 14.7933 8.25562 14.7933 8.32723C14.7808 8.6202 14.5802 8.83504 14.3233 8.82853C14.0663 8.82853 13.8909 8.61369 13.8533 8.32072C13.778 7.75431 13.753 7.16187 13.5838 6.6215C13.0824 5.01343 12.0358 3.90666 10.5191 3.28166C10.2183 3.15796 10.0804 2.97567 10.1118 2.73478C10.1494 2.39624 10.4565 2.22046 10.8012 2.35067C11.8854 2.76733 12.7878 3.44442 13.496 4.39494C14.317 5.48218 14.7369 6.72567 14.7933 8.07983Z" fill="#185494"/>
<path d="M9.19667 2.44806C9.1904 2.71499 8.96478 2.93634 8.70783 2.92983C8.45714 2.91681 8.25659 2.70197 8.25659 2.43504C8.25659 2.1616 8.47594 1.94676 8.73916 1.95327C8.98985 1.96629 9.19667 2.18764 9.19667 2.44806Z" fill="#185494"/>
</svg>
