<svg width="49" height="50" viewBox="0 0 49 50" fill="none" xmlns="http://www.w3.org/2000/svg">
<g clip-path="url(#clip0_520_1053)">
<path d="M48.8355 21.9014L48.812 21.7371H39.5335V1.50235H37.6543V23.662H46.8858C47.1207 24.4131 46.7449 24.8826 46.2516 25.3521C41.1073 30.446 35.963 35.6103 30.9597 40.5634L25.0872 46.4789C24.9228 46.6432 24.7583 46.784 24.5939 46.9249L24.4764 47.0188C24.4295 46.9953 24.406 46.9718 24.3825 46.9483L21.3053 43.8732C15.1274 37.723 8.73818 31.338 2.48986 25.0469C2.27845 24.8357 2.18449 24.4836 2.06704 24.0845C2.02006 23.9437 1.97308 23.7793 1.90261 23.5915H11.3691V0H9.46637V21.8075H0.0469063V21.9953C0.0469063 22.1831 0.0469063 22.3474 0.0469063 22.5352V22.5587C0.0469063 22.8873 0.0703962 23.169 0.0234163 23.4272C-0.164503 24.7418 0.258316 25.7981 1.40932 26.8545C2.81872 28.1455 4.18114 29.5305 5.52006 30.892C5.98986 31.3615 6.45966 31.831 6.92946 32.3005C11.0637 36.4554 15.1979 40.5868 19.3791 44.8122L24.5704 50.0235L24.7113 49.8591C24.8288 49.7183 24.9227 49.5775 25.0167 49.4601C25.1576 49.2488 25.2751 49.0845 25.416 48.9671C27.2013 47.1831 29.01 45.3756 30.7952 43.5915L30.8422 43.5446C36.2684 38.1221 41.8825 32.4883 47.4731 27.0657C49.0469 25.446 49.0469 23.9202 48.8355 21.9014Z" fill="#185494"/>
<path d="M48.0369 20.5867C47.6845 20.1877 47.2617 19.9295 47.2617 19.6478C47.2617 19.3896 47.6611 19.1079 47.8725 18.8262C48.1778 19.0609 48.6241 19.2487 48.6946 19.5539C48.7416 19.7886 48.3423 20.1407 48.0369 20.5867Z" fill="#FFB140"/>
<path d="M48.9764 7.13626C48.5301 7.4649 48.2247 7.84048 47.9663 7.81701C47.6845 7.79353 47.4496 7.371 47.1912 7.13626C47.473 6.87804 47.7079 6.45551 48.0368 6.38509C48.2482 6.31466 48.5536 6.76067 48.9764 7.13626Z" fill="#FFB140"/>
<path d="M7.32873 6.0564C7.63409 6.50241 7.98644 6.80757 7.96295 7.08926C7.93946 7.34748 7.51664 7.58222 7.28175 7.84043C7.02336 7.55874 6.60054 7.324 6.55356 7.01884C6.50658 6.7841 6.97638 6.47893 7.32873 6.0564Z" fill="#FFB140"/>
<path d="M2.09046 13.2865C1.62066 13.6386 1.33879 14.0142 1.0804 14.0142C0.798517 13.9907 0.540128 13.5916 0.281738 13.3804C0.516638 13.1222 0.728047 12.6996 1.00993 12.6527C1.26832 12.6057 1.57368 12.9578 2.09046 13.2865Z" fill="#FFB140"/>
<path d="M7.3054 14.3662C6.92956 13.9202 6.53023 13.615 6.55372 13.3803C6.57721 13.122 6.97654 12.6995 7.23493 12.676C7.46983 12.6526 7.91614 13.0516 7.96312 13.3098C8.0101 13.5681 7.63426 13.8732 7.3054 14.3662Z" fill="#FFB140"/>
<path d="M48.9999 13.3334C48.5536 13.662 48.2247 14.0611 47.9898 14.0142C47.6845 13.9437 47.4496 13.5212 47.1912 13.263C47.4496 13.0517 47.7079 12.6527 47.9898 12.6527C48.2482 12.6292 48.5536 13.0048 48.9999 13.3334Z" fill="#FFB140"/>
<path d="M41.6945 17.4882C41.3657 17.0187 40.9663 16.6901 41.0133 16.4788C41.0838 16.1736 41.5066 15.9389 41.765 15.6807C41.9999 15.9389 42.3757 16.1971 42.3992 16.4788C42.4227 16.737 42.0469 17.0187 41.6945 17.4882Z" fill="#FFB140"/>
<path d="M44.9126 15.3992C45.218 15.8687 45.5938 16.2208 45.5234 16.432C45.4294 16.7372 45.0066 16.925 44.7247 17.1597C44.5133 16.878 44.1375 16.6198 44.1375 16.3381C44.1375 16.1034 44.5368 15.8452 44.9126 15.3992Z" fill="#FFB140"/>
<path d="M48.9999 16.4319C48.5536 16.7606 48.2952 17.1362 48.0133 17.1362C47.7314 17.1362 47.473 16.7606 47.1912 16.5258C47.4496 16.2441 47.661 15.8216 47.9663 15.7277C48.1777 15.6808 48.5301 16.1033 48.9999 16.4319Z" fill="#FFB140"/>
<path d="M2.0906 19.5305C1.59731 19.906 1.29194 20.2816 0.986575 20.3051C0.775166 20.3286 0.328857 19.8356 0.328857 19.5774C0.328857 19.3192 0.728186 18.8967 1.01007 18.8732C1.26845 18.8497 1.57382 19.2018 2.0906 19.5305Z" fill="#FFB140"/>
<path d="M8.29183 19.648C7.82203 19.9531 7.44619 20.3757 7.25827 20.2818C6.9529 20.1644 6.74149 19.7419 6.50659 19.4367C6.78847 19.2254 7.07035 18.8499 7.35223 18.8499C7.61062 18.8733 7.86901 19.2959 8.29183 19.648Z" fill="#FFB140"/>
<path d="M42.7282 19.5541C42.3054 19.9062 41.9766 20.3522 41.7886 20.3053C41.4833 20.2349 41.1309 19.8593 41.037 19.5541C40.99 19.3898 41.4598 18.9203 41.7182 18.8968C41.9766 18.8499 42.2819 19.2255 42.7282 19.5541Z" fill="#FFB140"/>
<path d="M42.7047 7.1831C42.2349 7.48826 41.8591 7.88732 41.6712 7.79343C41.3658 7.67605 41.0839 7.27699 41.0135 6.94835C40.99 6.78403 41.5068 6.3615 41.7651 6.38497C42.0705 6.38497 42.3054 6.80751 42.7047 7.1831Z" fill="#FFB140"/>
<path d="M7.23475 9.2019C7.5871 9.64791 8.0334 9.95308 7.98642 10.1643C7.91595 10.4695 7.51663 10.7043 7.23475 10.9859C6.99985 10.7277 6.57703 10.493 6.55354 10.2113C6.53005 9.95308 6.90589 9.64791 7.23475 9.2019Z" fill="#FFB140"/>
<path d="M41.7181 9.17847C42.0704 9.67142 42.4463 9.97659 42.4228 10.2348C42.3758 10.5165 41.9765 10.7278 41.7181 10.986C41.4832 10.7278 41.0839 10.493 41.0604 10.2348C41.0134 9.95311 41.3658 9.67142 41.7181 9.17847Z" fill="#FFB140"/>
<path d="M1.05685 17.4647C0.704505 17.0187 0.305176 16.7605 0.305176 16.5023C0.305176 16.2206 0.704505 15.9624 0.915914 15.6807C1.19779 15.9389 1.62061 16.1501 1.73806 16.4553C1.80853 16.6431 1.38571 17.0187 1.05685 17.4647Z" fill="#FFB140"/>
<path d="M44.7953 20.6339C44.4665 20.1644 44.0672 19.8358 44.1141 19.6245C44.1846 19.3193 44.6309 19.1081 44.8893 18.8499C45.1007 19.1081 45.4765 19.3898 45.4765 19.648C45.5235 19.9062 45.1477 20.1879 44.7953 20.6339Z" fill="#FFB140"/>
<path d="M48.9999 4.06106C48.5066 4.34275 48.2012 4.67139 47.9428 4.64791C47.6609 4.60097 47.4495 4.20191 47.2146 3.94369C47.4965 3.70895 47.7549 3.30989 48.0837 3.26294C48.2951 3.26294 48.577 3.68547 48.9999 4.06106Z" fill="#FFB140"/>
<path d="M42.7751 13.2394C42.3053 13.615 42.0234 14.0141 41.7651 13.9906C41.5067 13.9906 41.0369 13.5916 41.0369 13.3803C41.0369 13.1221 41.4127 12.6995 41.6711 12.6291C41.9295 12.6056 42.2583 12.9343 42.7751 13.2394Z" fill="#FFB140"/>
<path d="M5.19108 16.432C4.72129 16.7607 4.41592 17.1362 4.15753 17.1128C3.89914 17.0893 3.47632 16.6668 3.47632 16.432C3.47632 16.1738 3.87565 15.7513 4.13404 15.7278C4.39243 15.7043 4.6978 16.1034 5.19108 16.432Z" fill="#FFB140"/>
<path d="M8.31532 16.4554C7.84552 16.784 7.56364 17.1362 7.30525 17.1127C7.02337 17.0892 6.78847 16.7136 6.50659 16.4789C6.76498 16.2207 6.99988 15.7981 7.32874 15.7277C7.51666 15.6808 7.84552 16.1033 8.31532 16.4554Z" fill="#FFB140"/>
<path d="M5.16759 19.601C4.6978 19.9296 4.36894 20.3287 4.13404 20.2818C3.87565 20.2348 3.47632 19.7888 3.47632 19.5541C3.47632 19.2958 3.92263 18.8968 4.18102 18.8733C4.43941 18.8498 4.72129 19.2489 5.16759 19.601Z" fill="#FFB140"/>
<path d="M23.9831 30.3755L23.8656 28.9671L23.6542 28.9436C22.1274 28.7558 20.4126 28.4272 19.3555 27.0187C19.0032 26.5492 18.7683 25.9859 18.4864 25.3051C18.3925 25.0938 18.322 24.8826 18.228 24.6713H20.3421C20.8354 26.1267 21.9159 26.9483 23.5602 27.1361L23.8421 27.1596V21.291L23.6777 21.2206C19.7784 19.8826 18.6274 18.7323 18.7448 16.3145C18.8623 13.8967 20.1542 12.7229 23.7012 11.784L23.8891 11.737L23.9831 10.3521H25.0401L25.1341 11.784L25.322 11.8309C26.8723 12.1361 28.5871 12.5821 29.5737 14.1549C29.8321 14.5774 29.9965 15.0704 30.1844 15.6337C30.2549 15.8215 30.3019 16.0093 30.3723 16.1971C30.2549 16.1971 30.1374 16.1971 30.02 16.2206C29.8555 16.2206 29.6911 16.2441 29.5502 16.2441C29.3153 16.2441 29.1509 16.2206 29.0099 16.1971C28.7045 16.1267 28.3052 15.892 28.1878 15.6572C27.6005 14.4835 26.7079 13.8732 25.3925 13.7323L25.1106 13.7089V19.2957L25.322 19.3427C28.3287 20.0469 30.7951 20.892 30.6307 24.3896C30.5133 26.9952 29.1978 28.1455 25.369 28.9905L25.1811 29.0375L25.0401 30.399H23.9831V30.3755ZM25.1106 27.1361H25.369C27.3656 27.0657 28.5636 26.0798 28.6106 24.4835C28.6341 22.8168 27.3656 21.7136 25.369 21.6431H25.1106V27.1361ZM23.5602 13.7323C21.3757 13.9905 20.8589 15.2112 20.8119 16.1736C20.7415 17.629 21.5871 18.4741 23.5368 18.9201L23.8421 18.9905V13.7089L23.5602 13.7323Z" fill="#FFB140"/>
</g>
<defs>
<clipPath id="clip0_520_1053">
<rect width="49" height="50" fill="white"/>
</clipPath>
</defs>
</svg>
