<svg width="30" height="18" viewBox="0 0 30 18" fill="none" xmlns="http://www.w3.org/2000/svg">
<path d="M19.2096 5.95366C19.3568 5.95366 19.473 5.95366 19.5892 5.95366C22.5868 5.95366 25.5844 5.95366 28.582 5.95366C29.0699 5.95366 29.1319 6.02319 29.1319 6.50219C29.1319 8.59585 29.1319 10.6895 29.1319 12.7755C29.1319 13.2622 29.039 13.3549 28.5665 13.3549C22.0678 13.3549 15.5769 13.3703 9.07817 13.3394C6.84739 13.3317 4.63986 13.0922 2.51752 12.3583C1.95208 12.1574 1.40213 11.8715 0.890914 11.5548C0.279 11.1762 -0.00759294 10.6045 0.000152806 9.85514C0.0311358 7.75375 0.0233901 5.65236 0.000152806 3.55097C0.000152806 2.88656 0.248017 2.39212 0.743745 1.99038C1.41762 1.43413 2.22318 1.1251 3.04423 0.862429C4.60113 0.375711 6.2045 0.159391 7.82336 0.058957C9.60488 -0.0569284 11.3787 -0.00284856 13.1447 0.228922C14.5079 0.406613 15.8557 0.661561 17.1183 1.21781C17.614 1.43413 18.0942 1.72771 18.528 2.05219C19.0005 2.39984 19.2251 2.90201 19.2096 3.51234C19.1941 4.30809 19.2096 5.11156 19.2096 5.95366ZM28.4193 6.64125C28.2954 6.64125 28.1792 6.64125 28.063 6.64125C22.0058 6.64125 15.9409 6.64125 9.88373 6.63353C9.18661 6.63353 8.48949 6.60262 7.80012 6.57172C7.31989 6.54854 6.83965 6.49446 6.35941 6.44038C6.14253 6.41721 5.98762 6.29359 6.01085 6.06182C6.03409 5.83005 6.19675 5.73734 6.42138 5.76052C6.53757 5.76825 6.65375 5.77597 6.76994 5.7837C9.29505 6.03865 11.8047 6.01547 14.3066 5.53648C15.391 5.32788 16.4599 5.05748 17.4281 4.52441C17.7534 4.34672 18.0555 4.10722 18.3111 3.83682C18.6132 3.52007 18.6132 3.14924 18.3188 2.81703C18.1097 2.58526 17.8618 2.34576 17.5907 2.22215C16.9014 1.9054 16.2043 1.58092 15.4684 1.3955C12.1997 0.545676 8.89227 0.514773 5.56935 1.00149C4.38425 1.17918 3.21464 1.44186 2.12249 1.95948C1.71196 2.16035 1.31693 2.42302 0.976117 2.72432C0.58883 3.08743 0.604321 3.52007 0.976117 3.89863C1.17751 4.10722 1.42537 4.29264 1.68098 4.44715C2.40908 4.87979 3.21464 5.11929 4.02794 5.32788C4.30679 5.39741 4.42298 5.56738 4.35326 5.77597C4.27581 6.0232 4.07442 6.06182 3.85754 5.99229C3.16816 5.76825 2.47879 5.55193 1.81266 5.28153C1.42537 5.12701 1.08456 4.87979 0.705016 4.66347C0.705016 6.44811 0.712762 8.22502 0.69727 9.9942C0.69727 10.3187 0.813456 10.5736 1.03808 10.79C1.52607 11.2458 2.13798 11.4853 2.78862 11.717C2.78862 11.5857 2.78862 11.493 2.78862 11.4003C2.78862 10.5814 2.78862 9.76243 2.78862 8.94351C2.78862 8.62675 2.90481 8.47224 3.12944 8.47224C3.36181 8.47224 3.48574 8.62675 3.48574 8.93578C3.48574 9.41478 3.48574 9.90149 3.48574 10.3805C3.48574 10.8981 3.48574 11.4157 3.48574 11.9565C4.01245 12.0724 4.51592 12.1729 5.05038 12.2887C5.05038 11.7402 5.05038 11.2535 5.05038 10.759C5.05038 10.4577 5.18206 10.2878 5.39894 10.2955C5.61582 10.3032 5.73975 10.4732 5.73975 10.7745C5.73975 11.2998 5.73975 11.8329 5.73975 12.3892C6.2045 12.4432 6.65375 12.4896 7.13399 12.5437C7.13399 12.0956 7.13399 11.6784 7.13399 11.2535C7.13399 10.5968 7.13399 9.94012 7.13399 9.28344C7.13399 9.05167 7.25792 8.90488 7.48255 8.91261C7.69168 8.91261 7.80787 9.05939 7.82336 9.26799C7.83111 9.33752 7.82336 9.39932 7.82336 9.46886C7.82336 10.4037 7.82336 11.3385 7.82336 12.2733C7.82336 12.3737 7.82336 12.4742 7.82336 12.6055C8.37331 12.6055 8.86903 12.6055 9.388 12.6055C9.388 12.4896 9.388 12.3892 9.388 12.281C9.388 11.8406 9.388 11.3926 9.388 10.9522C9.388 10.7281 9.48095 10.5659 9.72107 10.5659C9.97668 10.5582 10.0774 10.7204 10.0851 10.9599C10.0851 11.0526 10.0851 11.1531 10.0851 11.2458C10.0851 11.7016 10.0851 12.1651 10.0851 12.6287C10.5654 12.6287 11.0146 12.6287 11.4794 12.6287C11.4794 11.8175 11.4329 11.0294 11.4948 10.2414C11.5258 9.84742 11.154 9.28344 11.8279 9.05939C12.4708 9.29117 12.0913 9.83196 12.1532 10.2337C12.2152 10.6509 12.1687 11.0835 12.1687 11.5007C12.1687 11.8715 12.1687 12.2501 12.1687 12.6287C12.7032 12.6287 13.2067 12.6287 13.7334 12.6287C13.7334 12.1497 13.7334 11.6861 13.7334 11.2303C13.7334 10.8209 13.8418 10.6432 14.0819 10.6432C14.322 10.6432 14.4305 10.8286 14.4305 11.2303C14.4305 11.7016 14.4305 12.1651 14.4305 12.6287C14.9185 12.6287 15.3522 12.6287 15.8247 12.6287C15.8247 12.5128 15.8247 12.4046 15.8247 12.3042C15.8247 11.3462 15.8247 10.3959 15.8247 9.43795C15.8247 9.21391 15.9254 9.05939 16.1655 9.05939C16.3979 9.05939 16.5063 9.20618 16.5218 9.43023C16.5218 9.49976 16.5218 9.56156 16.5218 9.63109C16.5218 10.5273 16.5218 11.4235 16.5218 12.3196C16.5218 12.4201 16.5218 12.5205 16.5218 12.6209C17.0485 12.6209 17.5365 12.6209 18.0323 12.6209C18.0323 12.0801 18.0168 11.5548 18.04 11.0372C18.0477 10.9058 18.1717 10.7436 18.2879 10.6741C18.3576 10.6277 18.5512 10.705 18.6364 10.7822C18.7061 10.844 18.7216 10.9908 18.7216 11.099C18.7294 11.6089 18.7216 12.111 18.7216 12.6209C19.2251 12.6209 19.6898 12.6209 20.1701 12.6209C20.1701 11.5625 20.1701 10.5196 20.1701 9.48431C20.1701 9.19846 20.3018 9.04394 20.5264 9.05939C20.782 9.07485 20.8672 9.24481 20.8672 9.47658C20.8672 10.1487 20.8672 10.8286 20.8672 11.5007C20.8672 11.8715 20.8672 12.2501 20.8672 12.6287C21.3862 12.6287 21.8664 12.6287 22.3776 12.6287C22.3776 12.5128 22.3776 12.4201 22.3776 12.3274C22.3776 11.9025 22.3776 11.4775 22.3776 11.0526C22.3776 10.8131 22.4783 10.6432 22.7262 10.6509C22.9663 10.6509 23.0747 10.8209 23.0747 11.0603C23.0747 11.2689 23.0747 11.4853 23.0747 11.6939C23.0747 12.0106 23.0747 12.3196 23.0747 12.6287C23.5627 12.6287 24.0042 12.6287 24.469 12.6287C24.469 12.5128 24.469 12.4046 24.469 12.3042C24.469 11.3617 24.469 10.4114 24.469 9.46886C24.469 9.23708 24.5542 9.05939 24.8098 9.05939C25.0654 9.05939 25.1583 9.22936 25.1661 9.46113C25.1661 9.53066 25.1661 9.59247 25.1661 9.662C25.1661 10.5505 25.1661 11.4389 25.1661 12.3196C25.1661 12.4201 25.1661 12.5205 25.1661 12.6287C25.7625 12.6287 26.3202 12.6287 26.9089 12.6287C26.9089 12.5205 26.9089 12.4278 26.9089 12.3351C26.9089 11.9102 26.9089 11.4853 26.9089 11.0603C26.9089 10.8209 27.0018 10.6663 27.2497 10.6354C27.4588 10.6123 27.5983 10.7977 27.606 11.0681C27.606 11.1608 27.606 11.2612 27.606 11.3539C27.606 11.7711 27.606 12.196 27.606 12.6132C27.8926 12.6132 28.1482 12.6132 28.4038 12.6132C28.4193 10.6354 28.4193 8.65766 28.4193 6.64125ZM18.497 5.93821C18.497 5.50557 18.497 5.08839 18.497 4.62484C17.6837 5.28153 16.7465 5.59828 15.817 5.93821C16.7 5.93821 17.583 5.93821 18.497 5.93821Z" fill="#185494"/>
<path d="M8.71392 15.9508C9.10896 15.9508 9.45752 15.9508 9.80607 15.9508C10.0384 15.9508 10.2089 16.028 10.2243 16.283C10.2398 16.507 10.0849 16.6384 9.80607 16.6461C9.44977 16.6538 9.10121 16.6461 8.71392 16.6461C8.71392 16.9628 8.73716 17.2487 8.70618 17.5345C8.69069 17.6891 8.61323 17.8977 8.49704 17.9595C8.38086 18.0213 8.15623 17.9749 8.0323 17.8977C7.42813 17.4959 6.83945 17.0787 6.25078 16.6538C5.91771 16.4143 5.91771 16.1439 6.24303 15.9199C6.83945 15.5027 7.42813 15.0855 8.0323 14.6992C8.15623 14.622 8.3886 14.5756 8.49704 14.6374C8.61323 14.6992 8.68294 14.9078 8.69843 15.0623C8.72942 15.3404 8.71392 15.634 8.71392 15.9508ZM7.99357 17.0324C7.99357 16.5148 7.99357 16.0589 7.99357 15.5568C7.62952 15.8117 7.29645 16.0358 6.9324 16.283C7.29645 16.5457 7.62177 16.7697 7.99357 17.0324Z" fill="#FFB140"/>
<path d="M25.8788 15.9508C25.8788 15.6031 25.8711 15.3018 25.8788 15.0082C25.8866 14.6065 26.1964 14.4443 26.5295 14.676C27.1414 15.0932 27.7533 15.5259 28.3575 15.9585C28.6595 16.1748 28.6673 16.4529 28.3652 16.6615C27.761 17.0864 27.1491 17.5191 26.5295 17.9208C26.4133 17.9981 26.1964 18.029 26.088 17.9672C25.9795 17.9054 25.9021 17.7122 25.8866 17.5654C25.8556 17.2719 25.8788 16.9706 25.8788 16.6538C25.5458 16.6538 25.2359 16.6461 24.9261 16.6538C24.686 16.6615 24.5233 16.5688 24.5001 16.3216C24.4768 16.113 24.655 15.9662 24.9261 15.9585C25.2359 15.943 25.5458 15.9508 25.8788 15.9508ZM26.5837 17.0478C26.9632 16.7851 27.2885 16.5611 27.6526 16.3061C27.2885 16.0512 26.9555 15.8117 26.5837 15.549C26.5837 16.0667 26.5837 16.5302 26.5837 17.0478Z" fill="#FFB140"/>
<path d="M22.7957 16.5997C22.5711 16.5997 22.3542 16.5997 22.1296 16.5997C21.905 16.5997 21.781 16.4683 21.7733 16.2597C21.7655 16.0589 21.8972 15.9198 22.0908 15.9198C22.5711 15.9043 23.0591 15.9043 23.5393 15.9198C23.7329 15.9275 23.8569 16.0666 23.8491 16.2674C23.8414 16.4683 23.7175 16.5842 23.5161 16.5919C23.2837 16.6074 23.0358 16.5997 22.7957 16.5997Z" fill="#FFB140"/>
<path d="M20.0618 16.6073C19.8527 16.6073 19.6358 16.6073 19.4267 16.6073C19.2098 16.6073 19.0704 16.4992 19.0549 16.2906C19.0394 16.0743 19.1788 15.9352 19.388 15.9275C19.8604 15.912 20.3329 15.912 20.8054 15.9197C21.0146 15.9275 21.1462 16.0588 21.1307 16.2829C21.1153 16.4992 20.9758 16.5996 20.7589 16.5996C20.5266 16.6073 20.2942 16.5996 20.0618 16.6073Z" fill="#FFB140"/>
<path d="M11.9054 16.6383C11.6963 16.6383 11.4794 16.646 11.2703 16.6383C11.0379 16.6306 10.8675 16.5224 10.8753 16.2752C10.883 16.0511 11.0379 15.943 11.2703 15.9507C11.6963 15.9507 12.1223 15.9507 12.5406 15.9507C12.773 15.9507 12.9434 16.0357 12.9434 16.2906C12.9434 16.5456 12.7652 16.6306 12.5406 16.6383C12.3315 16.6383 12.1146 16.6383 11.9054 16.6383Z" fill="#FFB140"/>
<path d="M14.6472 15.9352C14.8719 15.9352 15.0887 15.9275 15.3134 15.9352C15.5225 15.9429 15.6697 16.0434 15.6774 16.2674C15.6852 16.5069 15.5303 16.6151 15.3134 16.6228C14.8719 16.6305 14.4304 16.6382 13.9811 16.6305C13.7565 16.6305 13.6016 16.5146 13.6016 16.2829C13.6016 16.0588 13.7565 15.9429 13.9811 15.9429C14.2057 15.9352 14.4226 15.9352 14.6472 15.9352Z" fill="#FFB140"/>
<path d="M17.3742 16.6151C17.1418 16.6151 16.9095 16.6228 16.6771 16.6151C16.4602 16.6074 16.3285 16.4838 16.3208 16.2752C16.3208 16.0589 16.4602 15.9352 16.6694 15.9352C17.1186 15.9275 17.5756 15.9198 18.0249 15.9275C18.2417 15.9352 18.3967 16.0511 18.3889 16.2829C18.3812 16.5224 18.2185 16.6074 18.0016 16.6151C17.8002 16.6151 17.5834 16.6151 17.3742 16.6151Z" fill="#FFB140"/>
<path d="M9.26396 1.54236C10.8286 1.58099 12.0214 1.65824 13.1601 2.07543C13.4931 2.19904 13.8185 2.35356 14.1051 2.56215C14.7479 3.02569 14.7402 3.6901 14.1128 4.17682C13.6326 4.54765 13.0594 4.7408 12.4707 4.86441C10.3948 5.3125 8.32672 5.3125 6.28185 4.72534C5.91005 4.61718 5.53826 4.44722 5.21293 4.2309C4.4616 3.74418 4.46934 3.01024 5.20519 2.50034C5.77837 2.09861 6.44451 1.90547 7.11839 1.79731C7.94718 1.65824 8.78372 1.59644 9.26396 1.54236ZM9.25621 2.22995C8.80696 2.28403 7.99366 2.33811 7.20359 2.48489C6.69237 2.5776 6.18115 2.77847 5.70866 2.99479C5.23617 3.21111 5.24392 3.47378 5.69317 3.721C5.97202 3.87552 6.26636 3.99913 6.56844 4.08411C8.55135 4.60946 10.542 4.60173 12.5249 4.12274C12.8735 4.03776 13.222 3.89097 13.5396 3.721C13.9889 3.48151 13.9811 3.25746 13.5474 3.00251C13.377 2.90208 13.1911 2.8171 12.9974 2.74757C11.913 2.34583 10.7666 2.26857 9.25621 2.22995Z" fill="#FFB140"/>
<path d="M18.6756 8.14014C17.8313 8.14014 16.9948 8.14014 16.1505 8.14014C15.8406 8.14014 15.678 8.02425 15.678 7.80021C15.6702 7.57616 15.8406 7.44482 16.1427 7.44482C17.8468 7.44482 19.5431 7.44482 21.2472 7.44482C21.5493 7.44482 21.7119 7.57616 21.7119 7.80021C21.7042 8.02425 21.5493 8.14014 21.2317 8.14014C20.3719 8.14014 19.5199 8.14014 18.6756 8.14014Z" fill="#FFB140"/>
<path d="M14.8099 8.13998C14.5621 8.1477 14.3994 8.00864 14.3994 7.80005C14.3994 7.59146 14.5621 7.45239 14.8099 7.45239C15.0346 7.45239 15.1817 7.55283 15.205 7.7846C15.2205 7.97774 15.0501 8.13225 14.8099 8.13998Z" fill="#FFB140"/>
</svg>
