<svg width="20" height="19" viewBox="0 0 20 19" fill="none" xmlns="http://www.w3.org/2000/svg">
<path d="M14.424 19.0001C14.0422 18.9307 13.6555 18.8811 13.2787 18.7919C11.9895 18.4946 10.7995 17.9445 9.68393 17.2507C6.5999 15.3279 4.10094 12.8253 2.23168 9.70821C1.53753 8.55354 1.007 7.32454 0.773959 5.98651C0.575629 4.8368 0.645045 3.71682 1.2797 2.691C1.44828 2.41348 1.66644 2.16074 1.88956 1.92287C2.32589 1.46695 2.77709 1.0259 3.22333 0.579886C4.10094 -0.287355 5.40496 -0.173374 6.11895 0.832624C6.76848 1.74447 7.42297 2.65135 8.08242 3.55824C8.66253 4.36105 8.60303 5.31254 7.90888 6.0212C7.43784 6.5019 6.96185 6.9826 6.47594 7.44843C6.28753 7.62683 6.25282 7.81019 6.34207 8.04807C6.70898 9.01442 7.26926 9.86184 7.94854 10.63C8.9749 11.7945 10.2293 12.6469 11.6573 13.2565C11.8705 13.3457 12.0341 13.311 12.1928 13.1474C12.6837 12.6519 13.1745 12.1514 13.6753 11.6657C14.2653 11.0908 15.0835 10.962 15.7974 11.3188C15.9065 11.3733 16.0107 11.4427 16.1049 11.522C16.9874 12.2703 17.8601 13.0285 18.7526 13.7619C19.0897 14.0444 19.412 14.3219 19.5558 14.7531C19.774 15.4023 19.7095 16.0316 19.2533 16.547C18.7774 17.0822 18.2617 17.5828 17.7212 18.0535C17.0916 18.6036 16.3181 18.8712 15.49 18.9654C15.4405 18.9703 15.3958 18.9852 15.3512 19.0001C15.0388 19.0001 14.7314 19.0001 14.424 19.0001ZM17.984 16.775C16.3875 15.5807 14.7909 14.3864 13.1795 13.1821C12.996 13.3704 12.8324 13.5588 12.6539 13.7273C12.2969 14.0642 11.8804 14.1534 11.4193 13.9602C9.78309 13.2763 8.36504 12.2852 7.21968 10.9273C6.52057 10.0997 5.93549 9.20273 5.59833 8.16205C5.45454 7.72595 5.55371 7.3295 5.88095 7.00242C6.05449 6.82897 6.23795 6.66048 6.4214 6.48208C5.33059 4.87644 4.24969 3.29063 3.16383 1.68995C2.87626 1.98234 2.60355 2.24994 2.33581 2.52746C2.01848 2.84958 1.7904 3.22621 1.64165 3.65239C1.35903 4.46017 1.38878 5.28281 1.56232 6.10545C1.83502 7.42365 2.41018 8.61797 3.12417 9.74786C4.64139 12.1613 6.58998 14.1733 8.89061 15.8384C10.2095 16.7948 11.6176 17.5828 13.2043 18.0139C13.9728 18.222 14.7562 18.3211 15.5545 18.2121C16.5511 18.0684 17.3345 17.553 17.984 16.775ZM18.5195 16.2497C19.0897 15.7343 19.055 14.9315 18.465 14.4855C18.3956 14.431 18.3262 14.3814 18.2617 14.3219C17.394 13.5885 16.5313 12.8451 15.6586 12.1167C15.5495 12.0225 15.4107 11.9482 15.2719 11.9085C14.7265 11.745 14.072 12.082 13.7497 12.6767C15.3413 13.871 16.9279 15.0554 18.5195 16.2497ZM6.95689 5.94191C7.16514 5.71891 7.3833 5.52563 7.54197 5.29767C7.80475 4.92104 7.82459 4.4899 7.55684 4.11327C6.86269 3.11223 6.15366 2.12605 5.4248 1.14979C5.00334 0.589797 4.14061 0.614576 3.70924 1.17457C4.78518 2.75047 5.86112 4.33132 6.95689 5.94191Z" fill="#185494"/>
</svg>
