<svg width="41" height="42" viewBox="0 0 41 42" fill="none" xmlns="http://www.w3.org/2000/svg">
<path d="M20.5155 0.994624C21.5353 0.994624 22.5539 0.994624 23.5736 0.994624C24.202 0.994624 24.3965 1.19031 24.3988 1.81649C24.3988 2.89389 24.4115 3.97129 24.3919 5.04754C24.3919 5.37099 24.4621 5.51948 24.8028 5.60696C26.1788 5.95876 27.4967 6.50734 28.716 7.23573C28.9876 7.39803 29.1292 7.35084 29.3306 7.1425C30.0914 6.35977 30.8683 5.59315 31.6417 4.82424C32.0894 4.37877 32.361 4.37993 32.811 4.82424C34.2651 6.27459 35.7176 7.72608 37.1685 9.17874C37.6151 9.6265 37.6139 9.8947 37.1685 10.3459C36.3997 11.1206 35.632 11.8964 34.8482 12.6561C34.6399 12.8587 34.5939 13.0014 34.755 13.272C35.4849 14.4905 36.0335 15.8089 36.3836 17.1856C36.4595 17.4883 36.5804 17.6 36.9038 17.5942C38.0098 17.5723 39.1159 17.5827 40.2208 17.5873C40.7963 17.5873 40.9954 17.7933 40.9954 18.37C40.9954 20.4527 40.9954 22.535 40.9954 24.6169C40.9954 25.1832 40.7859 25.3812 40.2047 25.3835C39.0848 25.3835 37.965 25.3916 36.8451 25.3835C36.5815 25.3835 36.4745 25.4618 36.4066 25.7288C36.0437 27.15 35.4782 28.5114 34.7274 29.7714C34.5985 29.9866 34.6284 30.1167 34.8022 30.2848C35.6078 31.0686 36.3928 31.8629 37.1823 32.6571C37.6105 33.0888 37.6151 33.3685 37.1927 33.7932C35.7318 35.2559 34.2693 36.7162 32.8053 38.1742C32.3656 38.6116 32.0871 38.6047 31.6348 38.1546C30.8614 37.3857 30.0822 36.6203 29.3248 35.8352C29.1119 35.6142 28.9658 35.605 28.7068 35.7627C27.4706 36.4919 26.1383 37.044 24.7487 37.403C24.4598 37.479 24.3931 37.601 24.3954 37.8726C24.408 38.9777 24.4034 40.0838 24.3954 41.1889C24.3954 41.7932 24.1962 41.9946 23.5989 41.9946C21.5318 41.9946 19.464 41.9946 17.3953 41.9946C16.7968 41.9946 16.6 41.7932 16.5977 41.1889C16.5977 40.0965 16.5862 39.0018 16.6035 37.9141C16.6035 37.6079 16.5298 37.4617 16.211 37.3811C14.8186 37.0295 13.4854 36.4753 12.2541 35.7362C12.0239 35.6004 11.8904 35.6142 11.7039 35.8053C10.9328 36.5973 10.1467 37.3742 9.36291 38.1546C8.89563 38.6151 8.63782 38.6151 8.16593 38.1454C6.72419 36.7051 5.28244 35.2632 3.84069 33.8197C3.37341 33.3512 3.37341 33.0957 3.84069 32.6249C4.61067 31.8514 5.37835 31.0744 6.15984 30.3135C6.35435 30.1236 6.40039 29.9832 6.24961 29.7311C5.51153 28.5007 4.95816 27.1685 4.60722 25.7772C4.5255 25.4526 4.37703 25.387 4.07088 25.3916C2.97979 25.4065 1.88409 25.3996 0.797602 25.3916C0.197961 25.3916 0.00115094 25.1901 0 24.5858C0 22.5185 0 20.4508 0 18.3827C0 17.7899 0.202566 17.5954 0.805659 17.5931C1.91171 17.5931 3.01777 17.5839 4.12267 17.5931C4.40235 17.5931 4.51745 17.5113 4.58996 17.2328C4.94894 15.8274 5.5091 14.4814 6.25307 13.2363C6.39233 13.006 6.36241 12.8702 6.17595 12.6883C5.37029 11.9056 4.5865 11.1102 3.79696 10.3148C3.38492 9.90046 3.38262 9.62421 3.78775 9.21327C5.25789 7.73913 6.72956 6.26615 8.20276 4.79431C8.62631 4.37187 8.90254 4.37532 9.33759 4.80812C10.1329 5.59661 10.927 6.38624 11.7108 7.18624C11.8812 7.36005 12.0101 7.38768 12.2242 7.25876C13.4815 6.50686 14.8411 5.9408 16.2605 5.57818C16.5241 5.51027 16.6058 5.39977 16.5977 5.13848C16.5851 4.06223 16.5908 2.98483 16.592 1.90743C16.592 1.14427 16.7543 0.986572 17.5346 0.986572L20.5155 0.994624ZM8.84844 6.01444C7.55133 7.31055 6.2945 8.56406 5.01811 9.8383C5.81801 10.636 6.65244 11.4648 7.48227 12.2981C7.86093 12.678 7.89431 12.884 7.61808 13.3203C6.66683 14.811 5.98543 16.4577 5.60509 18.1847C5.50611 18.6302 5.24714 18.8051 4.81324 18.8028C3.77739 18.8028 2.74154 18.8028 1.7057 18.8028H1.2246V24.1887H1.70685C2.74269 24.1887 3.77854 24.1887 4.80863 24.1887C5.24369 24.1887 5.4992 24.3625 5.59933 24.808C5.97997 26.5351 6.66093 28.182 7.61118 29.6736C7.88625 30.1075 7.85173 30.3159 7.47422 30.6957C6.74452 31.4293 6.01329 32.1606 5.28052 32.8896C5.17233 32.9978 5.0699 33.1107 5.02962 33.1532L8.83463 36.9829C9.6495 36.1679 10.4943 35.3288 11.3287 34.4793C11.6268 34.1754 11.9272 34.1247 12.2875 34.355C13.7868 35.3193 15.4459 36.0088 17.187 36.3912C17.6336 36.4902 17.8051 36.7526 17.8028 37.1855C17.797 38.2214 17.8028 39.2574 17.8028 40.2933V40.7722H23.1892V40.291C23.1892 39.2551 23.1892 38.2191 23.1892 37.1889C23.1892 36.7791 23.3342 36.4983 23.7646 36.4085C25.5215 36.0279 27.1956 35.3343 28.7068 34.3607C29.067 34.1305 29.3697 34.1834 29.6655 34.4862C30.3699 35.2033 31.0904 35.9055 31.7913 36.626C31.902 36.7602 31.9963 36.907 32.0721 37.0634L35.9911 33.1671C35.1854 32.3613 34.3476 31.5302 33.5166 30.698C33.1345 30.3147 33.1011 30.1156 33.3796 29.6782C34.3288 28.1859 35.01 26.5393 35.3926 24.8126C35.4916 24.3671 35.7471 24.191 36.1822 24.1933C37.1869 24.1933 38.1928 24.1933 39.1976 24.1933H39.7662V18.8074H39.2851C38.2492 18.8074 37.2134 18.8074 36.1776 18.8074C35.7436 18.8074 35.487 18.6359 35.3869 18.1893C35.0066 16.4626 34.3277 14.8156 33.3808 13.3226C33.1022 12.8817 33.1345 12.6849 33.5166 12.3016C34.2363 11.5787 34.9568 10.8574 35.678 10.1376C35.7931 10.0225 35.9082 9.89585 35.9658 9.83714L32.1677 6.00639C31.3551 6.81905 30.5241 7.65242 29.6908 8.48119C29.3099 8.8599 29.1039 8.89327 28.6688 8.61586C27.1785 7.66367 25.532 6.98177 23.8049 6.60149C23.3561 6.50249 23.1846 6.24466 23.1869 5.81185C23.1869 4.83574 23.1869 3.85504 23.1869 2.88238V2.22742H17.8005V2.70742C17.8005 3.69734 17.8005 4.68802 17.8005 5.67948C17.8005 6.34249 17.6946 6.48523 17.0627 6.63487C15.4095 7.01292 13.8318 7.66667 12.3956 8.56868C11.8605 8.90249 11.6959 8.87831 11.2378 8.42018C10.4333 7.60868 9.62302 6.79487 8.84844 6.0179V6.01444Z" fill="white"/>
<path d="M30.3572 21.5282C30.3088 27.0706 25.8904 31.3987 20.3336 31.3457C14.976 31.2939 10.6047 26.8255 10.6508 21.4465C10.6979 15.9686 15.1256 11.5922 20.5638 11.6497C26.0262 11.7073 30.4032 16.1216 30.3572 21.5282ZM19.6246 22.372C20.2565 22.372 20.8435 22.3915 21.4259 22.3616C21.6311 22.346 21.8252 22.2622 21.9772 22.1233C23.1857 20.9366 24.378 19.7326 25.5773 18.5366C26.0722 18.0439 26.4981 18.1234 26.7731 18.7507C27.9057 21.283 27.3613 24.3691 25.3655 26.3132C23.3698 28.2574 20.9816 28.7995 18.2988 27.9892C18.1572 27.9455 17.9328 27.9213 17.8384 27.9995C17.4091 28.3713 17.0132 28.7823 16.5919 29.1932C19.9066 30.9451 24.6669 30.3592 27.4395 26.6609C30.0142 23.2249 29.6355 18.3593 26.5637 15.3343C25.0654 13.8593 23.0811 12.9807 20.982 12.8629C18.8829 12.7451 16.8128 13.3962 15.159 14.6943C11.5588 17.5202 11.1042 22.2327 12.8168 25.4304C13.1621 25.054 13.4798 24.6799 13.8343 24.3507C14.0644 24.1331 14.0921 23.9547 14.0011 23.6485C13.1759 20.8963 13.7376 18.441 15.8427 16.4888C17.9477 14.5366 20.4648 14.1499 23.1615 15.2019C23.8912 15.4863 23.9671 15.9075 23.4181 16.4566C22.2315 17.6457 21.0403 18.8301 19.8606 20.0249C19.7333 20.1502 19.6521 20.315 19.6304 20.4923C19.6085 21.0931 19.6246 21.6963 19.6246 22.372ZM22.0531 16.1251C21.45 15.8569 20.3267 15.7798 19.5211 15.9363C15.876 16.6431 13.8999 20.3104 15.3236 23.7371C15.4962 24.155 15.4444 24.4646 15.1141 24.7731C14.5386 25.3141 13.9919 25.8827 13.3543 26.5181L15.4697 28.6396L17.1513 26.9578C17.6439 26.4652 17.7003 26.4548 18.3563 26.7276C22.0658 28.247 26.1539 25.5121 26.1355 21.511C26.1355 20.9999 26.0273 20.49 25.956 19.8707C24.7509 21.0747 23.6656 22.1797 22.5503 23.2548C22.3429 23.44 22.0796 23.5506 21.8022 23.5691C20.9137 23.6059 20.0217 23.5875 19.132 23.5817C18.6256 23.5817 18.4254 23.3803 18.4162 22.883C18.4092 22.4525 18.4691 22.014 18.4046 21.5927C18.2021 20.2793 18.6486 19.2974 19.6845 18.4595C20.5396 17.7642 21.2624 16.9147 22.0531 16.1251Z" fill="white"/>
</svg>
