<svg width="43" height="51" viewBox="0 0 43 51" fill="none" xmlns="http://www.w3.org/2000/svg">
<path d="M21.5525 50.9999C20.9225 50.9999 20.2663 50.8702 19.5576 50.585C13.9667 48.4071 9.60944 45.2439 6.59087 41.1732C3.59855 37.1285 1.83991 32.0726 1.39369 26.1351L1.31494 25.2795C1.1837 23.4905 1.02621 21.6496 0.99996 19.8346C0.973712 17.1382 1.05246 14.4676 1.15745 11.46C1.1837 10.5784 1.52493 10.008 3.09983 9.98207C7.6933 9.87836 11.2368 9.10053 14.2029 7.54486C16.224 6.48182 18.1139 5.10765 19.9513 3.78533L20.24 3.5779C20.8963 3.1112 21.29 2.90378 21.6312 2.90378C21.9462 2.90378 22.3137 3.1112 22.8386 3.5779C27.4059 7.6745 33.0493 9.82651 39.6376 9.98207C41.7112 10.0339 41.9475 10.2673 42 12.2378C42.0262 13.586 42.0262 14.9343 42 16.2566C42 16.8789 42 17.4752 42 18.0716C42.1837 23.5423 41.7112 28.2353 40.6088 32.4615C38.4039 40.9399 32.8393 46.8774 23.6261 50.585C22.8911 50.8702 22.2087 50.9999 21.5525 50.9999ZM3.51981 18.642L3.54606 19.1087C3.5723 19.8865 3.6248 20.6903 3.65105 21.4681C3.70355 23.1534 3.78229 24.9165 3.93978 26.6277C4.93722 37.2063 10.4756 44.4401 20.3713 48.1737C20.7913 48.3293 21.2637 48.4071 21.6837 48.4071C22.0249 48.4071 22.3137 48.3552 22.5761 48.2515C32.3143 44.5179 37.8002 37.7767 38.9027 28.2353C39.2701 25.098 39.3226 21.8829 39.4014 18.7975C39.4276 17.553 39.4539 16.2825 39.5064 15.0121C39.5851 12.8341 39.1651 12.3674 36.9865 12.2378C31.6843 11.9007 26.9859 10.1117 23.0486 6.94852C22.5237 6.53367 22.0512 6.32625 21.5787 6.32625C21.08 6.32625 20.6075 6.53367 20.0563 6.97445C17.4577 9.04867 14.6754 10.4747 11.8143 11.2007C10.1607 11.6155 8.32327 11.9267 6.22339 12.1859C4.12352 12.4452 3.65105 12.7304 3.6248 14.9084C3.6248 15.8677 3.6248 16.827 3.6248 17.7604V18.616L3.51981 18.642Z" fill="#185494"/>
<path d="M19.0589 33.006C18.8226 32.9023 18.6126 32.7985 18.5076 32.6948C17.0115 31.2429 15.2528 29.5057 13.5467 27.7686C13.3367 27.5611 13.1005 27.25 13.1267 26.9129C13.1267 26.6796 13.258 26.4722 13.4679 26.2647C13.7567 26.0055 14.0454 25.8499 14.3341 25.8499C14.6229 25.8499 14.9379 26.0055 15.2791 26.2907C16.119 27.0685 16.8802 27.8204 17.5889 28.5464C18.1664 29.1168 18.6126 29.4798 19.1639 29.4798C19.7151 29.4798 20.1613 29.1427 20.7125 28.5723C21.4737 27.8204 22.2087 27.0685 22.9699 26.3166C24.4923 24.7869 26.0672 23.2053 27.6421 21.6755C28.0883 21.2347 28.482 21.0273 28.8233 21.0273C29.0857 21.0273 29.322 21.157 29.6107 21.4162C30.2669 22.0644 30.2407 22.5311 29.4795 23.3608C28.7183 24.1646 27.9046 24.9683 27.1171 25.7462L27.0646 25.798C26.7759 26.0832 26.4872 26.3685 26.1984 26.6537C25.8047 27.0426 24.8598 27.976 24.8598 27.976C23.4161 29.402 21.9199 30.9058 20.4238 32.3318C20.1875 32.5652 19.8463 32.7467 19.5313 32.9541C19.4263 33.006 19.3476 33.0578 19.2426 33.1097C19.1901 33.0578 19.1114 33.0319 19.0589 33.006Z" fill="#FFB140"/>
<path d="M22.263 18.5853C22.1317 18.4816 22.0005 18.4298 21.843 18.352C21.7905 18.3261 21.7118 18.3001 21.633 18.2483L21.423 18.1446L21.2655 18.2742C21.2131 18.3261 21.1606 18.352 21.0818 18.4038C20.9243 18.5335 20.7406 18.6372 20.6356 18.8187C20.3994 19.1817 20.4256 19.6484 20.7406 20.0114C20.9768 20.2706 21.2131 20.5299 21.5018 20.7373C21.7118 20.8929 21.9218 20.9707 22.1842 20.9707C22.473 20.9707 22.7355 20.867 22.9192 20.6596C23.3392 20.2188 23.3392 19.6484 22.9454 19.2076C22.7092 19.0261 22.4992 18.7928 22.263 18.5853Z" fill="#FFB140"/>
<path d="M18.2732 17.626C18.457 17.7816 18.667 17.8594 18.8769 17.8594C19.0869 17.8594 19.2707 17.7816 19.4282 17.6779C19.5856 17.5482 19.7169 17.3926 19.8481 17.2112C19.8744 17.1593 19.9269 17.1074 19.9531 17.0556L20.0844 16.9L20.0056 16.6926C19.9794 16.6148 19.9531 16.563 19.9269 16.4852C19.8744 16.3296 19.8219 16.2 19.7169 16.0703C19.5069 15.8629 19.2707 15.6296 18.9819 15.3703C18.7982 15.2147 18.5357 15.111 18.2995 15.111C18.037 15.111 17.7745 15.2147 17.5645 15.3962C17.1445 15.7851 17.092 16.3815 17.4333 16.7963C17.6695 17.0556 17.9582 17.3408 18.2732 17.626Z" fill="#FFB140"/>
<path d="M18.2995 21.0225C18.562 21.0225 18.7982 20.9448 18.9819 20.7633C19.2444 20.5558 19.4807 20.2966 19.7169 20.0373C20.0056 19.7002 20.0581 19.2854 19.8481 18.8965C19.6644 18.5335 19.3494 18.3261 18.9032 18.2742L18.7982 18.2483L18.6932 18.3001C18.6407 18.3261 18.6145 18.352 18.562 18.3779C18.4307 18.4298 18.2995 18.5075 18.1682 18.6113C17.932 18.7928 17.7483 19.0002 17.5645 19.1817L17.5383 19.2076C17.1445 19.6224 17.1445 20.2706 17.5383 20.6855C17.722 20.8929 18.0107 21.0225 18.2995 21.0225Z" fill="#FFB140"/>
<path d="M20.6093 17.2112C20.7143 17.3667 20.8456 17.5223 21.0031 17.6519C21.1606 17.7816 21.3443 17.8334 21.5543 17.8334C21.7643 17.8334 22.0005 17.7556 22.158 17.6001C22.4467 17.3667 22.7355 17.0815 22.9979 16.7445C23.2867 16.3815 23.3129 15.9148 23.0242 15.5777C22.8405 15.3703 22.5255 15.1369 22.1842 15.111C22.158 15.111 22.1317 15.111 22.1055 15.111C21.4493 15.111 20.5043 16.1222 20.4256 16.7704L20.3731 16.9259L20.4781 17.0297C20.5043 17.1074 20.5568 17.1593 20.6093 17.2112Z" fill="#FFB140"/>
<path d="M36.5653 4.41866C36.4341 4.31495 36.3028 4.2631 36.1453 4.18531C36.0928 4.15938 36.0141 4.13346 35.9354 4.0816L35.7254 3.97789L35.5679 4.10753C35.5154 4.15938 35.4629 4.18531 35.3841 4.23717C35.2266 4.36681 35.0429 4.47052 34.9379 4.65201C34.7017 5.015 34.7279 5.4817 35.0429 5.84469C35.2791 6.10397 35.5154 6.36325 35.8041 6.57067C36.0141 6.72624 36.2241 6.80402 36.4866 6.80402C36.7753 6.80402 37.0378 6.70031 37.2215 6.49289C37.6415 6.05211 37.6415 5.4817 37.2478 5.04093C37.0115 4.85944 36.8015 4.62608 36.5653 4.41866Z" fill="#FFB140"/>
<path d="M32.5756 3.45933C32.7593 3.6149 32.9693 3.69268 33.1793 3.69268C33.3893 3.69268 33.573 3.6149 33.7305 3.51119C33.888 3.38155 34.0192 3.22598 34.1505 3.04449C34.1767 2.99263 34.2292 2.94078 34.2555 2.88892L34.3867 2.73335L34.3079 2.52593C34.2817 2.44815 34.2555 2.39629 34.2292 2.31851C34.1767 2.16294 34.1242 2.0333 34.0192 1.90366C33.8092 1.69624 33.573 1.46289 33.2843 1.20361C33.1005 1.04805 32.838 0.944336 32.6018 0.944336C32.3393 0.944336 32.0768 1.04805 31.8668 1.22954C31.4469 1.61846 31.3944 2.2148 31.7356 2.62964C31.9718 2.88892 32.2606 3.17413 32.5756 3.45933Z" fill="#FFB140"/>
<path d="M32.6018 6.85588C32.8643 6.85588 33.1005 6.77809 33.2843 6.5966C33.5467 6.38918 33.783 6.1299 34.0192 5.87062C34.308 5.53356 34.3604 5.11871 34.1505 4.7298C33.9667 4.36681 33.6517 4.15938 33.2055 4.10753L33.1005 4.0816L32.9955 4.13346C32.943 4.15938 32.9168 4.18531 32.8643 4.21124C32.733 4.2631 32.6018 4.34088 32.4706 4.44459C32.2343 4.62609 32.0506 4.83351 31.8668 5.015L31.8406 5.04093C31.4469 5.45578 31.4469 6.10397 31.8406 6.51882C32.0243 6.72624 32.3131 6.85588 32.6018 6.85588Z" fill="#FFB140"/>
<path d="M34.9117 3.04449C35.0167 3.20006 35.1479 3.35562 35.3054 3.48526C35.4629 3.6149 35.6466 3.66676 35.8566 3.66676C36.0666 3.66676 36.3028 3.58897 36.4603 3.43341C36.749 3.20006 37.0378 2.91485 37.3003 2.57779C37.589 2.2148 37.6152 1.7481 37.3265 1.41104C37.1428 1.20361 36.8278 0.970264 36.4866 0.944336C36.4603 0.944336 36.4341 0.944336 36.4078 0.944336C35.7516 0.944336 34.8067 1.95552 34.7279 2.60372L34.6754 2.75928L34.7804 2.86299C34.8067 2.94078 34.8592 2.99263 34.9117 3.04449Z" fill="#FFB140"/>
</svg>
