<svg width="53" height="52" viewBox="0 0 53 52" fill="none" xmlns="http://www.w3.org/2000/svg">
<g clip-path="url(#clip0_519_992)">
<path d="M9.6759 42.6502C9.12691 42.0975 8.41781 41.7981 7.64008 41.7981C6.86235 41.7981 6.13037 42.1205 5.55851 42.6732C5.00952 43.2259 4.71216 43.9628 4.71216 44.7458C4.73503 46.3579 6.016 47.6245 7.64008 47.6245H7.7087C9.28704 47.6015 10.4994 46.3579 10.5223 44.7689C10.5223 43.9628 10.2249 43.2029 9.6759 42.6502ZM7.64008 45.9664H7.61721C6.9081 45.9664 6.35911 45.4137 6.35911 44.7228C6.35911 44.3774 6.47349 44.078 6.7251 43.8247C6.95385 43.5713 7.27409 43.4562 7.61721 43.4562C7.96032 43.4562 8.25769 43.5944 8.50931 43.8247C8.73805 44.055 8.8753 44.4004 8.8753 44.7458C8.85242 45.4137 8.32631 45.9434 7.64008 45.9664Z" fill="white"/>
<path d="M52.7713 25.0788C52.1994 23.3516 50.7126 22.5916 47.9677 22.5916H32.2072C32.3673 21.7856 32.5503 21.0026 32.7333 20.1966C33.1679 18.2161 33.5797 16.3277 33.8084 14.3702C34.243 10.5704 33.4424 7.16204 31.4523 4.23733C30.4916 2.83255 28.959 1.98047 27.3349 1.98047C26.9003 1.98047 26.4657 2.04956 26.054 2.1647C23.8809 2.80952 22.5542 4.58277 22.4627 7.02387C22.4398 7.69172 22.4169 8.56683 22.4856 9.44194C22.7372 11.9061 22.2339 14.0708 20.9301 16.0513C20.5641 16.6271 20.2439 17.2028 19.9236 17.7785C19.7178 18.17 19.5119 18.5615 19.2831 18.953C18.3224 20.5651 17.3617 22.1541 16.3552 23.8582L15.2115 25.7697C14.2737 23.697 12.6496 23.4207 11.2085 23.4207C11.0255 23.4207 10.8425 23.4207 10.6366 23.4437C9.88176 23.4667 9.05829 23.4898 8.07469 23.4898C7.4342 23.4898 6.77084 23.4898 6.13036 23.4667C5.48988 23.4667 4.82652 23.4437 4.18604 23.4437H3.70567C1.18949 23.4667 0.0228931 24.5952 0.0228931 27.0593C1.87019e-05 34.8432 1.87019e-05 41.8441 0.0228931 48.4534C0.0228931 50.7333 1.23524 51.9539 3.47693 51.9769H4.5749L8.28056 51.9539C9.35565 51.9539 10.2249 51.9769 11.0255 51.9999H11.3457C12.6267 51.9999 14.0678 51.7697 15.0743 49.9964C15.2344 50.0885 15.3945 50.2037 15.5775 50.2958C16.0807 50.5952 16.5382 50.8945 17.0415 51.1248L17.3846 51.286C18.0479 51.6084 18.757 51.9309 19.4661 51.9309C24.0182 51.9539 28.6159 51.9769 33.1222 51.9769C36.5076 51.9769 39.9159 51.9769 43.2555 51.9539C44.7195 51.9539 46.0462 51.286 46.8926 50.1346C47.7389 49.0061 47.9905 47.5553 47.6017 46.1736C47.4873 45.7821 47.3272 45.4366 47.1671 45.0681L47.0527 44.7688C50.1407 42.7192 50.7126 40.8538 49.2029 37.9061C49.4316 37.5376 49.7061 37.1922 49.9577 36.8467C50.5753 36.0177 51.1472 35.2577 51.3531 34.3596C51.5589 33.4384 51.3531 32.4712 51.1472 31.4348C51.0557 31.0203 50.9871 30.6058 50.8956 30.2604C52.7484 28.7865 53.4118 26.9902 52.7713 25.0788ZM13.0613 34.728V40.0017C13.0613 42.6731 13.0613 45.3215 13.0613 47.9929C13.0613 49.651 12.9012 49.8122 11.1856 49.8122H6.6336C5.51275 49.8122 4.59778 49.8122 3.70567 49.8352C3.13381 49.8352 2.72207 49.7201 2.49333 49.4667C2.24171 49.2134 2.12734 48.8219 2.12734 48.2462C2.15021 40.8077 2.15021 33.922 2.12734 27.1975C2.12734 26.5987 2.24171 26.2072 2.49333 25.9539C2.72207 25.7006 3.13381 25.5854 3.70567 25.5854H3.7743C5.32976 25.6085 6.58785 25.6315 7.75444 25.6315C9.05829 25.6315 10.2249 25.6085 11.3229 25.5854H11.4601C12.032 25.5854 12.4437 25.7006 12.6953 25.9539C12.9698 26.2302 13.0842 26.6908 13.0842 27.4047C13.0613 29.8689 13.0613 32.333 13.0613 34.728ZM48.997 28.7404C48.8598 28.7865 48.7225 28.7865 48.5395 28.7865C48.3337 28.7865 48.1049 28.8095 47.8762 28.8786C47.5559 28.9938 47.2586 29.178 46.9154 29.3852C46.8011 29.4543 46.6867 29.5234 46.5952 29.5695L46.2978 29.7307L46.5494 29.984C46.6409 30.0761 46.7324 30.1913 46.8239 30.3064C47.0527 30.5828 47.2814 30.8821 47.6245 31.0203C48.997 31.6191 49.546 32.5402 49.3173 33.8299C49.0656 35.1426 48.2193 35.7874 46.7096 35.8104C46.6181 35.8104 46.5266 35.8104 46.458 35.7874C46.3665 35.7874 46.2521 35.7643 46.1606 35.7643C45.9776 35.7643 45.8403 35.7874 45.726 35.8334C45.4286 35.9486 45.177 36.1558 44.9254 36.3631C44.8339 36.4322 44.7424 36.5243 44.628 36.5934L44.3764 36.7776L44.3993 36.8007C44.3993 36.8007 44.7424 37.1691 44.8339 37.2612C45.0397 37.4685 45.2456 37.6988 45.4972 37.883C45.6573 37.9982 45.8403 38.0442 46.0233 38.0673C46.1148 38.0903 46.2292 38.1133 46.2978 38.1364C47.3958 38.643 47.8762 39.4951 47.7389 40.6696C47.6017 41.798 46.9154 42.4889 45.7031 42.7422C45.6345 42.7652 45.5658 42.7652 45.4743 42.7652L44.994 42.7422C44.8339 42.7422 44.6966 42.7652 44.5822 42.7883C44.1019 42.9264 43.5986 43.0876 43.1183 43.2719L42.0432 43.6403L42.4549 43.9397C42.6151 44.0549 42.7752 44.193 42.9353 44.3082C43.3013 44.5845 43.6673 44.8839 44.079 45.0912C45.2227 45.6669 45.7031 46.4729 45.5887 47.6014C45.4515 48.8449 44.6966 49.6049 43.4614 49.7201C43.0268 49.7661 42.5464 49.7891 41.9517 49.7891C41.6086 49.7891 41.2655 49.7891 40.8995 49.7661C40.5564 49.7661 40.1904 49.7431 39.8472 49.7431H29.4623C26.1683 49.7431 23.5149 49.7431 21.1131 49.7661H20.9987C19.855 49.7661 18.5283 49.6279 17.3159 48.6837C16.9042 48.3613 16.4238 48.1541 15.8749 47.9238C15.6919 47.8547 15.5089 47.7626 15.303 47.6705V45.1372C15.303 39.7254 15.303 34.3365 15.303 28.9477C15.303 28.395 15.3945 28.2798 15.4174 28.2568C17.6819 26.2533 19.1002 23.651 20.4497 21.0947C21.0902 19.8742 21.7765 18.6306 22.5313 17.4561C24.2698 14.7847 24.9789 11.883 24.59 8.84318C24.4985 8.17533 24.5214 7.41537 24.6129 6.54026C24.7273 5.50394 25.2762 4.37551 26.4428 4.28339C26.5343 4.28339 26.6258 4.28339 26.7173 4.28339C27.6552 4.28339 28.7074 4.62883 29.3479 5.1585C29.9426 5.64212 30.423 6.51723 30.8576 7.87595C31.8412 11.0079 32.0013 13.5872 31.338 15.9822C30.9948 17.2258 30.7204 18.4924 30.4687 19.6209C30.24 20.5881 30.0112 21.6014 29.7596 22.5916C29.5309 23.4898 29.4623 23.9504 29.7139 24.2728C29.9655 24.5952 30.4687 24.6643 31.3608 24.6643C33.877 24.6643 36.3932 24.6643 38.9094 24.6643H47.2814H48.0592C48.3108 24.6643 48.4938 24.6643 48.6539 24.6873C49.8205 24.8024 50.5982 24.9636 50.7583 26.0921C50.9413 27.2896 50.1636 28.418 48.997 28.7404Z" fill="white"/>
<path d="M14.1592 12.4358C14.0448 12.1134 13.7475 11.837 13.2671 11.6528C12.9469 11.5377 12.4665 11.3995 11.9633 11.3995C11.9633 11.3995 11.7574 11.3995 11.6888 11.3995C10.2477 11.3995 9.33272 10.6856 8.92098 9.21171C8.82948 8.86628 8.69223 8.47478 8.44062 8.19843L8.39487 8.12934C8.05175 7.76087 7.59426 7.27726 7.1139 7.2312C6.74791 7.2312 6.1303 7.73784 5.99305 8.15237C5.30682 10.4553 3.91148 11.5837 1.73842 11.5837C1.66979 11.5837 1.60117 11.5837 1.50967 11.5837C1.41817 11.5837 1.3038 11.6068 1.2123 11.6528C0.61757 11.8831 0.25158 12.2516 0.182957 12.6661C0.114333 13.0115 0.274454 13.357 0.61757 13.6564C2.85926 15.6138 3.454 17.4562 2.44752 19.5058C2.4704 20.6112 2.88214 21.256 3.56837 21.256C3.88861 21.256 4.27747 21.1178 4.68921 20.8184C5.62706 20.1506 6.47342 19.8052 7.2969 19.8052C8.12037 19.8052 8.8981 20.1506 9.69871 20.8184C9.76733 20.8645 9.83596 20.9106 9.92745 20.9336L9.99608 20.9566C10.3163 21.0948 10.6366 21.1869 10.9111 21.1869C11.2999 21.1869 11.5973 21.0487 11.8032 20.7954C12.0319 20.496 12.0776 20.0585 11.9175 19.5288C11.2084 16.9956 11.7803 15.1763 13.7246 13.8406C13.8161 13.7945 13.8619 13.7024 13.9305 13.5873C14.1821 13.1497 14.2736 12.7582 14.1592 12.4358ZM11.2084 13.8636C11.1627 13.9327 11.1398 13.9788 11.094 14.0248C9.92745 14.8308 9.58434 15.8902 10.019 17.4101C10.1104 17.7325 10.0876 17.9858 9.95033 18.1701C9.83595 18.3313 9.65296 18.4004 9.42422 18.4004C9.2641 18.4004 9.05823 18.3543 8.87523 18.2622L8.82948 18.2392C8.78373 18.2161 8.73798 18.1931 8.69223 18.1701C8.21187 17.7556 7.75438 17.5713 7.25115 17.5713C6.77078 17.5713 6.26755 17.7556 5.69569 18.1701C5.44407 18.3543 5.21533 18.4234 5.03233 18.4234C4.62059 18.4234 4.39185 18.0549 4.36897 17.3871C4.96371 16.1665 4.62059 15.0611 3.271 13.9097C3.06513 13.7254 2.97363 13.5182 3.01938 13.3109C3.06513 13.0576 3.29388 12.8273 3.63699 12.7122C3.70561 12.6891 3.75136 12.6661 3.81999 12.6661C3.86574 12.6661 3.91148 12.6661 3.95723 12.6661C5.26107 12.6661 6.08455 11.9983 6.49629 10.6395C6.56491 10.4092 6.93091 10.0868 7.15965 10.0868C7.45702 10.1099 7.70864 10.3862 7.91451 10.6165L7.93738 10.6395C8.07463 10.8007 8.16612 11.031 8.21187 11.2383C8.46349 12.1134 8.9896 12.551 9.85883 12.551C9.8817 12.551 10.019 12.551 10.019 12.551C10.3163 12.551 10.6137 12.6431 10.7967 12.7122C11.094 12.8273 11.277 12.9885 11.3228 13.1727C11.4143 13.357 11.3685 13.5873 11.2084 13.8636Z" fill="white"/>
<path d="M20.221 3.06289C20.1524 2.8326 19.9465 2.64836 19.6262 2.53322C19.3517 2.41807 19.0773 2.37201 18.8256 2.37201H18.6655C17.8878 2.37201 17.4303 2.00354 17.2244 1.22055C17.1558 0.990257 17.0872 0.759965 16.8813 0.552702C16.6754 0.322409 16.4009 0.0230292 16.0578 0C15.7833 0 15.3945 0.322409 15.303 0.621789C14.9141 1.8884 14.1821 2.48716 12.9927 2.48716H12.8554C12.7868 2.48716 12.7182 2.51019 12.6267 2.53322C12.2378 2.67139 12.0091 2.92471 11.9633 3.22409C11.9176 3.47741 12.0319 3.70771 12.2607 3.91497C13.5188 4.99734 13.8161 5.9876 13.2672 7.16209C13.29 8.17538 13.8161 8.29052 14.022 8.29052C14.2279 8.29052 14.4795 8.19841 14.7311 8.01417C15.2572 7.6457 15.7147 7.46147 16.1493 7.46147C16.5839 7.46147 17.0186 7.6457 17.4303 8.01417C17.476 8.06023 17.5218 8.08326 17.6362 8.12932C17.842 8.22143 18.025 8.26749 18.208 8.26749C18.4596 8.26749 18.6884 8.17538 18.8256 7.99114C18.94 7.85297 19.0315 7.57662 18.9171 7.16209C18.5283 5.75731 18.8256 4.79008 19.9007 4.05314C19.9694 4.00709 20.0151 3.938 20.0609 3.86891C20.2667 3.5465 20.3125 3.27015 20.221 3.06289ZM18.3453 3.96103C18.3224 4.00709 18.2995 4.03012 18.2538 4.07617C17.659 4.4907 17.476 5.02037 17.7048 5.82639C17.7734 6.05669 17.7048 6.21789 17.659 6.28698C17.5904 6.3791 17.4532 6.44818 17.3159 6.44818C17.2244 6.44818 17.1101 6.42516 16.9957 6.3791C16.9499 6.35607 16.9042 6.33304 16.8813 6.31001C16.6297 6.10275 16.4009 5.9876 16.1493 5.9876C15.8977 5.9876 15.6461 6.07972 15.3487 6.28698C15.2115 6.40213 15.0742 6.44818 14.937 6.44818C14.8226 6.44818 14.5252 6.3791 14.5024 5.82639C14.8226 5.15855 14.6396 4.60585 13.9305 4.00709C13.7933 3.89194 13.7475 3.75376 13.7704 3.61559C13.7933 3.45438 13.9305 3.31621 14.1593 3.22409C14.205 3.20106 14.2508 3.20106 14.2736 3.20106H14.3423C15.0056 3.20106 15.4173 2.87865 15.6461 2.16475C15.6918 2.00354 15.9206 1.81931 16.0807 1.81931C16.2637 1.84234 16.4238 2.00354 16.5382 2.14172C16.6526 2.25686 16.6983 2.39504 16.7212 2.51019C16.8356 2.94774 17.1101 3.155 17.5447 3.155H17.6362C17.7734 3.155 17.9335 3.17803 18.0937 3.24712C18.2767 3.31621 18.391 3.40833 18.4368 3.5465C18.4825 3.66165 18.4368 3.79982 18.3453 3.96103Z" fill="white"/>
</g>
<defs>
<clipPath id="clip0_519_992">
<rect width="53" height="52" fill="white"/>
</clipPath>
</defs>
</svg>
