<svg width="25" height="25" viewBox="0 0 25 25" fill="none" xmlns="http://www.w3.org/2000/svg">
<path d="M21.5999 19.7916V19.7432L21.5868 19.6967C21.5249 19.477 21.3684 19.2813 21.1922 19.1147C21.0094 18.9419 20.7717 18.7691 20.496 18.6005C19.9438 18.2627 19.2054 17.921 18.3611 17.6158C16.6736 17.0057 14.5182 16.5249 12.4999 16.5249C10.4816 16.5249 8.32616 17.0057 6.63841 17.6178C5.79407 17.924 5.05541 18.2671 4.50296 18.6071C4.22716 18.7769 3.98936 18.9511 3.80651 19.1255C3.6299 19.2941 3.4741 19.4914 3.41269 19.7125L3.39992 19.7585V19.8062V21.2499V21.5999H3.74992H21.2499H21.5999V21.2499V19.7916ZM15.7666 6.66658C15.7666 4.86912 14.2974 3.39992 12.4999 3.39992C10.7025 3.39992 9.23325 4.86912 9.23325 6.66658C9.23325 8.46405 10.7025 9.93325 12.4999 9.93325C14.2974 9.93325 15.7666 8.46405 15.7666 6.66658ZM7.01658 6.66658C7.01658 3.63697 9.4703 1.18325 12.4999 1.18325C15.5295 1.18325 17.9833 3.63697 17.9833 6.66658C17.9833 9.6962 15.5295 12.1499 12.4999 12.1499C9.4703 12.1499 7.01658 9.6962 7.01658 6.66658ZM1.18325 19.7916C1.18325 18.9503 1.60188 18.1876 2.34599 17.5008C3.09247 16.8118 4.14297 16.2233 5.33658 15.7451C7.72437 14.7886 10.5968 14.3083 12.4999 14.3083C14.403 14.3083 17.2755 14.7886 19.6633 15.7451C20.8569 16.2233 21.9074 16.8118 22.6538 17.5008C23.398 18.1876 23.8166 18.9503 23.8166 19.7916V23.8166H1.18325V19.7916Z" fill="#425363" stroke="white" stroke-width="0.7"/>
</svg>
