<svg width="19" height="19" viewBox="0 0 19 19" fill="none" xmlns="http://www.w3.org/2000/svg">
<g clip-path="url(#clip0_34_1297)">
<path d="M9.5 0C4.25273 0 0 4.25273 0 9.5C0 13.5264 2.50488 16.9627 6.03769 18.3469C5.95605 17.5936 5.87813 16.4432 6.07109 15.623C6.24551 14.8809 7.18438 10.9027 7.18438 10.9027C7.18438 10.9027 6.89863 10.335 6.89863 9.49258C6.89863 8.17148 7.66309 7.18438 8.6168 7.18438C9.42578 7.18438 9.81914 7.79297 9.81914 8.52402C9.81914 9.34043 9.29961 10.5576 9.03242 11.6857C8.80976 12.632 9.50742 13.4039 10.4389 13.4039C12.1273 13.4039 13.4262 11.6227 13.4262 9.05469C13.4262 6.77988 11.7934 5.18789 9.45918 5.18789C6.75762 5.18789 5.16934 7.21406 5.16934 9.31074C5.16934 10.1271 5.48477 11.0029 5.87812 11.4779C5.95605 11.5707 5.96719 11.6561 5.94492 11.7488C5.87441 12.0494 5.71113 12.6951 5.68145 12.825C5.64063 12.9994 5.54414 13.0365 5.3623 12.9512C4.1748 12.3982 3.43262 10.6652 3.43262 9.26992C3.43262 6.27148 5.61094 3.52168 9.70781 3.52168C13.0031 3.52168 15.5637 5.8707 15.5637 9.01016C15.5637 12.2832 13.5004 14.918 10.6355 14.918C9.67441 14.918 8.76894 14.417 8.45723 13.827C8.45723 13.827 7.98223 15.6416 7.86719 16.0869C7.65195 16.9107 7.07305 17.9461 6.68711 18.577C7.57773 18.8516 8.52031 19 9.5 19C14.7473 19 19 14.7473 19 9.5C19 4.25273 14.7473 0 9.5 0Z" fill="white"/>
</g>
<defs>
<clipPath id="clip0_34_1297">
<rect width="19" height="19" fill="white"/>
</clipPath>
</defs>
</svg>
