<svg width="22" height="21" viewBox="0 0 22 21" fill="none" xmlns="http://www.w3.org/2000/svg">
<g clip-path="url(#clip0_34_1284)">
<path d="M6.92098 19.0309C15.2208 19.0309 19.7618 12.4655 19.7618 6.77379C19.7618 6.58922 19.7575 6.40055 19.7489 6.21598C20.6322 5.60619 21.3945 4.85089 22 3.98555C21.1773 4.33494 20.3038 4.56312 19.4094 4.66231C20.3512 4.12346 21.0563 3.27695 21.3941 2.27971C20.5082 2.7809 19.5393 3.13445 18.529 3.3252C17.8483 2.63478 16.9482 2.17764 15.968 2.02446C14.9879 1.87128 13.9821 2.03058 13.1063 2.47775C12.2304 2.92491 11.5333 3.63503 11.1227 4.49831C10.7121 5.36159 10.6108 6.32995 10.8346 7.25368C9.04062 7.16774 7.28561 6.72291 5.68332 5.948C4.08102 5.1731 2.66722 4.08542 1.53355 2.75549C0.957366 3.70375 0.781052 4.82585 1.04044 5.89374C1.29984 6.96163 1.97547 7.89518 2.93004 8.50465C2.21341 8.48293 1.51248 8.29876 0.885156 7.96735V8.02067C0.884514 9.0158 1.24492 9.98043 1.90512 10.7506C2.56531 11.5207 3.48455 12.0489 4.50656 12.2453C3.84272 12.4187 3.14598 12.4439 2.47027 12.3191C2.75867 13.1749 3.31978 13.9234 4.07529 14.4602C4.8308 14.997 5.74303 15.2952 6.68465 15.3132C5.08606 16.5119 3.11133 17.162 1.07852 17.1589C0.718013 17.1584 0.357866 17.1373 0 17.0958C2.06512 18.3604 4.4674 19.0321 6.92098 19.0309Z" fill="white"/>
</g>
<defs>
<clipPath id="clip0_34_1284">
<rect width="22" height="21" fill="white"/>
</clipPath>
</defs>
</svg>
