<svg width="61" height="56" viewBox="0 0 61 56" fill="none" xmlns="http://www.w3.org/2000/svg">
<path d="M46.8916 12.4661C46.8905 14.099 46.5671 15.7157 45.9401 17.2236C45.313 18.7316 44.3945 20.1012 43.237 21.2542C42.0796 22.4072 40.706 23.321 39.1948 23.9432C37.6835 24.5654 36.0643 24.8839 34.4298 24.8805C27.5836 24.8701 21.9971 19.3062 21.9915 12.4906C21.9849 5.59591 27.5893 -0.0178266 34.4646 4.25416e-05C37.766 0.0109985 40.9284 1.32955 43.258 3.6665C45.5876 6.00346 46.8944 9.16802 46.8916 12.4661V12.4661ZM34.4401 22.5293C40.0134 22.5377 44.5681 17.9943 44.555 12.4398C44.5418 6.92199 40.0295 2.37664 34.5493 2.36065C33.2115 2.34934 31.8848 2.60304 30.6457 3.10708C29.4067 3.61112 28.2799 4.35551 27.3306 5.29721C26.3813 6.23892 25.6282 7.35925 25.115 8.59346C24.6017 9.82767 24.3384 11.1513 24.3404 12.4878C24.346 18.0056 28.8884 22.5227 34.4401 22.5302V22.5293Z" fill="#FFB140"/>
<path d="M9.3443 43.5002C8.71417 43.4957 8.09954 43.3046 7.57818 42.951C7.05682 42.5974 6.65217 42.0973 6.41543 41.5139C6.1787 40.9305 6.12052 40.2901 6.24825 39.6737C6.37599 39.0572 6.6839 38.4925 7.13302 38.0509C7.58215 37.6094 8.15229 37.3109 8.77132 37.1931C9.39034 37.0754 10.0304 37.1437 10.6105 37.3895C11.1907 37.6353 11.6848 38.0475 12.0303 38.5739C12.3759 39.1003 12.5574 39.7173 12.5518 40.3467C12.5426 41.189 12.2001 41.9935 11.5991 42.5843C10.9981 43.1752 10.1875 43.5045 9.3443 43.5002V43.5002ZM10.1822 40.4107C10.1934 40.3021 10.1829 40.1923 10.1514 40.0877C10.1199 39.9831 10.068 39.8858 9.99873 39.8014C9.92941 39.7169 9.84406 39.647 9.74757 39.5957C9.65109 39.5443 9.54539 39.5125 9.43657 39.5022C9.3275 39.492 9.21749 39.504 9.11318 39.5374C9.00886 39.5708 8.91238 39.6249 8.82954 39.6965C8.7467 39.7681 8.6792 39.8557 8.63112 39.954C8.58303 40.0524 8.55535 40.1594 8.54973 40.2687C8.53466 40.7549 8.77661 41.0596 9.26334 41.1311C9.37154 41.148 9.48207 41.1425 9.58804 41.1149C9.69401 41.0872 9.79314 41.0381 9.87926 40.9705C9.96538 40.9029 10.0366 40.8183 10.0886 40.722C10.1406 40.6257 10.1721 40.5197 10.1812 40.4107H10.1822Z" fill="#185494"/>
<path d="M9.45329 47.5066C9.76829 47.5055 10.0712 47.6278 10.297 47.8472C10.5228 48.0666 10.6535 48.3657 10.6611 48.6803C10.6611 49.3161 10.1189 49.8494 9.45516 49.8653C9.29925 49.8694 9.14411 49.842 8.99899 49.785C8.85387 49.7279 8.72172 49.6422 8.61043 49.533C8.49914 49.4239 8.41097 49.2934 8.35117 49.1495C8.29138 49.0056 8.26117 48.8512 8.26236 48.6954C8.26336 48.3802 8.38918 48.0783 8.61233 47.8556C8.83548 47.6328 9.13783 47.5073 9.45329 47.5066V47.5066Z" fill="#185494"/>
<path d="M11.8005 33.0082C12.3842 32.3273 12.9142 31.6304 13.5242 31.0106C17.2203 27.2553 21.5905 25.9386 26.7712 27.2355C28.4517 27.6559 30.2216 27.828 31.9586 27.8939C34.7292 28.0001 37.5074 27.9616 40.2809 27.9089C42.209 27.8732 43.8678 28.3331 45.0418 30.0165C45.2385 29.8284 45.4071 29.677 45.568 29.5181C47.5852 27.5249 49.6024 25.5323 51.6196 23.5404C53.0864 22.0967 54.8676 21.6763 56.8117 22.171C59.9015 22.9582 61.1545 26.8048 59.0909 29.3008C55.8363 33.2348 52.5083 37.1068 49.1643 40.9694C47.7795 42.5682 45.9418 43.4513 43.8283 43.4898C38.5562 43.5839 33.2766 43.567 28.0017 43.646C26.277 43.6714 24.556 43.8557 22.7607 43.9723C22.8068 44.2488 22.8294 44.4228 22.8662 44.594C23.1636 45.984 22.9405 47.2819 21.9577 48.3249C19.9562 50.4485 17.9095 52.5269 15.8581 54.6063C15.3205 55.1528 14.6973 55.1405 14.1334 54.6242C13.4266 53.9765 12.7322 53.3151 12.0499 52.6398C11.5425 52.1338 11.5256 51.4322 11.9699 50.961C12.4143 50.4899 13.1213 50.4673 13.6551 50.9347C14.0919 51.3175 14.5024 51.7303 14.8536 52.0633C15.7187 51.2507 16.566 50.4842 17.3785 49.6829C18.255 48.8205 19.1032 47.9289 19.9571 47.043C20.8722 46.094 20.8778 45.0435 19.942 44.1275C16.91 41.1756 13.8707 38.2288 10.8242 35.287C10.0127 34.5036 8.96861 34.3916 8.2437 35.1102C6.42578 36.9131 4.66623 38.7724 2.91797 40.565C3.96297 41.6512 4.96937 42.7008 5.97954 43.7457C6.2695 44.0457 6.58489 44.3212 6.86544 44.6288C7.33616 45.1451 7.32674 45.8674 6.86544 46.3132C6.64519 46.5263 6.34973 46.6442 6.0431 46.6412C5.73646 46.6382 5.44336 46.5146 5.22733 46.2972C4.23034 45.3492 3.26066 44.372 2.28062 43.4061C1.70164 42.8362 1.12076 42.2672 0.546484 41.6916C-0.167128 40.9769 -0.183132 40.4135 0.506002 39.6959C2.42591 37.6959 4.3499 35.6995 6.27797 33.707C7.78428 32.1627 9.65869 31.8852 11.5839 32.8916C11.6536 32.9424 11.727 32.9743 11.8005 33.0082ZM13.6353 34.6465C16.0906 37.0118 18.5167 39.3574 20.9616 41.6841C21.0925 41.8092 21.3777 41.8318 21.583 41.812C22.9725 41.6775 24.3565 41.417 25.7479 41.386C29.5824 41.3004 33.4197 41.307 37.257 41.2778C39.1333 41.2637 41.0105 41.2581 42.8868 41.2374C45.0456 41.2148 46.7467 40.3439 48.1156 38.6436C50.0766 36.2105 52.1497 33.8687 54.1756 31.4874C55.1745 30.3128 56.1941 29.155 57.1685 27.9597C58.2709 26.6063 57.6288 24.637 56.0058 24.3915C54.9702 24.2354 54.0288 24.446 53.2483 25.2276C50.8881 27.5844 48.5044 29.9196 46.1442 32.2708C45.961 32.4598 45.8387 32.6993 45.7931 32.9583C45.3675 35.7074 43.5826 37.2573 40.7837 37.2648C38.302 37.2714 35.8204 37.2648 33.3387 37.2648C33.1501 37.2711 32.9614 37.2636 32.7739 37.2422C32.5139 37.2049 32.2752 37.0783 32.0985 36.8842C31.9219 36.6901 31.8185 36.4406 31.8061 36.1785C31.7703 35.586 32.1054 35.1045 32.675 34.9785C32.9206 34.9339 33.1702 34.9156 33.4197 34.9239C35.8599 34.9202 38.3001 34.9202 40.7403 34.9239C41.3993 34.9239 42.0263 34.8431 42.5611 34.4048C42.9362 34.1017 43.2095 33.6911 43.3441 33.2282C43.4787 32.7654 43.4683 32.2724 43.3142 31.8157C42.9904 30.8648 42.1224 30.2714 40.9785 30.2676C38.1005 30.2573 35.2216 30.2394 32.3446 30.2676C30.133 30.3002 27.9277 30.0268 25.7912 29.455C20.4617 28.0218 16.1123 30.8761 13.6353 34.6465Z" fill="#185494"/>
<path d="M29.4042 36.2209C29.4193 36.8679 28.9043 37.389 28.2246 37.4153C28.0688 37.4238 27.9128 37.4009 27.766 37.3481C27.6192 37.2953 27.4845 37.2136 27.3698 37.1078C27.2552 37.0021 27.1629 36.8744 27.0986 36.7324C27.0342 36.5904 26.999 36.4369 26.9951 36.2811C26.98 35.6359 27.4987 35.1111 28.1766 35.0885C28.3323 35.0794 28.4883 35.1017 28.6352 35.1542C28.782 35.2067 28.9168 35.2882 29.0314 35.3939C29.146 35.4996 29.2381 35.6274 29.3022 35.7695C29.3662 35.9115 29.4009 36.0651 29.4042 36.2209Z" fill="#185494"/>
<path d="M38.0206 8.92432C38.0328 9.91841 37.6064 10.4535 36.9144 10.4883C36.2497 10.5222 35.7498 10.0557 35.6905 9.34566C35.6256 8.56788 35.345 8.20674 34.6898 8.0572C34.0844 7.91989 33.2513 8.31395 32.9368 8.88764C32.4774 9.72561 32.7278 10.463 33.6194 10.8025C33.9338 10.9103 34.2599 10.9807 34.5909 11.0122C36.5105 11.2548 38.1402 12.6637 38.4838 14.3923C38.8707 16.3344 37.8954 18.0893 35.9946 18.8285C35.8351 18.8815 35.6878 18.9655 35.5611 19.0758C35.4344 19.186 35.3309 19.3203 35.2565 19.4709C35.0805 19.7897 34.6211 20.0512 34.2417 20.1367C33.7615 20.244 33.3944 19.9176 33.1477 19.4784C33.0177 19.2399 32.8216 19.044 32.5828 18.9141C31.0972 18.2069 30.0588 16.498 30.1558 14.8559C30.1953 14.1891 30.6152 13.7433 31.2403 13.7057C31.8994 13.6653 32.3757 14.0716 32.4755 14.7591C32.4972 14.903 32.5056 15.0497 32.5301 15.1926C32.6525 15.9055 32.9246 16.5563 33.6598 16.782C34.3951 17.0078 35.1125 16.7642 35.7103 16.3024C36.3081 15.8406 36.3985 14.8917 35.9042 14.2794C35.7052 14.025 35.4579 13.8122 35.1765 13.6532C34.8951 13.4943 34.5851 13.3923 34.2643 13.353C33.7077 13.2862 33.1622 13.1477 32.6412 12.9411C31.2695 12.3561 30.3949 11.347 30.378 9.79333C30.3601 8.17946 31.0615 6.94555 32.5207 6.19411C32.8238 6.03799 33.0526 5.91196 33.1336 5.5085C33.2277 5.03167 33.6184 4.74765 34.1372 4.71567C34.6747 4.68181 35.0306 4.93386 35.3074 5.38811C35.4566 5.63636 35.6682 5.84128 35.9212 5.9825C37.1931 6.64742 38.0743 7.5531 38.0206 8.92432Z" fill="#FFB140"/>
</svg>
