<svg width="34" height="34" viewBox="0 0 34 34" fill="none" xmlns="http://www.w3.org/2000/svg">
<path d="M33.1905 16.5952C33.1905 7.42994 25.7605 0 16.5952 0C7.42994 0 0 7.42994 0 16.5952C0 25.7605 7.42994 33.1905 16.5952 33.1905C25.7605 33.1905 33.1905 25.7605 33.1905 16.5952Z" fill="#F2F1F1"/>
<path fill-rule="evenodd" clip-rule="evenodd" d="M24.7177 16.7838C24.7177 16.1954 24.6649 15.6297 24.5668 15.0865H16.752V18.2962H21.2176C21.0252 19.3334 20.4406 20.2122 19.5618 20.8006V22.8826H22.2435C23.8125 21.438 24.7177 19.3108 24.7177 16.7838Z" fill="#4285F4"/>
<path fill-rule="evenodd" clip-rule="evenodd" d="M16.751 24.8928C18.9914 24.8928 20.8697 24.1498 22.2425 22.8825L19.5609 20.8006C18.8179 21.2985 17.8674 21.5926 16.751 21.5926C14.5898 21.5926 12.7606 20.133 12.1081 18.1718H9.33594V20.3216C10.7013 23.0334 13.5074 24.8928 16.751 24.8928Z" fill="#34A853"/>
<path fill-rule="evenodd" clip-rule="evenodd" d="M12.1079 18.1717C11.9419 17.6739 11.8476 17.1421 11.8476 16.5952C11.8476 16.0483 11.9419 15.5165 12.1079 15.0186V12.8688H9.33569C8.77372 13.989 8.45312 15.2562 8.45312 16.5952C8.45312 17.9341 8.77372 19.2014 9.33569 20.3216L12.1079 18.1717Z" fill="#FBBC05"/>
<path fill-rule="evenodd" clip-rule="evenodd" d="M16.751 11.5978C17.9693 11.5978 19.063 12.0165 19.923 12.8387L22.3029 10.4588C20.8659 9.11983 18.9876 8.29761 16.751 8.29761C13.5074 8.29761 10.7013 10.157 9.33594 12.8689L12.1081 15.0187C12.7606 13.0574 14.5898 11.5978 16.751 11.5978Z" fill="#EA4335"/>
</svg>
