<svg width="56" height="55" viewBox="0 0 56 55" fill="none" xmlns="http://www.w3.org/2000/svg">
<g clip-path="url(#clip0_517_859)">
<path d="M35.9687 41.6145C35.881 41.6145 35.8225 41.6145 35.7348 41.6437C35.1207 41.7312 34.8867 42.2561 34.7698 42.5477C33.717 44.8224 31.904 45.9889 29.4183 46.018C28.0439 46.0472 26.5818 46.0472 24.8272 46.0472C23.5405 46.0472 22.2246 46.0472 20.9379 46.0472H18.657C18.0429 46.0472 17.5457 46.2513 17.1363 46.6888C16.5515 47.272 15.9959 47.8553 15.411 48.4385L14.2705 49.5758C13.3348 50.509 12.282 51.5589 11.2585 52.5504C11.2293 52.5795 11.2 52.6087 11.1416 52.6087C11.1123 52.5504 11.0831 52.4629 11.0538 52.4337C11.0538 52.4046 11.0246 52.3754 11.0246 52.3462C11.0246 52.3171 11.0246 52.3171 11.0246 52.2879C11.0246 52.2588 11.0246 52.2004 11.0246 52.1713V50.8881C11.0246 49.8966 11.0246 48.8759 11.0246 47.8844C11.0246 46.8637 10.2935 46.1347 9.27001 46.1055C9.1238 46.1055 9.00683 46.1055 8.86061 46.1055H8.18803C6.60892 46.1055 5.14678 45.4931 4.06479 44.4141C2.98281 43.3351 2.39795 41.8478 2.39795 40.2731C2.39795 38.7858 2.39795 37.2985 2.39795 35.8696V35.0239C2.39795 34.9072 2.36871 34.7906 2.33947 34.6739C2.33947 34.6448 2.33947 34.6448 2.33947 34.6156C2.36871 34.4989 2.39795 34.3823 2.39795 34.2365C2.39795 32.9242 2.39795 31.5827 2.39795 30.2413C2.39795 27.5 2.39795 24.6421 2.42719 21.8425C2.45644 19.5387 3.50918 17.8473 5.58542 16.7391C5.70239 16.6808 5.81936 16.5933 5.93633 16.5058C5.96558 16.5058 5.96558 16.4767 5.99482 16.4767C6.08255 16.4767 6.17028 16.4767 6.28725 16.4475C7.0768 16.1559 7.92484 16.1267 8.62667 16.1267C10.4105 16.1267 12.2235 16.1267 14.0074 16.1267H20.2653H21.1134C21.4058 16.1267 21.669 16.1267 21.9614 16.1267C22.5755 16.0976 23.0434 15.6601 23.1019 15.0477C23.1604 14.4645 22.7802 13.9396 22.1953 13.7937C22.0491 13.7646 21.9029 13.7646 21.7567 13.7646H15.0016C12.7792 13.7646 10.5275 13.7646 8.305 13.7646C7.57393 13.7646 6.93059 13.8521 6.34573 13.9687C5.90709 14.0854 5.49769 14.2603 5.11753 14.4353C4.94208 14.4936 4.79586 14.5811 4.62041 14.6395C4.59116 14.6395 4.53268 14.6686 4.50343 14.6686C4.38646 14.6978 4.24025 14.7561 4.12328 14.8144C1.4037 16.4767 0.0585258 18.8388 0.029283 21.8717C4.018e-05 25.2254 4.018e-05 28.6373 4.018e-05 31.9327V32.3993C4.018e-05 33.5074 4.018e-05 34.6156 4.018e-05 35.6946C4.018e-05 35.8112 0.029283 35.9279 0.0585258 36.0154C0.029283 36.0737 4.018e-05 36.1904 4.018e-05 36.2778C4.018e-05 36.7444 4.018e-05 37.211 4.018e-05 37.6776V37.736C4.018e-05 38.8441 -0.0292026 40.0106 0.0585258 41.1188C0.321711 44.6474 3.21675 47.7386 6.81362 48.2344C7.2815 48.2927 7.77863 48.3219 8.305 48.351L8.62667 48.3802C8.62667 48.4093 8.62667 48.4385 8.62667 48.4677C8.62667 49.8091 8.62667 51.1214 8.62667 52.4629C8.62667 53.5127 9.21153 54.4168 10.1181 54.7667C10.469 54.9125 10.8199 54.9709 11.1708 54.9709C11.7849 54.9709 12.3698 54.7376 12.8669 54.271C13.0423 54.1251 13.1886 53.9502 13.364 53.746C13.481 53.6294 13.5687 53.5127 13.6857 53.3961C14.212 52.8712 15.294 51.8213 15.294 51.8213C16.4053 50.7423 17.4872 49.6342 18.5985 48.526C18.7447 48.3802 18.8617 48.3219 19.0664 48.3219C20.5285 48.3219 21.9906 48.3219 23.482 48.3219H24.564C26.1139 48.3219 27.693 48.3219 29.2429 48.3219H29.2721C30.5588 48.3219 31.67 48.1177 32.6935 47.6511C34.682 46.7763 36.1149 45.3181 36.9922 43.2768C37.1969 42.781 37.1677 42.3436 36.846 41.9645C36.6413 41.7603 36.3489 41.6145 35.9687 41.6145Z" fill="#185494"/>
<path d="M17.0486 22.2799C15.0893 22.8049 13.6857 24.0297 12.8669 25.8961C12.7207 26.2168 12.6914 26.6251 12.7499 26.9459C12.8376 27.4417 13.2178 27.7624 13.8027 27.8208C13.8319 27.8208 13.8904 27.8208 13.9196 27.8208C14.4168 27.8208 14.7969 27.5291 15.0309 26.9751C15.7034 25.3711 16.9901 24.4671 18.7155 24.4671C20.47 24.4671 22.0784 25.7794 22.4293 27.4125C22.7802 29.1331 21.8444 30.8245 20.2068 31.4952C18.7739 32.0493 17.3118 33.4491 17.4873 35.6654C17.4873 35.7237 17.4873 35.8696 17.4873 35.8696C17.4873 36.0154 17.4873 36.2195 17.4873 36.3945C17.5457 37.036 18.0136 37.4735 18.6862 37.4735C19.3296 37.4735 19.8267 36.9777 19.8559 36.3653C19.8559 36.1612 19.8559 35.9862 19.8559 35.7821C19.8559 35.6654 19.8559 35.5488 19.8559 35.403C19.8559 34.6739 20.2068 34.1781 20.9379 33.799L21.0256 33.7407C21.6105 33.4491 22.1954 33.1575 22.7217 32.72C24.4471 31.2911 25.1781 29.3955 24.798 27.2375C24.3008 24.263 21.7275 22.0758 18.657 22.0758C18.1306 22.0758 17.575 22.1341 17.0486 22.2799Z" fill="#185494"/>
<path d="M19.0079 3.90775C18.8617 3.7911 18.7155 3.73277 18.54 3.64529C18.4815 3.61612 18.3938 3.58696 18.3061 3.52864L18.0721 3.41199L17.8967 3.5578C17.8382 3.61612 17.7797 3.64529 17.692 3.70361C17.5165 3.84942 17.3118 3.96607 17.1948 4.17021C16.9317 4.57848 16.9609 5.1034 17.3118 5.51167C17.575 5.80329 17.8382 6.09491 18.1599 6.32821C18.3938 6.50319 18.6277 6.59067 18.9202 6.59067C19.2418 6.59067 19.5343 6.47402 19.739 6.24073C20.2069 5.74497 20.2069 5.1034 19.7682 4.60764C19.5343 4.4035 19.2711 4.14104 19.0079 3.90775Z" fill="#FFB140"/>
<path d="M14.5923 2.82874C14.797 3.00371 15.0309 3.0912 15.2649 3.0912C15.4988 3.0912 15.7035 3.00371 15.879 2.88706C16.0544 2.74125 16.2006 2.56628 16.3469 2.36214C16.3761 2.30382 16.4346 2.24549 16.4638 2.18717L16.61 2.0122L16.5223 1.80806C16.4931 1.72057 16.4638 1.66225 16.4346 1.57476C16.3761 1.39979 16.3176 1.25398 16.2006 1.10817C15.9375 0.845705 15.6743 0.583245 15.3818 0.291622C15.1771 0.116649 14.8847 0 14.6215 0C14.3291 0 14.0367 0.116649 13.8027 0.320785C13.3348 0.758218 13.2764 1.42895 13.6565 1.89555C13.8905 2.18717 14.2121 2.50795 14.5923 2.82874Z" fill="#FFB140"/>
<path d="M14.5923 6.64899C14.8847 6.64899 15.1479 6.5615 15.3526 6.35736C15.645 6.12407 15.9082 5.83244 16.1714 5.54082C16.4931 5.16171 16.5516 4.69512 16.3176 4.25768C16.1129 3.84941 15.762 3.61611 15.2649 3.55779L15.1479 3.52863L15.0309 3.58695C14.9725 3.61611 14.9432 3.64527 14.8847 3.67444C14.7385 3.73276 14.5923 3.82025 14.4461 3.9369C14.1829 4.14103 13.9782 4.37433 13.7735 4.57847L13.7443 4.63679C13.3056 5.10339 13.3056 5.83244 13.7443 6.29904C13.949 6.50318 14.2706 6.64899 14.5923 6.64899Z" fill="#FFB140"/>
<path d="M17.1656 2.36215C17.2826 2.53713 17.4288 2.7121 17.6042 2.85791C17.7797 3.00372 17.9844 3.06205 18.2183 3.06205C18.4523 3.06205 18.7154 2.97456 18.8909 2.79959C19.2126 2.53713 19.5342 2.21634 19.8267 1.83723C20.1776 1.45812 20.1776 0.933204 19.8559 0.554095C19.6512 0.320797 19.3003 0.0583371 18.9201 0.0291748C18.8909 0.0291748 18.8617 0.0291748 18.8324 0.0291748C18.1014 0.0291748 17.0486 1.1665 16.9609 1.89556L16.9316 2.04137L17.0486 2.15802C17.0779 2.24551 17.1071 2.30383 17.1656 2.36215Z" fill="#FFB140"/>
<path d="M18.6863 38.6108C17.9844 38.6108 17.4873 39.1649 17.4873 39.9231C17.4873 40.623 17.9844 41.148 18.6863 41.1771C19.0079 41.1771 19.3004 41.0605 19.5051 40.8563C19.739 40.623 19.856 40.3022 19.856 39.9231C19.856 39.1358 19.3588 38.6108 18.6863 38.6108Z" fill="#185494"/>
<path d="M45.2387 26.6251C43.7473 26.6251 42.3436 27.5875 41.9342 28.9289C41.7295 29.5705 42.022 30.1829 42.6361 30.4162C42.7823 30.4745 42.9285 30.5037 43.0747 30.5037C43.5426 30.5037 43.952 30.2412 44.1567 29.7746C44.1859 29.7455 44.1859 29.6872 44.2152 29.6288C44.2444 29.5997 44.2444 29.5413 44.2736 29.5122C44.4783 29.1622 44.8293 28.9581 45.2094 28.9581C45.3556 28.9581 45.5018 28.9873 45.6188 29.0456C46.1452 29.2789 46.3791 29.6872 46.2037 30.2121C46.1159 30.5037 45.882 30.737 45.5018 30.912C44.5076 31.3494 44.0105 32.1368 44.0105 33.2158C44.0105 33.7407 44.3321 34.2073 44.8 34.3531C44.6246 34.4114 44.4783 34.4989 44.3614 34.6156C44.1274 34.8489 44.0105 35.1697 44.0105 35.5196C44.0105 36.1903 44.5368 36.7153 45.2094 36.7153C45.882 36.7153 46.4084 36.1903 46.4084 35.5196C46.4084 34.9947 46.0867 34.5572 45.5896 34.3823C46.0575 34.2365 46.3791 33.8282 46.3791 33.3033C46.3791 33.1575 46.4084 33.0991 46.5838 33.0116C48.046 32.3992 48.894 30.7953 48.5723 29.2789C48.2507 27.7916 46.8178 26.6251 45.2387 26.6251Z" fill="#FFB140"/>
<path d="M50.8242 22.2216H50.4733C49.3036 22.2216 48.1631 22.2216 46.9934 22.2216C46.1161 22.2216 45.2388 22.2216 44.3615 22.2216C43.8351 22.2216 43.2795 22.2216 42.6947 22.2508C42.0806 22.2508 41.4957 22.2799 40.8816 22.2799C40.5015 22.2799 40.1213 22.2799 39.7704 22.2508C39.7119 22.2508 39.6534 22.2508 39.5949 22.2508C38.513 22.2508 37.5479 22.5716 36.6707 23.2131C35.3255 24.2047 34.6237 25.5753 34.6237 27.2667C34.6237 28.1707 34.6237 29.0747 34.6237 29.9788V30.0663C34.6237 31.9035 34.6237 33.799 34.5944 35.6654C34.5652 37.0069 35.0915 38.3192 36.0566 39.2815C37.0216 40.2439 38.279 40.7688 39.6534 40.7688H39.7119C40.326 40.7688 40.9694 40.7688 41.6127 40.7688C42.5777 40.7688 43.572 40.7688 44.537 40.798C44.6539 40.798 44.8002 40.8563 44.8879 40.9146C46.2038 41.9936 47.2858 42.8977 48.3093 43.8017C48.6895 44.1516 49.0989 44.2974 49.479 44.2974C49.6837 44.2974 49.8884 44.2391 50.0931 44.1516C50.7365 43.86 51.0581 43.3059 51.0289 42.5477C51.0289 42.0811 51.0289 41.6145 51.0289 41.0896V40.798C52.1986 40.7688 53.2513 40.3897 54.0994 39.6898C54.655 39.2232 55.1814 38.7566 55.3861 37.9984C55.62 37.6776 55.8832 37.211 55.8247 36.5986C55.8247 36.5403 55.8539 36.5111 55.8539 36.4528C55.9124 36.2778 55.9417 36.0737 55.9417 35.8696C55.9417 33.9448 55.9417 32.0201 55.9417 30.0954V27.4417C56.0002 24.4088 53.807 22.2216 50.8242 22.2216ZM48.6602 40.5938C48.6602 40.7105 48.6602 40.8563 48.6602 40.9729L47.1396 39.6898C46.8472 39.4565 46.5255 39.1649 46.2331 38.9024C45.8529 38.5525 45.4143 38.4067 44.8294 38.4067H43.6597C43.1041 38.4067 42.5485 38.4067 41.9929 38.4067C41.1741 38.4067 40.3553 38.4067 39.5365 38.3775C38.2498 38.3483 37.197 37.386 37.0216 36.1029C36.9923 35.9279 36.9923 35.7821 36.9923 35.5779C36.9923 34.7322 36.9923 33.8865 36.9923 33.0408V32.9533C36.9923 31.1453 36.9923 29.2789 36.9923 27.4125C36.9923 26.5085 37.2848 25.8086 37.8696 25.2545C38.3375 24.8462 38.8931 24.6129 39.5072 24.6129C40.7939 24.5838 41.9636 24.5838 43.1041 24.5838C43.8351 24.5838 44.537 24.5838 45.268 24.5838C45.8237 24.5838 46.3793 24.5838 46.9349 24.5838C47.2273 24.5838 47.5197 24.5838 47.8122 24.5838H49.6545C50.0346 24.5838 50.4148 24.5838 50.7949 24.5838C52.4325 24.5838 53.5438 25.6919 53.5438 27.3542C53.5438 28.1416 53.5438 28.8998 53.5438 29.6872V30.1246C53.5438 31.9035 53.5438 33.7699 53.573 35.5779C53.573 36.3361 53.2806 37.0652 52.7835 37.5901C52.2863 38.0859 51.643 38.3483 50.9412 38.3483C50.8827 38.3483 50.8534 38.3483 50.7949 38.3483C50.7072 38.3483 50.6195 38.3483 50.5318 38.3483C49.8592 38.3483 49.3913 38.4942 49.0696 38.8441C48.7479 39.2524 48.6017 39.8065 48.6602 40.5938Z" fill="#FFB140"/>
<path d="M8.27578 8.42786C7.98335 8.42786 7.69092 8.31122 7.48622 8.07792C7.28152 7.87378 7.16455 7.58216 7.16455 7.29054C7.16455 6.70729 7.83714 6.03656 8.45124 6.03656C9.06534 6.03656 9.56247 6.50316 9.56247 7.14473C9.56247 7.46551 9.41625 7.78629 9.15306 8.01959C8.91912 8.28205 8.59745 8.42786 8.27578 8.42786Z" fill="#FFB140"/>
<path d="M5.8194 8.42786C5.2053 8.42786 4.56196 7.78629 4.53271 7.17389C4.53271 6.88226 4.64969 6.59064 4.85439 6.38651C5.05909 6.18237 5.32227 6.06572 5.64394 6.03656C6.28728 6.03656 6.95987 6.70729 6.95987 7.3197C6.95987 7.93211 6.4335 8.42786 5.8194 8.42786Z" fill="#FFB140"/>
<path d="M5.67324 11.0525C5.0299 11.0525 4.59125 10.5859 4.56201 9.97351C4.56201 9.33194 5.17611 8.69037 5.81945 8.69037C6.43355 8.69037 6.95992 9.21529 6.95992 9.79853C6.95992 10.4109 6.31658 11.0525 5.67324 11.0525Z" fill="#FFB140"/>
<path d="M8.42199 11.0525C7.80789 11.0525 7.16455 10.3818 7.16455 9.7402C7.16455 9.15695 7.69092 8.66119 8.27578 8.66119C8.56821 8.66119 8.88988 8.807 9.15306 9.06947C9.41625 9.33193 9.56247 9.68187 9.56247 9.9735C9.56247 10.5859 9.06534 11.0525 8.42199 11.0525Z" fill="#FFB140"/>
</g>
<defs>
<clipPath id="clip0_517_859">
<rect width="56" height="55" fill="white"/>
</clipPath>
</defs>
</svg>
