<svg width="80" height="80" viewBox="0 0 80 80" fill="none" xmlns="http://www.w3.org/2000/svg">
<mask id="path-1-inside-1_444_883" fill="white">
<path d="M74.6293 52.0352H77.3258V78.0539C77.3258 79.6259 76.9495 79.9955 75.3485 79.9955H4.59808C3.02382 79.9955 2.65642 79.6215 2.65642 78.0205C2.65642 58.3812 2.65642 38.7419 2.65642 19.1026C2.65642 16.4885 3.76977 14.6493 6.20352 13.6273C6.3153 13.5734 6.41343 13.495 6.49056 13.3978C6.56769 13.3006 6.62181 13.1872 6.64886 13.0661C6.69784 12.2979 6.6689 11.5253 6.6689 10.6591H1.79693C0.42975 10.6591 0.00222668 10.2316 0 8.87776C0 6.48779 0 4.09857 0 1.71009C0 0.45424 0.445338 0 1.70118 0C27.2337 0 52.7618 0 78.2855 0C79.5413 0 79.9978 0.445336 80 1.69895C80 4.06146 80 6.42173 80 8.78201C80 10.2605 79.6037 10.6569 78.1296 10.6658H77.3748V26.6088H74.7027V10.7192H66.7112C66.6956 10.9152 66.6622 11.1267 66.66 11.3405C66.66 21.7316 66.66 32.1228 66.66 42.5139C66.66 44.371 67.6976 45.8695 69.332 46.4395C70.0989 46.7109 70.9305 46.7407 71.7148 46.5249C72.4991 46.3091 73.1984 45.8581 73.7186 45.2327C74.3526 44.482 74.69 43.5252 74.6671 42.5429C74.6671 39.9621 74.6671 37.3792 74.6671 34.7295H77.2812C77.2968 34.9187 77.3325 35.1303 77.3325 35.3418C77.3325 37.731 77.3458 40.118 77.3325 42.5072C77.308 46.3772 74.3843 49.3431 70.6301 49.3275C66.9116 49.3075 64.0013 46.346 63.9969 42.5139C63.9835 32.2712 63.9835 22.0211 63.9969 11.7635V10.7192H57.377V13.458C57.495 13.5159 57.6175 13.5805 57.7466 13.6317C60.0891 14.5625 61.3249 16.3661 61.3271 18.9022C61.3271 24.7094 61.3271 30.5151 61.3271 36.3193V77.2745H66.6355V52.0574H69.3075V77.2968H74.6226L74.6293 52.0352ZM71.9573 2.71877H8.03162V7.94701H71.9595L71.9573 2.71877ZM10.6569 77.2968V76.3349C10.6569 57.3057 10.6569 38.2773 10.6569 19.2496C10.671 18.9727 10.6651 18.6951 10.6391 18.4191C10.521 17.6063 10.2071 16.9116 9.44333 16.5041C9.38099 16.5776 9.34982 16.5954 9.34982 16.6155C9.33868 17.2545 9.34981 17.8936 9.32087 18.5304C9.29192 19.4211 8.7397 20.0134 7.96037 19.9955C7.18103 19.9777 6.69561 19.4032 6.65999 18.5438C6.64217 17.8757 6.65999 17.1833 6.65999 16.3839C5.54665 17.0964 5.32398 18.0227 5.32398 19.1049C5.33289 38.2172 5.33289 57.3287 5.32398 76.4395V77.2968H10.6569ZM18.6573 77.2968V76.3349C18.6573 57.3087 18.6573 38.281 18.6573 19.2518C18.6715 18.9742 18.6655 18.6959 18.6395 18.4191C18.5237 17.6063 18.2075 16.9161 17.446 16.5041C17.3814 16.5754 17.3503 16.5954 17.3503 16.6132C17.3503 17.2523 17.3503 17.8913 17.3213 18.5282C17.2924 19.4188 16.7424 20.0134 15.9608 19.9955C15.1792 19.9777 14.6872 19.4144 14.6627 18.5527C14.6448 17.8847 14.6627 17.1944 14.6627 16.3928C13.5493 17.1031 13.3267 18.0294 13.3267 19.1116C13.3356 38.2239 13.3356 57.3354 13.3267 76.4462V77.2968H18.6573ZM26.6578 77.2968V76.3371C26.6578 57.3079 26.6578 38.2803 26.6578 19.2541C26.6719 18.9764 26.666 18.6981 26.6399 18.4213C26.5242 17.6085 26.2057 16.9161 25.324 16.4351C25.324 17.2122 25.3396 17.8713 25.324 18.5282C25.2995 19.4188 24.745 20.0134 23.9657 19.9955C23.1864 19.9777 22.6898 19.4144 22.6653 18.5549C22.6475 17.8758 22.6653 17.1944 22.6653 16.395C21.552 17.1031 21.3293 18.0294 21.3293 19.1116C21.3382 38.2239 21.3382 57.3347 21.3293 76.444V77.2968H26.6578ZM34.6582 77.2968V76.3371C34.6582 57.3079 34.6582 38.2795 34.6582 19.2518C34.6724 18.9749 34.6664 18.6973 34.6404 18.4213C34.5246 17.6085 34.1951 16.9161 33.3244 16.4373C33.3244 17.2122 33.34 17.8713 33.3244 18.5282C33.2999 19.4188 32.7455 20.0134 31.9662 19.9955C31.1868 19.9777 30.6903 19.4144 30.6658 18.5549C30.648 17.8758 30.6658 17.1944 30.6658 16.395C29.5524 17.1031 29.3298 18.0294 29.3298 19.1116C29.3387 38.2239 29.3387 57.3347 29.3298 76.444V77.2968H34.6582ZM38.6662 16.3661C37.6175 17.1009 37.3302 17.9648 37.3302 19.0024C37.3302 38.1697 37.3302 57.3369 37.3302 76.5041C37.3302 76.7691 37.3547 77.0363 37.3658 77.2968H42.6609V76.277C42.6609 57.3057 42.6609 38.3337 42.6609 19.3609C42.6746 19.0559 42.6694 18.7502 42.6453 18.4458C42.6131 18.0243 42.4755 17.6177 42.2452 17.2632C42.0149 16.9088 41.6992 16.6179 41.3271 16.4173C41.3271 17.1966 41.3405 17.849 41.3271 18.5037C41.3048 19.4166 40.7749 19.9978 39.9911 19.9955C39.2073 19.9933 38.684 19.4099 38.6551 18.4948C38.6462 17.829 38.6573 17.1766 38.6573 16.3572L38.6662 16.3661ZM46.6667 16.3661C45.6157 17.1009 45.3307 17.9648 45.3307 19.0047C45.3307 38.1689 45.3307 57.3354 45.3307 76.5041V77.2968H50.6747V76.277C50.6747 57.3057 50.6747 38.3337 50.6747 19.3609C50.6885 19.0551 50.6833 18.7487 50.6591 18.4436C50.6265 18.0225 50.4888 17.6163 50.2585 17.2623C50.0282 16.9082 49.7127 16.6177 49.3409 16.4173C49.3409 17.1966 49.3543 17.8513 49.3409 18.5037C49.3186 19.4166 48.7887 19.9978 48.0049 19.9955C47.2211 19.9933 46.7001 19.4099 46.6689 18.4948C46.6466 17.829 46.6578 17.1766 46.6578 16.3572L46.6667 16.3661ZM54.6671 16.3661C53.6184 17.0986 53.3311 17.9626 53.3311 19.0024C53.3311 38.1697 53.3311 57.3362 53.3311 76.5019C53.3311 76.7691 53.3556 77.0341 53.3667 77.2968H58.6618V19.352C58.6755 19.047 58.6703 18.7413 58.6462 18.4369C58.6138 18.0154 58.4761 17.6089 58.2458 17.2545C58.0155 16.9001 57.6999 16.6091 57.328 16.4084C57.328 17.1855 57.3414 17.8401 57.328 18.4925C57.3057 19.4055 56.778 19.9866 55.992 19.9866C55.206 19.9866 54.6849 19.401 54.656 18.4881C54.6471 17.8312 54.6582 17.1766 54.6582 16.3572L54.6671 16.3661ZM11.9684 14.9299C12.7611 14.4845 13.5271 14.0637 14.2841 13.6161C14.4444 13.5204 14.6404 13.3222 14.6471 13.1708C14.6827 12.3536 14.6627 11.5342 14.6627 10.737H9.35204V13.3244L11.9684 14.9299ZM17.3324 10.6992C17.3324 11.5431 17.3191 12.3402 17.3458 13.1485C17.3582 13.2324 17.3878 13.3129 17.4326 13.3849C17.4774 13.4569 17.5365 13.5189 17.6063 13.5671C18.4079 14.037 19.2273 14.4756 20.0267 14.9187L22.6141 13.3311V10.6992H17.3324ZM25.373 10.6992V13.3311L27.9604 14.9187C28.7753 14.4734 29.5435 14.0436 30.3006 13.6028C30.4453 13.5181 30.6413 13.3556 30.6457 13.2242C30.6769 12.3781 30.6613 11.532 30.6613 10.6992H25.373ZM35.9697 14.9299C36.7624 14.4845 37.5284 14.0637 38.2855 13.6161C38.4458 13.5204 38.6417 13.3222 38.6484 13.1708C38.684 12.3536 38.664 11.5342 38.664 10.737H33.3534V13.3244L35.9697 14.9299ZM43.9858 14.961L46.6288 13.3422V10.7148H41.336C41.336 11.3338 41.3805 11.9149 41.3226 12.4827C41.2536 13.173 41.4273 13.5671 42.1487 13.8299C42.7923 14.0592 43.3534 14.558 43.9746 14.9499L43.9858 14.961ZM49.3632 13.3311L51.9639 14.9276C52.7767 14.4823 53.5449 14.0548 54.3019 13.6117C54.4489 13.5293 54.6448 13.3667 54.6493 13.2331C54.6805 12.3892 54.6649 11.5431 54.6649 10.737H49.3632V13.3311ZM2.6876 7.93142H5.25273V2.70318H2.6876V7.93142ZM74.6961 7.93142H77.2612V2.70318H74.6983L74.6961 7.93142Z"/>
</mask>
<path d="M74.6293 52.0352H77.3258V78.0539C77.3258 79.6259 76.9495 79.9955 75.3485 79.9955H4.59808C3.02382 79.9955 2.65642 79.6215 2.65642 78.0205C2.65642 58.3812 2.65642 38.7419 2.65642 19.1026C2.65642 16.4885 3.76977 14.6493 6.20352 13.6273C6.3153 13.5734 6.41343 13.495 6.49056 13.3978C6.56769 13.3006 6.62181 13.1872 6.64886 13.0661C6.69784 12.2979 6.6689 11.5253 6.6689 10.6591H1.79693C0.42975 10.6591 0.00222668 10.2316 0 8.87776C0 6.48779 0 4.09857 0 1.71009C0 0.45424 0.445338 0 1.70118 0C27.2337 0 52.7618 0 78.2855 0C79.5413 0 79.9978 0.445336 80 1.69895C80 4.06146 80 6.42173 80 8.78201C80 10.2605 79.6037 10.6569 78.1296 10.6658H77.3748V26.6088H74.7027V10.7192H66.7112C66.6956 10.9152 66.6622 11.1267 66.66 11.3405C66.66 21.7316 66.66 32.1228 66.66 42.5139C66.66 44.371 67.6976 45.8695 69.332 46.4395C70.0989 46.7109 70.9305 46.7407 71.7148 46.5249C72.4991 46.3091 73.1984 45.8581 73.7186 45.2327C74.3526 44.482 74.69 43.5252 74.6671 42.5429C74.6671 39.9621 74.6671 37.3792 74.6671 34.7295H77.2812C77.2968 34.9187 77.3325 35.1303 77.3325 35.3418C77.3325 37.731 77.3458 40.118 77.3325 42.5072C77.308 46.3772 74.3843 49.3431 70.6301 49.3275C66.9116 49.3075 64.0013 46.346 63.9969 42.5139C63.9835 32.2712 63.9835 22.0211 63.9969 11.7635V10.7192H57.377V13.458C57.495 13.5159 57.6175 13.5805 57.7466 13.6317C60.0891 14.5625 61.3249 16.3661 61.3271 18.9022C61.3271 24.7094 61.3271 30.5151 61.3271 36.3193V77.2745H66.6355V52.0574H69.3075V77.2968H74.6226L74.6293 52.0352ZM71.9573 2.71877H8.03162V7.94701H71.9595L71.9573 2.71877ZM10.6569 77.2968V76.3349C10.6569 57.3057 10.6569 38.2773 10.6569 19.2496C10.671 18.9727 10.6651 18.6951 10.6391 18.4191C10.521 17.6063 10.2071 16.9116 9.44333 16.5041C9.38099 16.5776 9.34982 16.5954 9.34982 16.6155C9.33868 17.2545 9.34981 17.8936 9.32087 18.5304C9.29192 19.4211 8.7397 20.0134 7.96037 19.9955C7.18103 19.9777 6.69561 19.4032 6.65999 18.5438C6.64217 17.8757 6.65999 17.1833 6.65999 16.3839C5.54665 17.0964 5.32398 18.0227 5.32398 19.1049C5.33289 38.2172 5.33289 57.3287 5.32398 76.4395V77.2968H10.6569ZM18.6573 77.2968V76.3349C18.6573 57.3087 18.6573 38.281 18.6573 19.2518C18.6715 18.9742 18.6655 18.6959 18.6395 18.4191C18.5237 17.6063 18.2075 16.9161 17.446 16.5041C17.3814 16.5754 17.3503 16.5954 17.3503 16.6132C17.3503 17.2523 17.3503 17.8913 17.3213 18.5282C17.2924 19.4188 16.7424 20.0134 15.9608 19.9955C15.1792 19.9777 14.6872 19.4144 14.6627 18.5527C14.6448 17.8847 14.6627 17.1944 14.6627 16.3928C13.5493 17.1031 13.3267 18.0294 13.3267 19.1116C13.3356 38.2239 13.3356 57.3354 13.3267 76.4462V77.2968H18.6573ZM26.6578 77.2968V76.3371C26.6578 57.3079 26.6578 38.2803 26.6578 19.2541C26.6719 18.9764 26.666 18.6981 26.6399 18.4213C26.5242 17.6085 26.2057 16.9161 25.324 16.4351C25.324 17.2122 25.3396 17.8713 25.324 18.5282C25.2995 19.4188 24.745 20.0134 23.9657 19.9955C23.1864 19.9777 22.6898 19.4144 22.6653 18.5549C22.6475 17.8758 22.6653 17.1944 22.6653 16.395C21.552 17.1031 21.3293 18.0294 21.3293 19.1116C21.3382 38.2239 21.3382 57.3347 21.3293 76.444V77.2968H26.6578ZM34.6582 77.2968V76.3371C34.6582 57.3079 34.6582 38.2795 34.6582 19.2518C34.6724 18.9749 34.6664 18.6973 34.6404 18.4213C34.5246 17.6085 34.1951 16.9161 33.3244 16.4373C33.3244 17.2122 33.34 17.8713 33.3244 18.5282C33.2999 19.4188 32.7455 20.0134 31.9662 19.9955C31.1868 19.9777 30.6903 19.4144 30.6658 18.5549C30.648 17.8758 30.6658 17.1944 30.6658 16.395C29.5524 17.1031 29.3298 18.0294 29.3298 19.1116C29.3387 38.2239 29.3387 57.3347 29.3298 76.444V77.2968H34.6582ZM38.6662 16.3661C37.6175 17.1009 37.3302 17.9648 37.3302 19.0024C37.3302 38.1697 37.3302 57.3369 37.3302 76.5041C37.3302 76.7691 37.3547 77.0363 37.3658 77.2968H42.6609V76.277C42.6609 57.3057 42.6609 38.3337 42.6609 19.3609C42.6746 19.0559 42.6694 18.7502 42.6453 18.4458C42.6131 18.0243 42.4755 17.6177 42.2452 17.2632C42.0149 16.9088 41.6992 16.6179 41.3271 16.4173C41.3271 17.1966 41.3405 17.849 41.3271 18.5037C41.3048 19.4166 40.7749 19.9978 39.9911 19.9955C39.2073 19.9933 38.684 19.4099 38.6551 18.4948C38.6462 17.829 38.6573 17.1766 38.6573 16.3572L38.6662 16.3661ZM46.6667 16.3661C45.6157 17.1009 45.3307 17.9648 45.3307 19.0047C45.3307 38.1689 45.3307 57.3354 45.3307 76.5041V77.2968H50.6747V76.277C50.6747 57.3057 50.6747 38.3337 50.6747 19.3609C50.6885 19.0551 50.6833 18.7487 50.6591 18.4436C50.6265 18.0225 50.4888 17.6163 50.2585 17.2623C50.0282 16.9082 49.7127 16.6177 49.3409 16.4173C49.3409 17.1966 49.3543 17.8513 49.3409 18.5037C49.3186 19.4166 48.7887 19.9978 48.0049 19.9955C47.2211 19.9933 46.7001 19.4099 46.6689 18.4948C46.6466 17.829 46.6578 17.1766 46.6578 16.3572L46.6667 16.3661ZM54.6671 16.3661C53.6184 17.0986 53.3311 17.9626 53.3311 19.0024C53.3311 38.1697 53.3311 57.3362 53.3311 76.5019C53.3311 76.7691 53.3556 77.0341 53.3667 77.2968H58.6618V19.352C58.6755 19.047 58.6703 18.7413 58.6462 18.4369C58.6138 18.0154 58.4761 17.6089 58.2458 17.2545C58.0155 16.9001 57.6999 16.6091 57.328 16.4084C57.328 17.1855 57.3414 17.8401 57.328 18.4925C57.3057 19.4055 56.778 19.9866 55.992 19.9866C55.206 19.9866 54.6849 19.401 54.656 18.4881C54.6471 17.8312 54.6582 17.1766 54.6582 16.3572L54.6671 16.3661ZM11.9684 14.9299C12.7611 14.4845 13.5271 14.0637 14.2841 13.6161C14.4444 13.5204 14.6404 13.3222 14.6471 13.1708C14.6827 12.3536 14.6627 11.5342 14.6627 10.737H9.35204V13.3244L11.9684 14.9299ZM17.3324 10.6992C17.3324 11.5431 17.3191 12.3402 17.3458 13.1485C17.3582 13.2324 17.3878 13.3129 17.4326 13.3849C17.4774 13.4569 17.5365 13.5189 17.6063 13.5671C18.4079 14.037 19.2273 14.4756 20.0267 14.9187L22.6141 13.3311V10.6992H17.3324ZM25.373 10.6992V13.3311L27.9604 14.9187C28.7753 14.4734 29.5435 14.0436 30.3006 13.6028C30.4453 13.5181 30.6413 13.3556 30.6457 13.2242C30.6769 12.3781 30.6613 11.532 30.6613 10.6992H25.373ZM35.9697 14.9299C36.7624 14.4845 37.5284 14.0637 38.2855 13.6161C38.4458 13.5204 38.6417 13.3222 38.6484 13.1708C38.684 12.3536 38.664 11.5342 38.664 10.737H33.3534V13.3244L35.9697 14.9299ZM43.9858 14.961L46.6288 13.3422V10.7148H41.336C41.336 11.3338 41.3805 11.9149 41.3226 12.4827C41.2536 13.173 41.4273 13.5671 42.1487 13.8299C42.7923 14.0592 43.3534 14.558 43.9746 14.9499L43.9858 14.961ZM49.3632 13.3311L51.9639 14.9276C52.7767 14.4823 53.5449 14.0548 54.3019 13.6117C54.4489 13.5293 54.6448 13.3667 54.6493 13.2331C54.6805 12.3892 54.6649 11.5431 54.6649 10.737H49.3632V13.3311ZM2.6876 7.93142H5.25273V2.70318H2.6876V7.93142ZM74.6961 7.93142H77.2612V2.70318H74.6983L74.6961 7.93142Z" fill="#185494" stroke="white" stroke-width="0.8" mask="url(#path-1-inside-1_444_883)"/>
<mask id="path-2-inside-2_444_883" fill="white">
<path d="M74.6384 77.3241H69.3233V52.0937H66.6513V77.3108H61.334V36.3533C61.334 30.5476 61.334 24.7419 61.334 18.9362C61.334 16.4001 60.0937 14.5965 57.7512 13.6657C57.6243 13.6145 57.5019 13.5499 57.3816 13.492V10.7643H54.6651C54.6651 11.5704 54.6807 12.4165 54.6495 13.2604C54.6495 13.394 54.4469 13.5566 54.3021 13.639C53.5451 14.0843 52.7769 14.5007 51.9641 14.9549L49.3611 13.3584V10.7643H46.6268V13.3673L43.9837 14.9883C43.3647 14.5942 42.8036 14.0977 42.1467 13.8572C41.4275 13.5944 41.256 13.1892 41.3228 12.5212C41.3564 11.9399 41.3609 11.3572 41.3362 10.7755H38.6642C38.6642 11.5704 38.6842 12.3876 38.6486 13.2026C38.6204 13.297 38.5739 13.385 38.5116 13.4614C38.4493 13.5379 38.3725 13.6012 38.2856 13.6479C37.533 14.0932 36.7626 14.5141 35.9699 14.9594L33.3536 13.3651V10.7643H30.6615C30.6615 11.5882 30.6771 12.4254 30.6459 13.2582C30.6459 13.3918 30.4455 13.5544 30.3008 13.639C29.5437 14.0843 28.7733 14.5007 27.9606 14.9549L25.3732 13.3673V10.7643H22.6254V13.3673L20.038 14.9505C19.2364 14.5052 18.4192 14.0598 17.6176 13.6011C17.544 13.5529 17.4816 13.4893 17.4347 13.4148C17.3878 13.3402 17.3575 13.2565 17.346 13.1692C17.3193 12.3809 17.3326 11.5927 17.3326 10.7599H14.6606C14.6606 11.5548 14.6807 12.372 14.645 13.187C14.6169 13.2814 14.5703 13.3694 14.508 13.4459C14.4457 13.5223 14.3689 13.5856 14.2821 13.6323C13.5295 14.0776 12.759 14.4985 11.9663 14.9438L9.35 13.3495V10.7643H6.6624C6.6624 11.6016 6.69135 12.3564 6.64013 13.1023C6.61339 13.2236 6.55939 13.3371 6.48223 13.4343C6.40507 13.5315 6.30677 13.6099 6.1948 13.6635C3.74545 14.6811 2.64771 16.5248 2.64771 19.1389C2.65661 38.5332 2.65661 57.9283 2.64771 77.3241H5.31972V76.4735C5.31972 57.3642 5.31972 38.2534 5.31972 19.1411C5.31972 18.0589 5.55797 17.1371 6.65572 16.4201C6.65572 17.2195 6.64236 17.9008 6.65572 18.5777C6.68021 19.4395 7.20126 20.0028 7.95165 20.0229C8.70204 20.0429 9.28765 19.4551 9.31437 18.5577C9.33441 17.9186 9.33219 17.2818 9.34332 16.6428C9.34332 16.6227 9.37449 16.6049 9.43461 16.5314C10.2006 16.9389 10.5145 17.6448 10.6326 18.4441C10.6586 18.7209 10.6645 18.9993 10.6504 19.2769V77.3241H77.3349V52.0714H74.6384V77.3241ZM18.6642 76.3622V77.3241H13.3313V76.4735C13.3313 57.3627 13.3313 38.2512 13.3313 19.1389C13.3313 18.0567 13.5695 17.1349 14.6673 16.4201C14.6673 17.2217 14.6517 17.9008 14.6673 18.58C14.6918 19.4417 15.2128 20.005 15.9655 20.0229C16.7181 20.0407 17.3015 19.4551 17.3259 18.5555C17.346 17.9186 17.3438 17.2796 17.3549 16.6405C17.3549 16.6227 17.3861 16.6027 17.4506 16.5314C18.2099 16.9434 18.5261 17.6448 18.6441 18.4464C18.6702 18.7232 18.6761 19.0015 18.662 19.2791L18.6642 76.3622ZM26.6646 76.3622V77.3219H21.3317V76.4691C21.3317 57.3583 21.3317 38.2475 21.3317 19.1366C21.3317 18.0545 21.57 17.1326 22.6677 16.4201C22.6677 17.2195 22.6522 17.9008 22.6677 18.58C22.6922 19.4395 23.2155 20.0028 23.9681 20.0206C24.7207 20.0384 25.3041 19.4528 25.3264 18.5533C25.342 17.8852 25.3264 17.2373 25.3264 16.4602C26.2171 16.9411 26.5266 17.6336 26.6424 18.4464C26.6673 18.7225 26.6732 19 26.6602 19.2769L26.6646 76.3622ZM34.6651 76.3622V77.3219H29.321V76.4691C29.321 57.3598 29.321 38.2489 29.321 19.1366C29.321 18.0545 29.5593 17.1326 30.6571 16.4179C30.6571 17.2195 30.6415 17.8986 30.6571 18.58C30.6815 19.4395 31.2026 20.0028 31.9552 20.0206C32.7078 20.0384 33.2912 19.4528 33.3157 18.5533C33.3313 17.8852 33.3157 17.2373 33.3157 16.4624C34.2064 16.9411 34.5159 17.6314 34.6317 18.4441C34.6565 18.721 34.6625 18.9992 34.6495 19.2769L34.6651 76.3622ZM42.6655 76.3021V77.3219H37.3705C37.3571 77.0591 37.3349 76.7942 37.3349 76.5292C37.3349 57.362 37.3349 38.1948 37.3349 19.0275C37.3349 17.9899 37.6243 17.126 38.6709 16.3912C38.6709 17.2061 38.6597 17.863 38.6709 18.5199C38.6909 19.435 39.2142 20.0162 39.9957 20.0206C40.7773 20.0251 41.3095 19.4417 41.3317 18.5288C41.3473 17.8741 41.3317 17.2217 41.3317 16.4424C41.7032 16.6431 42.0185 16.9337 42.2488 17.2877C42.4791 17.6416 42.617 18.0477 42.6499 18.4686C42.6729 18.7739 42.6782 19.0802 42.6655 19.386V76.3021ZM50.666 76.3021V77.3219H45.3331V76.5292C45.3331 57.362 45.3331 38.1948 45.3331 19.0275C45.3331 17.9899 45.6225 17.126 46.6691 16.3912C46.6691 17.2061 46.6691 17.863 46.6691 18.5199C46.6891 19.435 47.2124 20.0162 47.994 20.0206C48.7755 20.0251 49.3077 19.4417 49.33 18.5288C49.3455 17.8763 49.33 17.2217 49.33 16.4424C49.7016 16.6429 50.017 16.9335 50.2473 17.2875C50.4776 17.6415 50.6154 18.0476 50.6481 18.4686C50.6712 18.7739 50.6764 19.0802 50.6637 19.386L50.666 76.3021ZM58.6664 76.3021V77.3197H53.3714C53.358 77.0569 53.3357 76.7919 53.3357 76.5247C53.3357 57.3575 53.3357 38.191 53.3357 19.0253C53.3357 17.9854 53.6274 17.1215 54.6717 16.3889C54.6717 17.2039 54.6717 17.863 54.6717 18.5199C54.6918 19.4328 55.2173 20.0162 56.0078 20.0184C56.7982 20.0206 57.3193 19.4372 57.3438 18.5243C57.3593 17.8719 57.3438 17.2172 57.3438 16.4401C57.7158 16.6407 58.0315 16.9316 58.2619 17.2861C58.4922 17.6405 58.6298 18.0472 58.662 18.4686C58.685 18.7731 58.6902 19.0787 58.6775 19.3838L58.6664 76.3021Z"/>
</mask>
<path d="M74.6384 77.3241H69.3233V52.0937H66.6513V77.3108H61.334V36.3533C61.334 30.5476 61.334 24.7419 61.334 18.9362C61.334 16.4001 60.0937 14.5965 57.7512 13.6657C57.6243 13.6145 57.5019 13.5499 57.3816 13.492V10.7643H54.6651C54.6651 11.5704 54.6807 12.4165 54.6495 13.2604C54.6495 13.394 54.4469 13.5566 54.3021 13.639C53.5451 14.0843 52.7769 14.5007 51.9641 14.9549L49.3611 13.3584V10.7643H46.6268V13.3673L43.9837 14.9883C43.3647 14.5942 42.8036 14.0977 42.1467 13.8572C41.4275 13.5944 41.256 13.1892 41.3228 12.5212C41.3564 11.9399 41.3609 11.3572 41.3362 10.7755H38.6642C38.6642 11.5704 38.6842 12.3876 38.6486 13.2026C38.6204 13.297 38.5739 13.385 38.5116 13.4614C38.4493 13.5379 38.3725 13.6012 38.2856 13.6479C37.533 14.0932 36.7626 14.5141 35.9699 14.9594L33.3536 13.3651V10.7643H30.6615C30.6615 11.5882 30.6771 12.4254 30.6459 13.2582C30.6459 13.3918 30.4455 13.5544 30.3008 13.639C29.5437 14.0843 28.7733 14.5007 27.9606 14.9549L25.3732 13.3673V10.7643H22.6254V13.3673L20.038 14.9505C19.2364 14.5052 18.4192 14.0598 17.6176 13.6011C17.544 13.5529 17.4816 13.4893 17.4347 13.4148C17.3878 13.3402 17.3575 13.2565 17.346 13.1692C17.3193 12.3809 17.3326 11.5927 17.3326 10.7599H14.6606C14.6606 11.5548 14.6807 12.372 14.645 13.187C14.6169 13.2814 14.5703 13.3694 14.508 13.4459C14.4457 13.5223 14.3689 13.5856 14.2821 13.6323C13.5295 14.0776 12.759 14.4985 11.9663 14.9438L9.35 13.3495V10.7643H6.6624C6.6624 11.6016 6.69135 12.3564 6.64013 13.1023C6.61339 13.2236 6.55939 13.3371 6.48223 13.4343C6.40507 13.5315 6.30677 13.6099 6.1948 13.6635C3.74545 14.6811 2.64771 16.5248 2.64771 19.1389C2.65661 38.5332 2.65661 57.9283 2.64771 77.3241H5.31972V76.4735C5.31972 57.3642 5.31972 38.2534 5.31972 19.1411C5.31972 18.0589 5.55797 17.1371 6.65572 16.4201C6.65572 17.2195 6.64236 17.9008 6.65572 18.5777C6.68021 19.4395 7.20126 20.0028 7.95165 20.0229C8.70204 20.0429 9.28765 19.4551 9.31437 18.5577C9.33441 17.9186 9.33219 17.2818 9.34332 16.6428C9.34332 16.6227 9.37449 16.6049 9.43461 16.5314C10.2006 16.9389 10.5145 17.6448 10.6326 18.4441C10.6586 18.7209 10.6645 18.9993 10.6504 19.2769V77.3241H77.3349V52.0714H74.6384V77.3241ZM18.6642 76.3622V77.3241H13.3313V76.4735C13.3313 57.3627 13.3313 38.2512 13.3313 19.1389C13.3313 18.0567 13.5695 17.1349 14.6673 16.4201C14.6673 17.2217 14.6517 17.9008 14.6673 18.58C14.6918 19.4417 15.2128 20.005 15.9655 20.0229C16.7181 20.0407 17.3015 19.4551 17.3259 18.5555C17.346 17.9186 17.3438 17.2796 17.3549 16.6405C17.3549 16.6227 17.3861 16.6027 17.4506 16.5314C18.2099 16.9434 18.5261 17.6448 18.6441 18.4464C18.6702 18.7232 18.6761 19.0015 18.662 19.2791L18.6642 76.3622ZM26.6646 76.3622V77.3219H21.3317V76.4691C21.3317 57.3583 21.3317 38.2475 21.3317 19.1366C21.3317 18.0545 21.57 17.1326 22.6677 16.4201C22.6677 17.2195 22.6522 17.9008 22.6677 18.58C22.6922 19.4395 23.2155 20.0028 23.9681 20.0206C24.7207 20.0384 25.3041 19.4528 25.3264 18.5533C25.342 17.8852 25.3264 17.2373 25.3264 16.4602C26.2171 16.9411 26.5266 17.6336 26.6424 18.4464C26.6673 18.7225 26.6732 19 26.6602 19.2769L26.6646 76.3622ZM34.6651 76.3622V77.3219H29.321V76.4691C29.321 57.3598 29.321 38.2489 29.321 19.1366C29.321 18.0545 29.5593 17.1326 30.6571 16.4179C30.6571 17.2195 30.6415 17.8986 30.6571 18.58C30.6815 19.4395 31.2026 20.0028 31.9552 20.0206C32.7078 20.0384 33.2912 19.4528 33.3157 18.5533C33.3313 17.8852 33.3157 17.2373 33.3157 16.4624C34.2064 16.9411 34.5159 17.6314 34.6317 18.4441C34.6565 18.721 34.6625 18.9992 34.6495 19.2769L34.6651 76.3622ZM42.6655 76.3021V77.3219H37.3705C37.3571 77.0591 37.3349 76.7942 37.3349 76.5292C37.3349 57.362 37.3349 38.1948 37.3349 19.0275C37.3349 17.9899 37.6243 17.126 38.6709 16.3912C38.6709 17.2061 38.6597 17.863 38.6709 18.5199C38.6909 19.435 39.2142 20.0162 39.9957 20.0206C40.7773 20.0251 41.3095 19.4417 41.3317 18.5288C41.3473 17.8741 41.3317 17.2217 41.3317 16.4424C41.7032 16.6431 42.0185 16.9337 42.2488 17.2877C42.4791 17.6416 42.617 18.0477 42.6499 18.4686C42.6729 18.7739 42.6782 19.0802 42.6655 19.386V76.3021ZM50.666 76.3021V77.3219H45.3331V76.5292C45.3331 57.362 45.3331 38.1948 45.3331 19.0275C45.3331 17.9899 45.6225 17.126 46.6691 16.3912C46.6691 17.2061 46.6691 17.863 46.6691 18.5199C46.6891 19.435 47.2124 20.0162 47.994 20.0206C48.7755 20.0251 49.3077 19.4417 49.33 18.5288C49.3455 17.8763 49.33 17.2217 49.33 16.4424C49.7016 16.6429 50.017 16.9335 50.2473 17.2875C50.4776 17.6415 50.6154 18.0476 50.6481 18.4686C50.6712 18.7739 50.6764 19.0802 50.6637 19.386L50.666 76.3021ZM58.6664 76.3021V77.3197H53.3714C53.358 77.0569 53.3357 76.7919 53.3357 76.5247C53.3357 57.3575 53.3357 38.191 53.3357 19.0253C53.3357 17.9854 53.6274 17.1215 54.6717 16.3889C54.6717 17.2039 54.6717 17.863 54.6717 18.5199C54.6918 19.4328 55.2173 20.0162 56.0078 20.0184C56.7982 20.0206 57.3193 19.4372 57.3438 18.5243C57.3593 17.8719 57.3438 17.2172 57.3438 16.4401C57.7158 16.6407 58.0315 16.9316 58.2619 17.2861C58.4922 17.6405 58.6298 18.0472 58.662 18.4686C58.685 18.7731 58.6902 19.0787 58.6775 19.3838L58.6664 76.3021Z" fill="#FFB140" stroke="white" stroke-width="0.8" mask="url(#path-2-inside-2_444_883)"/>
</svg>
