<svg width="32" height="32" viewBox="0 0 32 32" fill="none" xmlns="http://www.w3.org/2000/svg">
<path d="M4 3.25C3.58579 3.25 3.25 3.58579 3.25 4C3.25 4.41421 3.58579 4.75 4 4.75L4 3.25ZM7.33333 4L8.06094 3.8181C7.97747 3.48422 7.67748 3.25 7.33333 3.25V4ZM25.3333 22.0833C25.7475 22.0833 26.0833 21.7475 26.0833 21.3333C26.0833 20.9191 25.7475 20.5833 25.3333 20.5833V22.0833ZM28 6.66667L28.7276 6.84857C28.7836 6.62451 28.7333 6.38714 28.5912 6.20511C28.449 6.02307 28.231 5.91667 28 5.91667V6.66667ZM25.3333 17.3333V18.0833C25.6775 18.0833 25.9775 17.8491 26.0609 17.5152L25.3333 17.3333ZM4 4.75H7.33333V3.25H4L4 4.75ZM6.60573 4.1819L7.27239 6.84857L8.72761 6.48477L8.06094 3.8181L6.60573 4.1819ZM7.27239 6.84857L9.93906 17.5152L11.3943 17.1514L8.72761 6.48477L7.27239 6.84857ZM10.6667 16.5833H10V18.0833H10.6667V16.5833ZM10 22.0833H25.3333V20.5833H10V22.0833ZM7.25 19.3333C7.25 20.8521 8.48122 22.0833 10 22.0833V20.5833C9.30964 20.5833 8.75 20.0237 8.75 19.3333H7.25ZM10 16.5833C8.48122 16.5833 7.25 17.8146 7.25 19.3333H8.75C8.75 18.643 9.30964 18.0833 10 18.0833V16.5833ZM8 7.41667H28V5.91667H8V7.41667ZM27.2724 6.48477L24.6057 17.1514L26.0609 17.5152L28.7276 6.84857L27.2724 6.48477ZM25.3333 16.5833H10.6667V18.0833H25.3333V16.5833ZM24.5833 26.6667C24.5833 26.9888 24.3222 27.25 24 27.25V28.75C25.1506 28.75 26.0833 27.8173 26.0833 26.6667H24.5833ZM24 27.25C23.6778 27.25 23.4167 26.9888 23.4167 26.6667H21.9167C21.9167 27.8173 22.8494 28.75 24 28.75V27.25ZM23.4167 26.6667C23.4167 26.3445 23.6778 26.0833 24 26.0833V24.5833C22.8494 24.5833 21.9167 25.5161 21.9167 26.6667H23.4167ZM24 26.0833C24.3222 26.0833 24.5833 26.3445 24.5833 26.6667H26.0833C26.0833 25.5161 25.1506 24.5833 24 24.5833V26.0833ZM11.25 26.6667C11.25 26.9888 10.9888 27.25 10.6667 27.25V28.75C11.8173 28.75 12.75 27.8173 12.75 26.6667H11.25ZM10.6667 27.25C10.3445 27.25 10.0833 26.9888 10.0833 26.6667H8.58333C8.58333 27.8173 9.51607 28.75 10.6667 28.75V27.25ZM10.0833 26.6667C10.0833 26.3445 10.3445 26.0833 10.6667 26.0833V24.5833C9.51607 24.5833 8.58333 25.5161 8.58333 26.6667H10.0833ZM10.6667 26.0833C10.9888 26.0833 11.25 26.3445 11.25 26.6667H12.75C12.75 25.5161 11.8173 24.5833 10.6667 24.5833V26.0833Z" fill="#185494"/>
</svg>
