<svg width="71" height="55" viewBox="0 0 71 55" fill="none" xmlns="http://www.w3.org/2000/svg">
<g clip-path="url(#clip0_518_939)">
<path d="M59.6702 11.7204C59.3073 10.9269 58.6146 10.3317 57.79 10.0342C57.1963 9.83579 56.6025 9.80273 56.0088 9.80273C46.773 9.80273 14.5465 9.80273 12.3365 9.80273H12.2045H11.9076C11.8417 9.80273 11.7757 9.80273 11.7427 9.80273C11.7097 9.80273 11.6438 9.80273 11.6108 9.80273H11.5778L11.4788 9.86885H11.4459L11.3799 9.80273H11.2809C11.149 9.70354 11.083 9.57129 11.05 9.4721L11.149 9.40597C11.149 9.37291 11.149 9.33985 11.116 9.30678C11.017 8.5794 10.8521 7.85201 10.6872 7.15769L10.5882 6.62868C10.0275 3.88445 7.91644 2.06599 5.21166 1.99986C4.71688 1.99986 4.18912 1.9668 3.5624 1.9668C2.96866 1.99986 2.37493 1.99986 1.7812 1.99986H1.22045C0.461792 2.03292 0 2.42968 0 3.09094C0 3.38851 0.0989555 3.65301 0.263881 3.81832C0.494777 4.04977 0.824629 4.14895 1.25344 4.14895H1.68224H3.39747C4.05717 4.14895 4.55195 4.14895 5.01374 4.18202C6.86091 4.24814 8.01539 5.24003 8.41122 7.0585C8.77405 8.77778 9.1039 10.3317 9.36779 11.7865C10.6542 18.4983 12.3694 27.3261 14.0847 36.3193C14.6454 39.2949 16.7894 41.0803 19.8241 41.0803H24.7059H45.2556C48.1253 41.0803 49.9725 39.8239 50.9951 37.1789C52.0836 34.3355 53.1721 31.4921 54.2606 28.6486L57.0973 21.2425L57.823 19.3249C58.4497 17.7378 59.0434 16.1508 59.6372 14.5307C60.099 13.5388 60.066 12.547 59.6702 11.7204ZM45.3546 38.9312C41.0665 38.9312 36.7455 38.9312 32.4574 38.9312C28.3343 38.9312 24.1781 38.9312 20.055 38.9312C17.878 38.9312 16.6905 37.9393 16.2617 35.8564C15.7009 33.013 15.1402 30.1034 14.6124 27.2931L14.5135 26.8302C14.0187 24.2843 13.5239 21.7385 13.0291 19.1926L12.9302 18.6305L13.4909 18.6967C13.5239 18.6967 13.5569 18.6967 13.5899 18.6967C17.6471 18.6967 21.7042 18.6967 25.7614 18.6967H35.8219C36.9104 18.6967 37.9989 18.6967 39.0874 18.6967C39.5492 18.6967 39.945 18.5314 40.1429 18.2669C40.3409 18.0354 40.3738 17.7048 40.2749 17.3411C40.1429 16.9113 39.8791 16.6798 39.4173 16.5806C39.1534 16.5476 38.8895 16.5476 38.5926 16.5476H27.7735C22.9247 16.5476 18.1089 16.5476 13.26 16.5476C12.6333 16.5476 12.4024 16.3492 12.3035 15.7541C12.1715 14.7952 12.0066 13.7703 11.7097 12.6792C11.6767 12.6131 11.6767 12.547 11.6767 12.4808L11.6108 12.0179L12.0726 11.9849C12.1385 11.9849 12.2045 11.9849 12.3035 11.9849C16.7565 11.9849 21.2424 11.9849 25.6954 11.9849C25.6954 11.9849 52.8092 11.9849 56.0088 11.9849H56.2727C56.4706 11.9849 56.6685 11.9849 56.8334 12.051C57.1963 12.1502 57.4601 12.3155 57.6251 12.6131C57.79 12.9437 57.79 13.3735 57.6251 13.8695C56.9324 15.6879 56.2067 17.5395 55.646 19.0604L53.6669 24.2182C52.1166 28.2849 50.5333 32.3186 48.983 36.3854C48.3233 38.1708 47.2677 38.9312 45.3546 38.9312Z" fill="#185494"/>
<path d="M46.3113 16.6469C45.9484 16.5477 45.5526 16.5146 45.1898 16.5146C44.827 16.5146 44.4641 16.5477 44.0683 16.6469C43.5075 16.7792 43.2107 17.209 43.2766 17.8041C43.3426 18.3662 43.6725 18.6637 44.2662 18.7299C44.3652 18.7299 44.4971 18.7299 44.5961 18.7299C44.695 18.7299 44.761 18.7299 44.8929 18.7299C44.9919 18.7299 45.0908 18.7299 45.1898 18.7299C45.2558 18.7299 45.3877 18.7299 45.4537 18.7299C45.5526 18.7299 45.6186 18.7299 45.7176 18.7299C45.8165 18.7299 45.9485 18.7299 46.0474 18.7299C46.6082 18.6637 46.971 18.3662 47.004 17.8041C47.1029 17.1759 46.839 16.7792 46.3113 16.6469Z" fill="#FFB140"/>
<path d="M21.5394 44.2212H21.5064C18.6037 44.2212 16.1628 46.7009 16.1628 49.6105C16.1628 52.5531 18.5378 54.9667 21.4735 54.9997H21.5064C24.4751 54.9997 26.883 52.6192 26.916 49.6766C26.883 46.6679 24.5081 44.2543 21.5394 44.2212ZM21.4735 53.1482C19.5603 53.1482 17.944 51.5281 17.977 49.6105C17.977 47.6928 19.5933 46.0727 21.5064 46.0727C22.463 46.0727 23.3206 46.4364 24.0133 47.1307C24.706 47.8251 25.0688 48.7178 25.0359 49.6766C25.0029 51.6273 23.4526 53.1482 21.4735 53.1482Z" fill="#FFB140"/>
<path d="M43.8373 44.2212H43.8043C40.8686 44.2543 38.4607 46.6679 38.4607 49.5774C38.4607 50.9991 38.9885 52.3547 40.011 53.3796C41.0335 54.4046 42.3859 54.9997 43.8373 54.9997C45.2886 54.9997 46.641 54.4377 47.6305 53.4127C48.6201 52.3878 49.2138 51.0322 49.1808 49.6105C49.1808 46.6348 46.7729 44.2212 43.8373 44.2212ZM43.7713 53.1482C42.8477 53.1482 41.9571 52.7515 41.2974 52.0902C40.6377 51.3959 40.2749 50.5362 40.2749 49.5774C40.3079 47.7259 41.8252 46.1388 43.6394 46.0727L44.2661 45.9735L44.2991 46.1058C45.0907 46.205 45.8164 46.5687 46.3441 47.1638C47.0038 47.8581 47.3667 48.7508 47.3667 49.7097C47.3337 51.6273 45.7504 53.1482 43.7713 53.1482Z" fill="#FFB140"/>
</g>
<g clip-path="url(#clip1_518_939)">
<path d="M63.131 2.88573C63.2839 3.00853 63.4367 3.06994 63.6201 3.16204C63.6812 3.19274 63.773 3.22344 63.8647 3.28485L64.1092 3.37695L64.2926 3.22344C64.3537 3.16204 64.4149 3.13134 64.5066 3.06994C64.69 2.91643 64.904 2.79362 65.0262 2.57871C65.3013 2.14888 65.2708 1.59625 64.904 1.16643C64.6288 0.859409 64.3537 0.552391 64.0175 0.306777C63.773 0.122567 63.5284 0.0304608 63.2227 0.0304608C62.8865 0.0304608 62.5808 0.153268 62.3668 0.398882C61.8778 0.920812 61.8778 1.59625 62.3363 2.11818C62.6114 2.3638 62.8559 2.64011 63.131 2.88573Z" fill="#FFB140"/>
<path d="M67.7468 4.02193C67.5328 3.83772 67.2883 3.74561 67.0437 3.74561C66.7992 3.74561 66.5852 3.83772 66.4018 3.96053C66.2184 4.14474 66.0961 4.32895 65.9433 4.54386C65.9127 4.60526 65.8516 4.66667 65.821 4.72807L65.6376 4.88158L65.7293 5.09649C65.7599 5.1886 65.7905 5.25 65.821 5.34211C65.8822 5.52632 65.9433 5.67982 66.0656 5.83333C66.3407 6.10965 66.6158 6.38596 66.952 6.69298C67.166 6.87719 67.4411 7 67.7468 7C68.0525 7 68.3581 6.87719 68.6027 6.66228C69.0918 6.20175 69.1529 5.49561 68.7555 5.00439C68.4804 4.69737 68.1442 4.35965 67.7468 4.02193Z" fill="#FFB140"/>
<path d="M67.7467 6.79493e-05C67.441 6.79493e-05 67.1659 0.0921733 66.9519 0.307086C66.6463 0.5527 66.3712 0.859717 66.096 1.16673C65.7598 1.56586 65.6987 2.05709 65.9432 2.51761C66.1572 2.94744 66.524 3.19305 67.0436 3.25445L67.1659 3.28516L67.2882 3.22375C67.3493 3.19305 67.3799 3.16235 67.441 3.13165C67.5939 3.07024 67.7467 2.97814 67.8995 2.85533C68.1746 2.64042 68.3886 2.39481 68.6026 2.14919L68.6332 2.11849C69.0917 1.62726 69.0917 0.859717 68.6332 0.368489C68.4192 0.153576 68.0829 6.79493e-05 67.7467 6.79493e-05Z" fill="#FFB140"/>
<path d="M65.0567 4.51316C64.9344 4.32895 64.7816 4.14474 64.5982 3.99123C64.4148 3.83772 64.2008 3.77632 63.9562 3.77632C63.7117 3.77632 63.4366 3.86842 63.2532 4.05263C62.9169 4.32895 62.5807 4.66667 62.275 5.06579C61.9388 5.49561 61.9082 6.04825 62.2445 6.44737C62.4584 6.69298 62.8252 6.9693 63.2226 7C63.2532 7 63.2838 7 63.3143 7C64.0785 7 65.1789 5.80263 65.2707 5.03509L65.3318 4.85088L65.2095 4.72807C65.1789 4.63596 65.1178 4.57456 65.0567 4.51316Z" fill="#FFB140"/>
</g>
<defs>
<clipPath id="clip0_518_939">
<rect width="60" height="53" fill="white" transform="translate(0 2)"/>
</clipPath>
<clipPath id="clip1_518_939">
<rect width="9" height="7" fill="white" transform="translate(71 7) rotate(-180)"/>
</clipPath>
</defs>
</svg>
