<svg width="25" height="25" viewBox="0 0 25 25" fill="none" xmlns="http://www.w3.org/2000/svg">
<path d="M19.7673 21.7859C19.5688 21.7646 19.3632 21.7504 19.1647 21.7221C18.7889 21.6654 18.5549 21.8426 18.4415 22.2112C18.328 22.5656 18.2146 22.92 18.0302 23.239C17.5977 23.9832 16.91 24.2526 16.0804 24.0116C15.7613 23.9194 15.4564 23.7706 15.1587 23.6146C14.7332 23.3949 14.4922 23.4587 14.2086 23.8344C14.0171 24.0895 13.7902 24.3447 13.535 24.5361C12.8189 25.0748 12.0389 25.0606 11.3441 24.4936C11.0959 24.288 10.8761 24.0328 10.6705 23.7848C10.394 23.4516 10.1245 23.4162 9.74167 23.6217C9.40133 23.7989 9.03973 23.969 8.67103 24.047C7.95491 24.203 7.34514 23.9549 6.94809 23.3382C6.72829 22.998 6.60066 22.5939 6.45886 22.2041C6.33123 21.8355 6.10434 21.7079 5.72147 21.7221C5.2606 21.7362 4.77846 21.7504 4.33177 21.6441C3.61565 21.4811 3.23986 20.9494 3.16187 20.2335C3.12642 19.8862 3.14769 19.5247 3.18314 19.1774C3.21859 18.7662 3.06969 18.5465 2.67973 18.4473C2.38902 18.3764 2.09832 18.2913 1.82889 18.1637C0.942603 17.7243 0.616449 16.9658 0.914242 16.0231C1.00642 15.7325 1.14822 15.4489 1.29003 15.1796C1.51692 14.7472 1.47438 14.5133 1.08441 14.2297C0.588088 13.8682 0.16267 13.45 0.0350446 12.8192C-0.128032 12.0466 0.290295 11.196 1.03478 10.721C1.48856 10.4304 1.5311 10.2178 1.28294 9.73577C1.11986 9.4168 0.963874 9.08365 0.87879 8.73633C0.666081 7.92826 0.956784 7.24779 1.68708 6.85084C1.99906 6.68072 2.35357 6.5744 2.701 6.48225C3.05551 6.38302 3.22568 6.15619 3.19732 5.7876C3.16896 5.44736 3.13351 5.10004 3.16896 4.7598C3.24695 3.86667 3.82126 3.28544 4.72173 3.19329C5.06207 3.15785 5.40949 3.17911 5.74983 3.20746C6.12561 3.24291 6.3525 3.10114 6.46595 2.73964C6.55812 2.43484 6.6503 2.13005 6.7921 1.84651C7.2317 0.988832 8.0329 0.655683 8.95464 0.939214C9.23825 1.02427 9.50769 1.17313 9.76294 1.31489C10.1175 1.52045 10.4011 1.47084 10.6705 1.15186C10.8832 0.896684 11.103 0.634418 11.3653 0.428858C12.0744 -0.138205 12.8614 -0.145293 13.5775 0.421769C13.8328 0.620241 14.0455 0.87542 14.244 1.13769C14.4851 1.45666 14.7474 1.52754 15.1161 1.35742C15.4706 1.1873 15.8322 1.00301 16.2151 0.910861C16.9525 0.719477 17.5835 0.960479 17.9806 1.60551C18.1933 1.94575 18.328 2.33561 18.4556 2.71837C18.5833 3.10823 18.7889 3.24999 19.2001 3.21455C19.5405 3.17911 19.8879 3.15785 20.2282 3.19329C21.0649 3.27835 21.6463 3.83832 21.7526 4.67474C21.7952 5.02915 21.7739 5.39774 21.7385 5.75216C21.703 6.1491 21.8306 6.36175 22.2135 6.48934C22.5326 6.59566 22.8587 6.6949 23.1494 6.84375C24.0074 7.29032 24.3051 8.00623 24.0074 8.92771C23.9081 9.22542 23.7592 9.51604 23.6174 9.79248C23.4189 10.1682 23.4685 10.4092 23.7946 10.6998C24.0853 10.955 24.3831 11.2172 24.61 11.5291C25.078 12.16 25.0709 12.8404 24.5958 13.4642C24.369 13.7619 24.0783 14.0171 23.7875 14.2581C23.4756 14.5275 23.433 14.7614 23.6103 15.1441C23.8017 15.5623 24.0003 16.0018 24.0924 16.4484C24.2271 17.1076 23.9294 17.6321 23.3692 17.9724C23.0431 18.1708 22.6673 18.3055 22.3057 18.426C21.8164 18.589 21.7101 18.7521 21.7526 19.2553C21.781 19.6239 21.8023 19.9996 21.7385 20.3611C21.5328 21.3039 20.8309 21.8 19.7673 21.7859ZM19.9375 20.6163C20.5047 20.6517 20.682 20.4674 20.6253 19.9145C20.6111 19.8082 20.5969 19.7019 20.5827 19.5956C20.4409 18.3977 20.9089 17.6676 22.0504 17.2919C22.2277 17.2352 22.4049 17.1926 22.5822 17.1218C22.9438 16.9729 23.0714 16.6185 22.8942 16.2712C22.8587 16.2003 22.8162 16.1365 22.7736 16.0656C22.0504 14.7685 22.256 13.8612 23.4614 13.0035C23.8797 12.7058 23.901 12.2946 23.5039 11.9473C23.3054 11.7701 23.0927 11.6071 22.9084 11.4228C22.3908 10.8983 22.2348 10.2674 22.4758 9.56566C22.568 9.28212 22.7027 9.01277 22.8445 8.7505C23.0998 8.28268 22.9651 7.92826 22.4617 7.75814C22.1851 7.666 21.9015 7.58802 21.6392 7.46752C21.0578 7.20526 20.682 6.76578 20.6182 6.12075C20.5827 5.71672 20.6182 5.31269 20.6395 4.90865C20.6607 4.49044 20.4906 4.29197 20.0722 4.29197C19.8666 4.29197 19.661 4.3345 19.4625 4.32033C19.0867 4.29197 18.6896 4.29197 18.3493 4.16438C17.6261 3.90212 17.3212 3.26417 17.1865 2.56952C17.0659 1.93157 16.6263 1.83943 16.1513 2.08043C15.8606 2.22928 15.5628 2.35687 15.2508 2.47028C14.6623 2.68293 14.1164 2.59078 13.6484 2.1584C13.4074 1.93866 13.1876 1.69057 12.9748 1.44248C12.6629 1.08098 12.2516 1.0668 11.9255 1.41413C11.6915 1.66931 11.4646 1.93157 11.2094 2.1584C10.791 2.52699 10.2876 2.65458 9.74876 2.50572C9.40133 2.40649 9.06809 2.26472 8.74902 2.10169C8.23852 1.83943 7.91237 1.94575 7.72093 2.49155C7.61458 2.78926 7.51531 3.09405 7.38769 3.38467C7.13953 3.93756 6.70702 4.27071 6.10434 4.31324C5.70019 4.34159 5.29605 4.30615 4.8919 4.29906C4.47357 4.29197 4.24668 4.5188 4.26795 4.93701C4.27504 5.08586 4.29631 5.23471 4.3105 5.38357C4.43812 6.55313 3.93471 7.33285 2.81444 7.68726C2.71518 7.71561 2.60882 7.74397 2.50956 7.76523C1.95652 7.89282 1.79344 8.28268 2.06996 8.77886C2.85698 10.1682 2.68682 10.9833 1.41765 11.9615C1.00642 12.2734 1.00642 12.6632 1.39638 13.0035C1.65163 13.2232 1.90688 13.4429 2.12668 13.6981C2.56628 14.2014 2.65846 14.7826 2.43157 15.4064C2.3323 15.6758 2.19759 15.938 2.06287 16.1932C1.79344 16.6894 1.95652 17.0721 2.50956 17.2068C2.58046 17.221 2.64427 17.2423 2.71518 17.2564C3.92762 17.6038 4.4523 18.3977 4.29631 19.6452C4.18287 20.5596 4.36013 20.7155 5.28896 20.6376C6.70702 20.51 7.23879 20.9849 7.57912 22.0552C7.64294 22.2466 7.70675 22.4451 7.79183 22.6294C7.96909 23.0121 8.30233 23.1114 8.67103 22.9129C8.89792 22.7924 9.12481 22.6719 9.35879 22.5727C10.1671 22.2395 10.8832 22.3954 11.4859 23.0334C11.6419 23.2035 11.7908 23.3807 11.9467 23.5508C12.2587 23.8982 12.6771 23.8911 12.9748 23.5367C13.1379 23.3524 13.2939 23.161 13.4641 22.9838C14.0313 22.3813 14.6978 22.2253 15.4635 22.5656C15.7401 22.6861 16.0095 22.8207 16.286 22.9342C16.7327 23.1255 17.0447 22.9554 17.1652 22.4947C17.229 22.2537 17.2928 22.0127 17.385 21.7929C17.6615 21.1266 18.1579 20.7226 18.8882 20.6588C19.2356 20.595 19.5901 20.6163 19.9375 20.6163Z" fill="#185494"/>
<path d="M12.4502 20.3894C8.06837 20.3894 4.51614 16.8311 4.53032 12.4506C4.5445 8.07708 8.08256 4.54712 12.4502 4.54712C16.832 4.54712 20.3842 8.10544 20.37 12.4789C20.3559 16.8595 16.8178 20.3894 12.4502 20.3894ZM5.65767 12.4576C5.65058 16.1932 8.69232 19.2482 12.4218 19.2624C16.1726 19.2766 19.2356 16.2286 19.2427 12.4789C19.2498 8.74338 16.2151 5.68833 12.4714 5.67416C8.72777 5.65998 5.66476 8.70794 5.65767 12.4576Z" fill="#185494"/>
<path d="M11.2943 13.9461C11.4077 13.8398 11.4786 13.776 11.5425 13.7051C12.8045 12.4434 14.0666 11.1746 15.3358 9.92001C15.4421 9.81368 15.5627 9.70736 15.6974 9.66483C15.9314 9.58686 16.1583 9.66483 16.3071 9.87039C16.456 10.076 16.456 10.3028 16.3142 10.5154C16.2646 10.5934 16.1866 10.6643 16.1228 10.7352C14.7047 12.1528 13.2867 13.5776 11.8615 14.9952C11.4503 15.4063 11.195 15.4063 10.7838 14.9952C10.096 14.3077 9.40828 13.6201 8.72052 12.9325C8.53617 12.7482 8.43691 12.5498 8.52908 12.2875C8.67089 11.8764 9.16012 11.7771 9.49336 12.1103C10.0322 12.6348 10.5569 13.1735 11.0887 13.7051C11.1525 13.7689 11.2092 13.8469 11.2943 13.9461Z" fill="#FFB140"/>
</svg>
