<svg width="57" height="53" viewBox="0 0 57 53" fill="none" xmlns="http://www.w3.org/2000/svg">
<g clip-path="url(#clip0_518_895)">
<path d="M42.2788 39.4761C43.7878 37.6189 45.2968 35.7617 46.7825 33.9045L47.0147 33.6259C48.2683 32.0705 49.5219 30.5383 50.7523 28.9829C50.9845 28.7043 51.0773 28.449 51.0541 28.2168C51.0309 27.9615 50.8684 27.7293 50.5666 27.4972C41.6984 20.3701 32.8767 13.2663 24.3336 6.37144C24.0086 6.11608 23.7532 6 23.4978 6C23.196 6 22.9175 6.18572 22.6157 6.55716C20.062 9.76084 17.3923 13.1038 14.3975 16.795C14.0957 17.1664 13.9797 17.4682 14.0029 17.7468C14.0261 18.0254 14.2118 18.2808 14.56 18.5594C20.8745 23.597 27.1658 28.6579 33.2714 33.5563C33.2714 33.5563 38.3555 37.6421 40.6306 39.4529C40.7931 39.5922 40.9788 39.7083 41.1645 39.8244C41.2574 39.894 41.3502 39.9404 41.4663 40.0101L41.5592 40.0565L41.6288 39.9869C41.6984 39.9172 41.7681 39.8708 41.861 39.8244C42.0235 39.7315 42.1628 39.6154 42.2788 39.4761ZM20.3638 14.9146C20.0156 14.9146 19.7834 15.1932 19.5513 15.495C18.9709 16.2378 18.3673 16.9575 17.7637 17.7236L17.0673 18.5361L15.8137 17.4915L23.5907 7.78756L49.2201 28.3793L41.4431 38.1064L40.143 37.0618L40.352 36.8064C40.5377 36.5742 40.7002 36.3653 40.8627 36.1564C41.1181 35.8314 41.3967 35.5064 41.6752 35.1813L41.7217 35.1349C42.4878 34.1831 43.3003 33.2081 44.0432 32.233C44.2521 31.9544 44.2753 31.2812 44.0664 31.0491C43.9271 30.8866 43.7646 30.7937 43.6021 30.7937C43.3699 30.7937 43.1146 30.9562 42.8592 31.2812C42.0699 32.2795 41.2574 33.2777 40.4681 34.2527C40.0966 34.6938 39.7484 35.1349 39.3769 35.576L38.9591 36.0867L37.7751 35.1349L38.5876 34.1367C39.1448 33.4634 39.6555 32.7902 40.1895 32.1402L40.2359 32.0937C40.5377 31.7223 40.9324 31.2348 40.3288 30.7473C40.1663 30.608 40.0037 30.5383 39.8412 30.5383C39.493 30.5383 39.2376 30.8169 38.9823 31.1419C38.4019 31.8616 37.8215 32.5813 37.2179 33.3241L36.5447 34.1599L35.3375 33.1848L35.7554 32.6509C36.0804 32.233 36.4054 31.8384 36.7072 31.4437C36.9858 31.0955 37.5662 30.3758 37.5662 30.3758C38.0537 29.7722 38.5644 29.1454 39.0519 28.5186L39.1448 28.4258C39.3537 28.1704 39.5859 27.8918 39.5394 27.59C39.5162 27.4043 39.4002 27.2418 39.2144 27.0793C39.0519 26.9632 38.8894 26.8936 38.7501 26.8936C38.4019 26.8936 38.1233 27.1954 37.8912 27.5204C37.8215 27.6132 37.7519 27.7061 37.659 27.799L37.5662 27.915L34.1303 32.1634L32.9464 31.1884L35.3839 28.1704C35.6857 27.799 36.0804 27.3114 35.5 26.8007C35.3375 26.6614 35.175 26.5918 35.0125 26.5918C34.6643 26.5918 34.4321 26.8936 34.2 27.1721L34.1768 27.1954C33.5964 27.915 33.0392 28.6115 32.4589 29.3311L31.7392 30.2133L30.532 29.2383L30.5784 29.1686C30.6481 29.0526 30.7177 28.9597 30.7874 28.8901C31.1124 28.4954 31.4142 28.1007 31.7392 27.7293C32.6214 26.6382 33.5267 25.5239 34.3857 24.4096C34.5482 24.2006 34.525 23.8988 34.5018 23.6202C34.5018 23.5042 34.4786 23.3881 34.5018 23.272V23.0863L34.3161 23.1327C34.2232 23.1559 34.1071 23.1792 33.991 23.1792C33.7125 23.2256 33.4339 23.272 33.2482 23.4345C32.9464 23.6667 32.7374 23.9917 32.5053 24.2703C32.4124 24.4095 32.3196 24.5256 32.2267 24.6417L29.3248 28.2633L28.0944 27.2882L30.5088 24.2703C30.7177 24.0149 30.9499 23.7363 30.9267 23.4113C30.9034 23.2256 30.7874 23.0631 30.6016 22.9006C30.4391 22.7845 30.2999 22.7149 30.1373 22.7149C29.7891 22.7149 29.557 23.0166 29.348 23.272L26.8872 26.29L25.6801 25.3149C25.9818 24.9435 26.2836 24.5721 26.5622 24.2006C27.5837 22.9238 28.5587 21.7398 29.4873 20.5094C29.6963 20.2308 29.7659 19.5576 29.557 19.3022C29.4177 19.1165 29.232 19.0237 29.0695 19.0237C28.7444 19.0237 28.4891 19.3022 28.3034 19.5576C27.5373 20.5094 26.7479 21.4845 26.0747 22.3434C25.6801 22.8309 25.3086 23.2952 24.8907 23.7827L24.4497 24.3167L23.2657 23.3184L23.9854 22.4363C24.5657 21.7166 25.1461 20.9969 25.7033 20.3005L25.7265 20.2773C25.9354 20.0219 26.1676 19.7433 26.1211 19.4183C26.0979 19.2326 26.0051 19.0701 25.7961 18.9076C25.6336 18.7683 25.4711 18.7219 25.3086 18.7219C24.9604 18.7219 24.7515 19.0004 24.5193 19.279L24.4497 19.3487C23.8925 20.0451 23.3121 20.7416 22.755 21.4612L22.0121 22.3666L20.8513 21.3916L22.8014 18.954C23.405 18.2111 23.9854 17.4682 24.5889 16.7254C24.7979 16.47 25.03 16.1682 25.0068 15.8432C24.9836 15.6575 24.8675 15.495 24.6818 15.3557C24.5193 15.2396 24.38 15.17 24.2175 15.17C23.8693 15.17 23.5907 15.4717 23.405 15.7271C23.2425 15.9361 23.08 16.145 22.9175 16.3307L22.755 16.5396L19.5048 20.4862L18.2977 19.488L18.9941 18.629C19.5977 17.8861 20.1781 17.1664 20.7585 16.4468L20.7817 16.4236C21.0603 16.0753 21.4317 15.611 20.8745 15.1235C20.712 14.9842 20.5263 14.9146 20.3638 14.9146Z" fill="#FFB140"/>
<path d="M8 20.1115C8 20.171 8 20.2107 8 20.2702C8 20.2702 8 35.9298 8 43.7099C8 44.8611 8.13827 45 9.3037 45H38.479C38.5383 45 38.5778 45 38.637 45C38.6963 45 38.7556 45 38.8148 45C38.9136 45 38.9728 44.9802 39.0519 44.9603C39.2494 44.8809 39.4469 44.7817 39.6444 44.7023C39.7235 44.6626 39.8025 44.6229 39.8815 44.5832L40 44.5237L39.9407 44.4244C39.9012 44.345 39.8617 44.2458 39.8222 44.1664C39.7432 43.9481 39.6642 43.7298 39.4864 43.5908C37.3926 41.8641 35.2395 40.1374 33.1654 38.4702L31.8617 37.4183C24.4741 31.4641 17.0667 25.5099 9.67901 19.5557C9.63951 19.516 9.6 19.4763 9.56049 19.4565C9.42222 19.3573 9.3037 19.2382 9.14568 19.1389C8.98765 19.0397 8.82963 19 8.67161 19C8.31605 19 8.07901 19.258 8.01975 19.7145C8 19.8534 8 19.9924 8 20.1115ZM9.46173 43.6107V21.0641L37.4123 43.5908H9.46173V43.6107Z" fill="#185494"/>
<path d="M21.8031 12.1056C21.8031 13.336 22.8013 14.3343 24.055 14.3343H24.0782C24.6818 14.3343 25.2389 14.1021 25.6336 13.6843C26.0515 13.2664 26.2604 12.7092 26.2604 12.0824C26.2604 10.852 25.2621 9.83057 24.055 9.83057C22.8478 9.877 21.8031 10.8985 21.8031 12.1056ZM23.4978 11.5021C23.6371 11.3395 23.846 11.2699 24.055 11.2699H24.1014C24.6121 11.2931 24.9139 11.5717 24.9603 12.1289C24.9836 12.3378 24.8907 12.5467 24.7282 12.7325C24.5657 12.9182 24.3335 13.0342 24.1246 13.0342H24.0782C23.5907 13.011 23.2889 12.7325 23.2192 12.2681C23.2192 11.9431 23.3121 11.6878 23.4978 11.5021Z" fill="#FFB140"/>
<path d="M50.0284 50.3304H2.66968V3.31985C2.66968 2.87877 3.04112 2.50732 3.48221 2.50732C3.92329 2.50732 4.29473 2.87877 4.29473 3.31985V48.7053H50.0284C50.4695 48.7053 50.8409 49.0767 50.8409 49.5178C50.8409 49.9589 50.4695 50.3304 50.0284 50.3304Z" fill="#185494"/>
<path d="M3.48226 0L6.96452 6.03592H0L3.48226 0Z" fill="#185494"/>
<path d="M56.018 49.5179L49.9821 53.0002V46.0356L56.018 49.5179Z" fill="#185494"/>
</g>
<defs>
<clipPath id="clip0_518_895">
<rect width="56.018" height="53" fill="white"/>
</clipPath>
</defs>
</svg>
