<svg width="13" height="14" viewBox="0 0 13 14" fill="none" xmlns="http://www.w3.org/2000/svg">
<path fill-rule="evenodd" clip-rule="evenodd" d="M2.99184 1.18762L4.99979 3.31821C5.24862 3.58242 5.2488 3.99642 5.00018 4.26084L4.02954 5.29322C4.63901 7.15653 6.002 8.6472 7.72944 9.35209L7.92286 9.42715L8.84293 8.44857C9.10135 8.17371 9.53215 8.16182 9.80515 8.42201L11.8131 10.5526C12.0619 10.8168 12.0621 11.2308 11.8135 11.4952L11.3142 12.0263C10.4022 12.9963 9.01336 13.2696 7.79356 12.7193C6.0693 11.9413 4.67798 10.9904 3.6196 9.86665C2.56121 8.74285 1.66526 7.2651 0.931748 5.43339C0.433586 4.18941 0.649656 2.77923 1.47459 1.81025L1.58087 1.69147L2.02962 1.21418C2.28804 0.939326 2.71884 0.927432 2.99184 1.18762Z" stroke="white" stroke-linecap="round" stroke-linejoin="round"/>
</svg>
