<svg width="38" height="25" viewBox="0 0 38 25" fill="none" xmlns="http://www.w3.org/2000/svg">
<path d="M38 23.4088C37.8315 23.731 37.7026 24.0824 37.4746 24.3557C37.0681 24.8536 36.4832 25 35.8487 25C31.8435 25 27.8382 25 23.833 25C16.6256 25 9.41821 25 2.20089 25C1.65562 25 1.1401 24.9024 0.713801 24.5412C0.218106 24.1312 0 23.5943 0 22.9598C0.00991391 20.5193 0 18.0789 0 15.6384C0 11.1578 0 6.68684 0 2.20617C0 0.761421 0.773285 0 2.24054 0C13.354 0 24.4675 0 35.5909 0C36.9987 0 37.4746 0.312378 38 1.59118C38 8.86372 38 16.1363 38 23.4088ZM35.472 23.5455C35.3728 23.4186 35.3133 23.3307 35.2439 23.2429C32.7952 20.2558 30.3465 17.2686 27.8878 14.2815C27.6499 13.9887 27.3921 13.7056 27.174 13.3932C26.9658 13.1004 26.9857 12.7977 27.2137 12.5146C27.4219 12.2608 27.7986 12.1827 28.0861 12.3487C28.2348 12.4365 28.3736 12.583 28.4827 12.7196C31.0801 15.8727 33.6676 19.0355 36.2552 22.1886C36.3146 22.2667 36.3939 22.335 36.4931 22.4424C36.4931 15.736 36.4931 9.08825 36.4931 2.39164C36.3444 2.49902 36.2353 2.56736 36.1263 2.64545C31.1495 6.33542 26.1727 10.0254 21.186 13.7153C19.808 14.7306 18.2019 14.7306 16.8338 13.7153C11.8372 10.0156 6.8406 6.32565 1.84399 2.62593C1.74485 2.54783 1.62588 2.4795 1.497 2.39164C1.497 9.08825 1.497 15.7458 1.497 22.4619C1.62588 22.3155 1.71511 22.2179 1.79442 22.1203C4.05479 19.3577 6.32507 16.6048 8.58544 13.8422C8.94234 13.403 9.29924 12.9637 9.65614 12.5342C9.86434 12.2804 10.1518 12.2023 10.4592 12.2999C10.7566 12.3975 10.9648 12.622 10.935 12.9246C10.9152 13.1492 10.8062 13.3932 10.6574 13.5787C8.05009 16.7708 5.43282 19.9531 2.82546 23.1453C2.72632 23.2624 2.6371 23.3893 2.51813 23.5455C13.5226 23.5455 24.4675 23.5455 35.472 23.5455ZM2.71641 1.45451C2.87503 1.58141 2.96426 1.65951 3.0634 1.72784C7.95095 5.33971 12.8286 8.96134 17.7161 12.5732C18.539 13.1882 19.4511 13.1882 20.2839 12.5732C25.1813 8.95158 30.0887 5.32019 34.9862 1.68879C35.0655 1.63022 35.1349 1.56189 35.2538 1.45451C24.3981 1.45451 13.6019 1.45451 2.71641 1.45451Z" fill="white"/>
</svg>
