<svg width="25" height="25" viewBox="0 0 25 25" fill="none" xmlns="http://www.w3.org/2000/svg">
<g clip-path="url(#clip0_471_821)">
<path d="M18.0842 25C17.5819 24.9088 17.073 24.8436 16.5772 24.7262C14.881 24.3349 13.3152 23.6112 11.8473 22.6983C7.78935 20.1683 4.50125 16.8754 2.0417 12.7739C1.12834 11.2546 0.430272 9.6375 0.123644 7.87694C-0.137317 6.36416 -0.0459807 4.8905 0.789092 3.54073C1.01091 3.17558 1.29797 2.84303 1.59155 2.53004C2.16566 1.93014 2.75934 1.34981 3.3465 0.762956C4.50125 -0.37815 6.21707 -0.228176 7.15652 1.09551C8.01117 2.2953 8.87234 3.48857 9.74003 4.68184C10.5033 5.73818 10.4251 6.99013 9.51169 7.92258C8.89191 8.55508 8.26561 9.18758 7.62625 9.80052C7.37834 10.0353 7.33267 10.2765 7.45011 10.5895C7.93288 11.861 8.6701 12.976 9.56388 13.9867C10.9144 15.5191 12.5649 16.6406 14.4438 17.4427C14.7244 17.56 14.9397 17.5144 15.1484 17.2992C15.7943 16.6472 16.4402 15.9886 17.0991 15.3495C17.8755 14.5932 18.9519 14.4236 19.8914 14.8931C20.0349 14.9648 20.1719 15.0561 20.2959 15.1605C21.4572 16.1451 22.6054 17.1427 23.7797 18.1078C24.2233 18.4794 24.6474 18.8446 24.8366 19.4119C25.1236 20.2661 25.0388 21.0942 24.4386 21.7723C23.8123 22.4766 23.1338 23.1352 22.4227 23.7546C21.5942 24.4784 20.5764 24.8305 19.4869 24.9544C19.4217 24.9609 19.3629 24.9805 19.3042 25C18.8932 25 18.4887 25 18.0842 25ZM22.7685 22.0723C20.6677 20.5008 18.567 18.9294 16.4467 17.3449C16.2053 17.5926 15.99 17.8404 15.7552 18.0621C15.2854 18.5055 14.7374 18.6229 14.1307 18.3686C11.9778 17.4687 10.1119 16.1646 8.60485 14.378C7.68497 13.289 6.91514 12.1088 6.4715 10.7395C6.28231 10.1657 6.41279 9.64402 6.84337 9.21366C7.07171 8.98544 7.3131 8.76374 7.55449 8.529C6.11921 6.41632 4.69697 4.32973 3.26822 2.22357C2.88982 2.60829 2.531 2.9604 2.17871 3.32555C1.76117 3.74939 1.46107 4.24496 1.26534 4.80573C0.893476 5.86859 0.932621 6.95101 1.16096 8.03343C1.51978 9.76791 2.27657 11.3394 3.21602 12.8261C5.21237 16.0016 7.77631 18.649 10.8034 20.8399C12.5388 22.0984 14.3917 23.1352 16.4793 23.7024C17.4906 23.9763 18.5213 24.1067 19.5717 23.9633C20.883 23.7742 21.9138 23.096 22.7685 22.0723ZM23.4731 21.3811C24.2233 20.703 24.1777 19.6466 23.4013 19.0598C23.31 18.988 23.2186 18.9228 23.1338 18.8446C21.9921 17.8795 20.8569 16.9015 19.7087 15.9429C19.5652 15.819 19.3825 15.7212 19.1998 15.6691C18.4822 15.4539 17.621 15.8973 17.197 16.6798C19.2912 18.2512 21.3789 19.8096 23.4731 21.3811ZM8.25908 7.81825C8.53309 7.52482 8.82015 7.27052 9.02891 6.97057C9.37469 6.47501 9.40078 5.90771 9.04849 5.41215C8.13513 4.09499 7.20219 2.79739 6.24316 1.51283C5.68862 0.775998 4.55345 0.808601 3.98586 1.54543C5.40157 3.61898 6.81728 5.69905 8.25908 7.81825Z" fill="white"/>
<path d="M10.6862 18.2578C10.5557 18.4273 10.4709 18.5903 10.3404 18.6816C10.1642 18.8055 9.96199 18.7599 9.79889 18.6229C9.46616 18.336 9.13344 18.0491 8.80724 17.7557C7.28715 16.3733 5.9432 14.8279 4.73626 13.1652C4.52097 12.8718 4.54706 12.5914 4.78845 12.4153C5.02984 12.2393 5.31037 12.2979 5.51914 12.5914C6.9218 14.5215 8.51366 16.2755 10.3339 17.8144C10.4774 17.9187 10.5557 18.0817 10.6862 18.2578Z" fill="white"/>
<path d="M11.7225 19.8814C11.4485 19.888 11.2398 19.6858 11.2267 19.4185C11.2202 19.1381 11.4355 18.9164 11.7095 18.9164C11.9704 18.9164 12.1923 19.1316 12.1923 19.3989C12.1923 19.6663 11.99 19.8814 11.7225 19.8814Z" fill="white"/>
</g>
<defs>
<clipPath id="clip0_471_821">
<rect width="25" height="25" fill="white"/>
</clipPath>
</defs>
</svg>
