<svg width="77" height="77" viewBox="0 0 77 77" fill="none" xmlns="http://www.w3.org/2000/svg">
<path d="M75.6764 77H1.30829C0.0442463 77 0 76.9621 0 75.7043V75.1237C0 74.0285 0 72.934 0 71.8402C0 70.7884 0.0863818 70.6938 1.13765 70.6875H2.45858V46.7078H1.82656H1.45788H1.0892C0.924871 46.7078 0.790039 46.7078 0.667848 46.6952C0.246499 46.6678 0.0358188 46.4596 0.00421761 46.0199C0.00421761 45.8958 0.00421761 45.7633 0.00421761 45.6224C0.00421761 45.5593 0.00421761 45.4983 0.00421761 45.4352V1.26209C0.00421761 0.0462765 0.050566 0 1.26827 0H75.727C76.9405 0 76.991 0.0589 76.991 1.25157V45.2732C76.991 46.6846 76.9911 46.6846 75.5753 46.7099C75.4805 46.7099 75.3878 46.7099 75.2719 46.7246H75.0971L74.5009 46.7604V70.6853H75.1329H75.529H75.8829C76.0198 70.6853 76.1526 70.6853 76.2874 70.6853C76.892 70.7169 76.9784 71.045 76.9826 71.3606C77.0058 73.0034 77.0058 74.6693 76.9826 76.3122C76.9826 76.6256 76.8899 76.9432 76.2811 76.9895H76.0535H75.6891L75.6764 77ZM1.30829 75.6979H75.6701V71.9769H1.32304L1.30829 75.6979ZM3.81533 70.6307H37.8119V46.7498H34.0619V52.3746C34.0619 56.0066 34.0619 59.6379 34.0619 63.2685C34.0619 64.2613 33.9481 64.3749 32.96 64.3749H8.66927C7.67699 64.3749 7.56322 64.2613 7.56322 63.2727C7.56322 59.6182 7.56322 55.9638 7.56322 52.3093V46.7393H3.82164L3.81533 70.6307ZM39.1665 70.6307H73.1441V46.7583H69.4026V63.2138C69.4026 64.276 69.3056 64.3749 68.2733 64.3749H44.0626C42.9903 64.3749 42.9039 64.2845 42.9018 63.1675V46.7498H39.1707L39.1665 70.6307ZM44.2227 63.0771H68.1069V46.7709H61.8267V47.4019C61.8267 47.627 61.8267 47.85 61.8267 48.0666C61.8267 48.5567 61.8267 49.0174 61.8119 49.4718C61.7656 50.3131 62.2333 50.6812 62.6546 50.9C63.141 51.1378 63.5534 51.5033 63.8477 51.9572C64.142 52.4111 64.3071 52.9364 64.3253 53.4768C64.3762 54.2385 64.1478 54.9926 63.6825 55.5984C63.2173 56.2042 62.5471 56.6202 61.7972 56.7687C61.5963 56.8107 61.3915 56.8319 61.1862 56.8318C60.5517 56.8257 59.9335 56.6298 59.4116 56.2695C58.8896 55.9092 58.4877 55.4009 58.2579 54.8104C57.9728 54.0961 57.9601 53.3021 58.2222 52.579C58.4843 51.856 59.003 51.2541 59.6799 50.8874C60.2277 50.5719 60.51 50.2311 60.5395 49.8483C60.5858 49.2341 60.5795 48.622 60.5711 48.0309C60.5711 47.8205 60.5711 47.6102 60.5711 47.3893V46.7583H44.2269L44.2227 63.0771ZM8.86941 63.0623H32.7641V46.7562H16.3905V47.3872C16.3905 47.5976 16.3905 47.8247 16.3905 48.0372C16.3905 48.521 16.401 48.9795 16.3779 49.4318C16.3336 50.3026 16.8203 50.6813 17.25 50.9042C17.6514 51.1151 18.0018 51.4109 18.2769 51.7709C18.552 52.1309 18.7451 52.5466 18.8427 52.9888C18.9378 53.426 18.938 53.8784 18.8431 54.3157C18.7483 54.7529 18.5606 55.1647 18.2929 55.5235C18.0014 55.9204 17.621 56.2437 17.182 56.4676C16.743 56.6915 16.2577 56.8097 15.7648 56.8129C15.5219 56.813 15.2799 56.7833 15.0443 56.7246C14.418 56.5805 13.8506 56.2493 13.4177 55.775C12.9848 55.3007 12.7071 54.7059 12.6215 54.07C12.5473 53.4474 12.6574 52.8168 12.9382 52.256C13.219 51.6953 13.6582 51.229 14.2016 50.9147C14.5618 50.7044 15.0443 50.4162 15.0906 49.8988C15.1391 49.2677 15.1328 48.6367 15.1264 48.0267C15.1264 47.8163 15.1264 47.606 15.1264 47.3956V46.7646H8.86941V63.0623ZM61.1926 51.7645C60.6969 51.7678 60.2223 51.9647 59.8703 52.313C59.5183 52.6613 59.3168 53.1334 59.3091 53.6282C59.3039 54.1232 59.4931 54.6005 59.8361 54.9579C60.1791 55.3153 60.6486 55.5244 61.1441 55.5403H61.1989C61.6861 55.5372 62.1537 55.3485 62.5061 55.0126C62.8585 54.6768 63.0692 54.2192 63.095 53.7334C63.1045 53.4796 63.0628 53.2264 62.9723 52.9889C62.8819 52.7515 62.7444 52.5347 62.5683 52.3514C62.3922 52.1665 62.1805 52.0189 61.9459 51.9177C61.7113 51.8165 61.4586 51.7637 61.2031 51.7624L61.1926 51.7645ZM15.7521 51.7645C15.2565 51.7683 14.7821 51.9657 14.4305 52.3145C14.0789 52.6632 13.878 53.1355 13.8708 53.6303C13.8662 54.1253 14.0559 54.6024 14.3992 54.9594C14.7426 55.3164 15.2124 55.5249 15.7079 55.5403H15.7606C16.2483 55.5377 16.7164 55.3488 17.069 55.0124C17.4216 54.676 17.6319 54.2176 17.6567 53.7313C17.6662 53.4774 17.6245 53.2243 17.534 52.9868C17.4435 52.7494 17.3061 52.5326 17.13 52.3493C16.9537 52.1647 16.742 52.0176 16.5074 51.9168C16.2728 51.8159 16.0202 51.7634 15.7648 51.7624L15.7521 51.7645ZM16.4284 45.3952H60.5058V41.6994H16.4326L16.4284 45.3952ZM61.8667 45.3952H75.6533V41.6994H61.8709L61.8667 45.3952ZM1.29776 45.3952H15.1117V41.7183H1.30198L1.29776 45.3952ZM16.4663 40.3637H60.5437V36.6721H16.46L16.4663 40.3637ZM61.8899 40.349H75.6912V36.6595H61.892L61.8899 40.349ZM1.28934 40.349H15.0759V36.6595H1.28934V40.349ZM16.4411 35.3006H60.5226V31.6048H16.4347L16.4411 35.3006ZM61.8751 35.3006H75.6596V31.6111H61.8751V35.3006ZM1.31251 35.3006H15.097V31.609H1.31251V35.3006ZM16.4642 30.2733H60.5416V26.5796H16.4579L16.4642 30.2733ZM1.27248 30.2733H15.0864V26.5922H1.27248V30.2733ZM61.8583 30.2544H75.6722V26.5922H61.8583V30.2544ZM16.4411 25.2334H60.5226V21.5417H16.4347L16.4411 25.2334ZM61.9025 25.2334H75.6912V21.5396H61.9046L61.9025 25.2334ZM1.29144 25.2165H15.0759V21.527H1.29144V25.2165ZM61.9046 20.1808H75.6912V16.4913H61.9046V20.1808ZM1.29776 20.1808H15.0843V16.4724H1.29776V20.1808ZM16.4389 20.1808H60.5163V16.4892H16.4326L16.4389 20.1808ZM1.30408 15.1577H15.078V11.4387H1.30408V15.1577ZM16.4727 15.1451H60.55V11.4535H16.46L16.4727 15.1451ZM61.8815 15.1324H75.668V11.4387H61.8815V15.1324ZM61.9067 10.0988H75.6849V6.40089H61.9067V10.0988ZM1.32304 10.0988H15.1096V6.35882H1.32304V10.0988ZM16.4453 10.0988H60.55V6.40931H16.4326L16.4453 10.0988ZM1.32304 5.0757H15.0801V1.35675H1.32304V5.0757ZM16.4706 5.05046H60.5479V1.31046H16.4579L16.4706 5.05046ZM61.8815 5.03573H75.668V1.34623H61.8815V5.03573Z" fill="#425363"/>
<path d="M0.672131 46.9209C0.796443 46.9209 0.931291 46.9209 1.09353 46.9209H1.46436H1.83308H2.46518V46.9822H3.83683V46.9632H7.57885V46.9822H8.8894V46.9695H15.1493V47.6035C15.1493 47.8149 15.1493 48.0262 15.1493 48.2375C15.1493 48.8504 15.164 49.4844 15.1156 50.1206C15.0755 50.6383 14.5846 50.9279 14.2264 51.1392C13.6808 51.4559 13.24 51.9264 12.9587 52.4922C12.6773 53.058 12.5679 53.6943 12.6441 54.3219C12.7302 54.9608 13.0084 55.5581 13.4417 56.0342C13.875 56.5104 14.4428 56.8427 15.0692 56.9869C15.3049 57.0459 15.5469 57.0757 15.7898 57.0756C16.2828 57.0725 16.7682 56.9536 17.2072 56.7287C17.6462 56.5037 18.0267 56.1789 18.3182 55.7801C18.5849 55.4212 18.7719 55.0092 18.8668 54.5718C18.9616 54.1344 18.9621 53.6817 18.8681 53.2441C18.77 52.8 18.5768 52.3826 18.3017 52.0209C18.0266 51.6593 17.6764 51.362 17.2752 51.1498C16.8538 50.9152 16.3566 50.5327 16.4029 49.6577C16.4261 49.2055 16.4219 48.7448 16.4156 48.2587C16.4156 48.0473 16.4156 47.8254 16.4156 47.6035V46.9695H32.789V46.9822H34.0869H37.8395H39.1943H42.9215H60.5929V47.6162C60.5929 47.8275 60.5929 48.0389 60.5929 48.2502C60.5929 48.8462 60.6076 49.4612 60.5591 50.0783C60.5297 50.4629 60.2494 50.8032 59.6995 51.1223C59.0265 51.4918 58.5114 52.0955 58.2514 52.8195C57.9914 53.5436 58.0043 54.338 58.2878 55.0531C58.5176 55.6467 58.9195 56.1576 59.4415 56.52C59.9635 56.8824 60.5817 57.0796 61.2165 57.0862C61.4212 57.0856 61.6253 57.0637 61.8255 57.0207C62.5755 56.8723 63.246 56.4549 63.7114 55.8465C64.1768 55.2381 64.4052 54.4805 64.3538 53.7154C64.3366 53.1722 64.1718 52.6441 63.8774 52.1879C63.583 51.7317 63.17 51.3647 62.683 51.1265C62.2616 50.9046 61.7875 50.5432 61.8402 49.6915C61.8634 49.2351 61.8592 48.7701 61.8528 48.2798C61.8528 48.0685 61.8528 47.8381 61.8528 47.6099V46.9759H65.5V46.9611H74.8256L75.1037 46.9442H75.2807C75.3966 46.9442 75.4914 46.9294 75.5841 46.9273C77 46.9019 77 46.9019 77 45.4838V1.25745C77 0.0570635 76.941 0 75.7253 0H1.26419C0.0526748 0 0 0.046494 0 1.26802V45.8389C0 45.9805 0 46.1136 0 46.2362C0.0421398 46.6842 0.246519 46.8956 0.672131 46.9209ZM75.681 45.6043H61.895V41.8932H75.681V45.6043ZM61.8908 35.4601V31.7533H75.6789V35.4601H61.8908ZM75.7084 40.5322H61.9076V36.8233H75.7084V40.5322ZM61.9203 21.6176H75.7063V25.3266H61.9203V21.6176ZM61.8929 15.1655V11.4544H75.681V15.1634L61.8929 15.1655ZM75.7084 20.2524H61.9224V16.5455H75.7084V20.2524ZM75.7084 10.1082H61.9287V6.39293H75.7084V10.1082ZM61.8844 1.30817H75.6726V5.01714H61.8844V1.30817ZM61.8844 26.6918H75.7V30.3733H61.8844V26.6918ZM61.2313 52.0057C61.4867 52.0067 61.7393 52.0594 61.9739 52.1607C62.2086 52.262 62.4204 52.4099 62.5966 52.5953C62.7731 52.7797 62.9106 52.9979 63.0011 53.2368C63.0916 53.4757 63.1332 53.7305 63.1234 53.9859C63.0971 54.4736 62.8862 54.9328 62.5338 55.2698C62.1813 55.6068 61.714 55.7961 61.2271 55.7992H61.1723C60.6771 55.7826 60.208 55.5723 59.8654 55.2133C59.5229 54.8543 59.334 54.3751 59.3392 53.8781C59.3469 53.381 59.5484 52.9067 59.9004 52.5567C60.2525 52.2067 60.7272 52.0089 61.2229 52.0057H61.2313ZM60.5423 45.6043H16.4514V41.8932H60.5339L60.5423 45.6043ZM16.4851 15.1719V11.4629H60.5676V15.1719H16.4851ZM60.5676 26.6812V30.3923H16.4767V26.6812H60.5676ZM60.5507 25.3223H16.4535V21.6197H60.5423L60.5507 25.3223ZM60.5507 31.7385V35.4538H16.4514V31.7385H60.5507ZM60.5781 40.5364H16.4788V36.8359H60.5613L60.5781 40.5364ZM16.4767 1.32085H60.5591V5.03192H16.4767V1.32085ZM16.4514 6.39293H60.5613V10.0998H16.4514V6.39293ZM16.4514 16.5244H60.5339V20.2334H16.4493L16.4514 16.5244ZM15.7814 52.0014C16.0364 52.0027 16.2887 52.0556 16.5229 52.1569C16.7571 52.2582 16.9686 52.4059 17.1446 52.5911C17.3212 52.7751 17.459 52.9928 17.5498 53.2314C17.6407 53.4699 17.6827 53.7244 17.6734 53.9796C17.6477 54.4676 17.437 54.9273 17.0845 55.2648C16.7321 55.6022 16.2644 55.7918 15.7772 55.7949H15.7413C15.2458 55.7795 14.776 55.57 14.4325 55.2113C14.0891 54.8526 13.8994 54.3733 13.904 53.876C13.9112 53.3789 14.1121 52.9043 14.4638 52.554C14.8154 52.2036 15.2899 52.0053 15.7856 52.0014H15.7814ZM15.0903 36.819V40.5238H1.30212V36.819H15.0903ZM1.32529 35.4454V31.7364H15.1092V35.4454H1.32529ZM15.1366 45.5895H1.32108V41.9101H15.1366V45.5895ZM15.1177 10.085H1.32951V6.37391H15.1092L15.1177 10.085ZM1.32951 1.29972H15.0882V5.05095H1.32951V1.29972ZM1.31476 11.4333H15.0924V15.1951H1.31476V11.4333ZM1.31476 16.5054H15.105V20.2312H1.31476V16.5054ZM1.31476 21.588H15.1029V25.2949H1.31476V21.588ZM1.2958 26.6791H15.1113V30.3775H1.2958V26.6791Z" fill="#0081C9"/>
<path d="M75.6764 77H1.30829C0.0442463 77 0 76.9621 0 75.7043V75.1237C0 74.0285 0 72.934 0 71.8402C0 70.7884 0.0863818 70.6938 1.13765 70.6875H2.45858V46.7078H1.82656H1.45788H1.0892C0.924871 46.7078 0.790039 46.7078 0.667848 46.6952C0.246499 46.6678 0.0358188 46.4596 0.00421761 46.0199C0.00421761 45.8958 0.00421761 45.7633 0.00421761 45.6224C0.00421761 45.5593 0.00421761 45.4983 0.00421761 45.4352V1.26209C0.00421761 0.0462765 0.050566 0 1.26827 0H75.727C76.9405 0 76.991 0.0589 76.991 1.25157V45.2732C76.991 46.6846 76.9911 46.6846 75.5753 46.7099C75.4805 46.7099 75.3878 46.7099 75.2719 46.7246H75.0971L74.5009 46.7604V70.6853H75.1329H75.529H75.8829C76.0198 70.6853 76.1526 70.6853 76.2874 70.6853C76.892 70.7169 76.9784 71.045 76.9826 71.3606C77.0058 73.0034 77.0058 74.6693 76.9826 76.3122C76.9826 76.6256 76.8899 76.9432 76.2811 76.9895H76.0535H75.6891L75.6764 77ZM1.30829 75.6979H75.6701V71.9769H1.32304L1.30829 75.6979ZM3.81533 70.6307H37.8119V46.7498H34.0619V52.3746C34.0619 56.0066 34.0619 59.6379 34.0619 63.2685C34.0619 64.2613 33.9481 64.3749 32.96 64.3749H8.66927C7.67699 64.3749 7.56322 64.2613 7.56322 63.2727C7.56322 59.6182 7.56322 55.9638 7.56322 52.3093V46.7393H3.82164L3.81533 70.6307ZM39.1665 70.6307H73.1441V46.7583H69.4026V63.2138C69.4026 64.276 69.3056 64.3749 68.2733 64.3749H44.0626C42.9903 64.3749 42.9039 64.2845 42.9018 63.1675V46.7498H39.1707L39.1665 70.6307ZM44.2227 63.0771H68.1069V46.7709H61.8267V47.4019C61.8267 47.627 61.8267 47.85 61.8267 48.0666C61.8267 48.5567 61.8267 49.0174 61.8119 49.4718C61.7656 50.3131 62.2333 50.6812 62.6546 50.9C63.141 51.1378 63.5534 51.5033 63.8477 51.9572C64.142 52.4111 64.3071 52.9364 64.3253 53.4768C64.3762 54.2385 64.1478 54.9926 63.6825 55.5984C63.2173 56.2042 62.5471 56.6202 61.7972 56.7687C61.5963 56.8107 61.3915 56.8319 61.1862 56.8318C60.5517 56.8257 59.9335 56.6298 59.4116 56.2695C58.8896 55.9092 58.4877 55.4009 58.2579 54.8104C57.9728 54.0961 57.9601 53.3021 58.2222 52.579C58.4843 51.856 59.003 51.2541 59.6799 50.8874C60.2277 50.5719 60.51 50.2311 60.5395 49.8483C60.5858 49.2341 60.5795 48.622 60.5711 48.0309C60.5711 47.8205 60.5711 47.6102 60.5711 47.3893V46.7583H44.2269L44.2227 63.0771ZM8.86941 63.0623H32.7641V46.7562H16.3905V47.3872C16.3905 47.5976 16.3905 47.8247 16.3905 48.0372C16.3905 48.521 16.401 48.9795 16.3779 49.4318C16.3336 50.3026 16.8203 50.6813 17.25 50.9042C17.6514 51.1151 18.0018 51.4109 18.2769 51.7709C18.552 52.1309 18.7451 52.5466 18.8427 52.9888C18.9378 53.426 18.938 53.8784 18.8431 54.3157C18.7483 54.7529 18.5606 55.1647 18.2929 55.5235C18.0014 55.9204 17.621 56.2437 17.182 56.4676C16.743 56.6915 16.2577 56.8097 15.7648 56.8129C15.5219 56.813 15.2799 56.7833 15.0443 56.7246C14.418 56.5805 13.8506 56.2493 13.4177 55.775C12.9848 55.3007 12.7071 54.7059 12.6215 54.07C12.5473 53.4474 12.6574 52.8168 12.9382 52.256C13.219 51.6953 13.6582 51.229 14.2016 50.9147C14.5618 50.7044 15.0443 50.4162 15.0906 49.8988C15.1391 49.2677 15.1328 48.6367 15.1264 48.0267C15.1264 47.8163 15.1264 47.606 15.1264 47.3956V46.7646H8.86941V63.0623ZM61.1926 51.7645C60.6969 51.7678 60.2223 51.9647 59.8703 52.313C59.5183 52.6613 59.3168 53.1334 59.3091 53.6282C59.3039 54.1232 59.4931 54.6005 59.8361 54.9579C60.1791 55.3153 60.6486 55.5244 61.1441 55.5403H61.1989C61.6861 55.5372 62.1537 55.3485 62.5061 55.0126C62.8585 54.6768 63.0692 54.2192 63.095 53.7334C63.1045 53.4796 63.0628 53.2264 62.9723 52.9889C62.8819 52.7515 62.7444 52.5347 62.5683 52.3514C62.3922 52.1665 62.1805 52.0189 61.9459 51.9177C61.7113 51.8165 61.4586 51.7637 61.2031 51.7624L61.1926 51.7645ZM15.7521 51.7645C15.2565 51.7683 14.7821 51.9657 14.4305 52.3145C14.0789 52.6632 13.878 53.1355 13.8708 53.6303C13.8662 54.1253 14.0559 54.6024 14.3992 54.9594C14.7426 55.3164 15.2124 55.5249 15.7079 55.5403H15.7606C16.2483 55.5377 16.7164 55.3488 17.069 55.0124C17.4216 54.676 17.6319 54.2176 17.6567 53.7313C17.6662 53.4774 17.6245 53.2243 17.534 52.9868C17.4435 52.7494 17.3061 52.5326 17.13 52.3493C16.9537 52.1647 16.742 52.0176 16.5074 51.9168C16.2728 51.8159 16.0202 51.7634 15.7648 51.7624L15.7521 51.7645ZM16.4284 45.3952H60.5058V41.6994H16.4326L16.4284 45.3952ZM61.8667 45.3952H75.6533V41.6994H61.8709L61.8667 45.3952ZM1.29776 45.3952H15.1117V41.7183H1.30198L1.29776 45.3952ZM16.4663 40.3637H60.5437V36.6721H16.46L16.4663 40.3637ZM61.8899 40.349H75.6912V36.6595H61.892L61.8899 40.349ZM1.28934 40.349H15.0759V36.6595H1.28934V40.349ZM16.4411 35.3006H60.5226V31.6048H16.4347L16.4411 35.3006ZM61.8751 35.3006H75.6596V31.6111H61.8751V35.3006ZM1.31251 35.3006H15.097V31.609H1.31251V35.3006ZM16.4642 30.2733H60.5416V26.5796H16.4579L16.4642 30.2733ZM1.27248 30.2733H15.0864V26.5922H1.27248V30.2733ZM61.8583 30.2544H75.6722V26.5922H61.8583V30.2544ZM16.4411 25.2334H60.5226V21.5417H16.4347L16.4411 25.2334ZM61.9025 25.2334H75.6912V21.5396H61.9046L61.9025 25.2334ZM1.29144 25.2165H15.0759V21.527H1.29144V25.2165ZM61.9046 20.1808H75.6912V16.4913H61.9046V20.1808ZM1.29776 20.1808H15.0843V16.4724H1.29776V20.1808ZM16.4389 20.1808H60.5163V16.4892H16.4326L16.4389 20.1808ZM1.30408 15.1577H15.078V11.4387H1.30408V15.1577ZM16.4727 15.1451H60.55V11.4535H16.46L16.4727 15.1451ZM61.8815 15.1324H75.668V11.4387H61.8815V15.1324ZM61.9067 10.0988H75.6849V6.40089H61.9067V10.0988ZM1.32304 10.0988H15.1096V6.35882H1.32304V10.0988ZM16.4453 10.0988H60.55V6.40931H16.4326L16.4453 10.0988ZM1.32304 5.0757H15.0801V1.35675H1.32304V5.0757ZM16.4706 5.05046H60.5479V1.31046H16.4579L16.4706 5.05046ZM61.8815 5.03573H75.668V1.34623H61.8815V5.03573Z" fill="#185494"/>
<path d="M0.672131 46.9209C0.796443 46.9209 0.931291 46.9209 1.09353 46.9209H1.46436H1.83308H2.46518V46.9822H3.83683V46.9632H7.57885V46.9822H8.8894V46.9695H15.1493V47.6035C15.1493 47.8149 15.1493 48.0262 15.1493 48.2375C15.1493 48.8504 15.164 49.4844 15.1156 50.1206C15.0755 50.6383 14.5846 50.9279 14.2264 51.1392C13.6808 51.4559 13.24 51.9264 12.9587 52.4922C12.6773 53.058 12.5679 53.6943 12.6441 54.3219C12.7302 54.9608 13.0084 55.5581 13.4417 56.0342C13.875 56.5104 14.4428 56.8427 15.0692 56.9869C15.3049 57.0459 15.5469 57.0757 15.7898 57.0756C16.2828 57.0725 16.7682 56.9536 17.2072 56.7287C17.6462 56.5037 18.0267 56.1789 18.3182 55.7801C18.5849 55.4212 18.7719 55.0092 18.8668 54.5718C18.9616 54.1344 18.9621 53.6817 18.8681 53.2441C18.77 52.8 18.5768 52.3826 18.3017 52.0209C18.0266 51.6593 17.6764 51.362 17.2752 51.1498C16.8538 50.9152 16.3566 50.5327 16.4029 49.6577C16.4261 49.2055 16.4219 48.7448 16.4156 48.2587C16.4156 48.0473 16.4156 47.8254 16.4156 47.6035V46.9695H32.789V46.9822H34.0869H37.8395H39.1943H42.9215H60.5929V47.6162C60.5929 47.8275 60.5929 48.0389 60.5929 48.2502C60.5929 48.8462 60.6076 49.4612 60.5591 50.0783C60.5297 50.4629 60.2494 50.8032 59.6995 51.1223C59.0265 51.4918 58.5114 52.0955 58.2514 52.8195C57.9914 53.5436 58.0043 54.338 58.2878 55.0531C58.5176 55.6467 58.9195 56.1576 59.4415 56.52C59.9635 56.8824 60.5817 57.0796 61.2165 57.0862C61.4212 57.0856 61.6253 57.0637 61.8255 57.0207C62.5755 56.8723 63.246 56.4549 63.7114 55.8465C64.1768 55.2381 64.4052 54.4805 64.3538 53.7154C64.3366 53.1722 64.1718 52.6441 63.8774 52.1879C63.583 51.7317 63.17 51.3647 62.683 51.1265C62.2616 50.9046 61.7875 50.5432 61.8402 49.6915C61.8634 49.2351 61.8592 48.7701 61.8528 48.2798C61.8528 48.0685 61.8528 47.8381 61.8528 47.6099V46.9759H65.5V46.9611H74.8256L75.1037 46.9442H75.2807C75.3966 46.9442 75.4914 46.9294 75.5841 46.9273C77 46.9019 77 46.9019 77 45.4838V1.25745C77 0.0570635 76.941 0 75.7253 0H1.26419C0.0526748 0 0 0.046494 0 1.26802V45.8389C0 45.9805 0 46.1136 0 46.2362C0.0421398 46.6842 0.246519 46.8956 0.672131 46.9209ZM75.681 45.6043H61.895V41.8932H75.681V45.6043ZM61.8908 35.4601V31.7533H75.6789V35.4601H61.8908ZM75.7084 40.5322H61.9076V36.8233H75.7084V40.5322ZM61.9203 21.6176H75.7063V25.3266H61.9203V21.6176ZM61.8929 15.1655V11.4544H75.681V15.1634L61.8929 15.1655ZM75.7084 20.2524H61.9224V16.5455H75.7084V20.2524ZM75.7084 10.1082H61.9287V6.39293H75.7084V10.1082ZM61.8844 1.30817H75.6726V5.01714H61.8844V1.30817ZM61.8844 26.6918H75.7V30.3733H61.8844V26.6918ZM61.2313 52.0057C61.4867 52.0067 61.7393 52.0594 61.9739 52.1607C62.2086 52.262 62.4204 52.4099 62.5966 52.5953C62.7731 52.7797 62.9106 52.9979 63.0011 53.2368C63.0916 53.4757 63.1332 53.7305 63.1234 53.9859C63.0971 54.4736 62.8862 54.9328 62.5338 55.2698C62.1813 55.6068 61.714 55.7961 61.2271 55.7992H61.1723C60.6771 55.7826 60.208 55.5723 59.8654 55.2133C59.5229 54.8543 59.334 54.3751 59.3392 53.8781C59.3469 53.381 59.5484 52.9067 59.9004 52.5567C60.2525 52.2067 60.7272 52.0089 61.2229 52.0057H61.2313ZM60.5423 45.6043H16.4514V41.8932H60.5339L60.5423 45.6043ZM16.4851 15.1719V11.4629H60.5676V15.1719H16.4851ZM60.5676 26.6812V30.3923H16.4767V26.6812H60.5676ZM60.5507 25.3223H16.4535V21.6197H60.5423L60.5507 25.3223ZM60.5507 31.7385V35.4538H16.4514V31.7385H60.5507ZM60.5781 40.5364H16.4788V36.8359H60.5613L60.5781 40.5364ZM16.4767 1.32085H60.5591V5.03192H16.4767V1.32085ZM16.4514 6.39293H60.5613V10.0998H16.4514V6.39293ZM16.4514 16.5244H60.5339V20.2334H16.4493L16.4514 16.5244ZM15.7814 52.0014C16.0364 52.0027 16.2887 52.0556 16.5229 52.1569C16.7571 52.2582 16.9686 52.4059 17.1446 52.5911C17.3212 52.7751 17.459 52.9928 17.5498 53.2314C17.6407 53.4699 17.6827 53.7244 17.6734 53.9796C17.6477 54.4676 17.437 54.9273 17.0845 55.2648C16.7321 55.6022 16.2644 55.7918 15.7772 55.7949H15.7413C15.2458 55.7795 14.776 55.57 14.4325 55.2113C14.0891 54.8526 13.8994 54.3733 13.904 53.876C13.9112 53.3789 14.1121 52.9043 14.4638 52.554C14.8154 52.2036 15.2899 52.0053 15.7856 52.0014H15.7814ZM15.0903 36.819V40.5238H1.30212V36.819H15.0903ZM1.32529 35.4454V31.7364H15.1092V35.4454H1.32529ZM15.1366 45.5895H1.32108V41.9101H15.1366V45.5895ZM15.1177 10.085H1.32951V6.37391H15.1092L15.1177 10.085ZM1.32951 1.29972H15.0882V5.05095H1.32951V1.29972ZM1.31476 11.4333H15.0924V15.1951H1.31476V11.4333ZM1.31476 16.5054H15.105V20.2312H1.31476V16.5054ZM1.31476 21.588H15.1029V25.2949H1.31476V21.588ZM1.2958 26.6791H15.1113V30.3775H1.2958V26.6791Z" fill="#FFB140"/>
</svg>
