<svg width="5" height="7" viewBox="0 0 5 7" fill="none" xmlns="http://www.w3.org/2000/svg">
<mask id="path-1-inside-1_46_489" fill="white">
<path d="M1.32673 6.23804L4.14282 3.49994L1.32673 0.761847L0.857108 1.21814L3.20424 3.49994L0.857108 5.78174L1.32673 6.23804Z"/>
</mask>
<path d="M1.32673 6.23804L0.629878 6.95525L1.32698 7.63256L2.02384 6.955L1.32673 6.23804ZM4.14282 3.49994L4.83993 4.21691L5.57732 3.49994L4.83993 2.78298L4.14282 3.49994ZM1.32673 0.761847L2.02384 0.0448817L1.32698 -0.63268L0.629879 0.0446349L1.32673 0.761847ZM0.857108 1.21814L0.160254 0.50093L-0.577702 1.21794L0.16005 1.93516L0.857108 1.21814ZM3.20424 3.49994L3.90129 4.21696L4.63884 3.49994L3.90129 2.78293L3.20424 3.49994ZM0.857108 5.78174L0.16005 5.06473L-0.577702 5.78194L0.160253 6.49895L0.857108 5.78174ZM2.02384 6.955L4.83993 4.21691L3.44571 2.78298L0.629624 5.52107L2.02384 6.955ZM4.83993 2.78298L2.02384 0.0448817L0.629625 1.47881L3.44571 4.21691L4.83993 2.78298ZM0.629879 0.0446349L0.160254 0.50093L1.55396 1.93535L2.02359 1.47906L0.629879 0.0446349ZM0.16005 1.93516L2.50718 4.21696L3.90129 2.78293L1.55417 0.501127L0.16005 1.93516ZM2.50718 2.78293L0.16005 5.06473L1.55417 6.49876L3.90129 4.21696L2.50718 2.78293ZM0.160253 6.49895L0.629878 6.95525L2.02359 5.52082L1.55396 5.06453L0.160253 6.49895Z" fill="#3E3E3E" mask="url(#path-1-inside-1_46_489)"/>
</svg>
