<svg width="43" height="55" viewBox="0 0 43 55" fill="none" xmlns="http://www.w3.org/2000/svg">
<g clip-path="url(#clip0_517_851)">
<path d="M42.841 18.5432C42.841 16.1827 42.841 13.7697 42.841 11.383C42.841 10.0453 42.3373 9.07489 41.3564 8.44542C40.9057 8.15692 40.3225 7.94709 39.5537 7.78972C33.5623 6.60947 28.2337 4.32764 23.6739 0.944231C22.9316 0.393444 22.2158 0.131165 21.5265 0.131165C20.8373 0.131165 20.1215 0.393444 19.2996 0.944231L18.8755 1.23274C17.762 1.99335 16.6221 2.78019 15.4556 3.43589C11.9297 5.48166 7.87363 6.9242 3.10174 7.86841C1.13997 8.2356 0.132568 9.46831 0.132568 11.4616C0.132568 13.9008 0.132568 16.34 0.132568 18.8055C0.132568 22.6347 0.132568 26.464 0.132568 30.3195C0.132568 35.8536 1.9883 40.8632 5.64675 45.2432C9.19915 49.4922 13.8385 52.5346 19.8033 54.5804C20.3601 54.764 20.9433 54.8689 21.5 54.8689C22.0567 54.8689 22.6135 54.764 23.1702 54.5804C28.3927 52.7969 32.5814 50.2265 35.9747 46.7382C40.349 42.227 42.6554 37.0339 42.8144 31.3162C42.8675 29.113 42.8675 26.8837 42.841 24.733V24.6805C42.841 23.8412 42.841 23.0282 42.8144 22.2151L42.8675 22.1889L42.841 18.5432ZM40.5876 24.3133V24.5232C40.5876 26.5165 40.6141 28.5885 40.5611 30.6343C40.4815 36.1421 38.3342 41.0992 34.172 45.3481C31.0703 48.5217 27.1733 50.856 22.2953 52.4821C22.0567 52.5608 21.7651 52.6133 21.447 52.6133C21.1554 52.6133 20.8903 52.587 20.6782 52.5084C15.0315 50.6462 10.6572 47.7873 7.31691 43.8007C4.02961 39.8665 2.35945 35.3028 2.35945 30.2933C2.38596 24.0248 2.38596 17.7826 2.38596 11.5403C2.38596 10.4912 2.62455 10.2027 3.65846 10.0191C7.5555 9.28472 11.0019 8.18314 14.1831 6.63569C16.357 5.6128 18.4513 4.32764 20.4396 2.85887C20.8903 2.51791 21.2084 2.36054 21.4735 2.36054C21.7386 2.36054 22.0567 2.51791 22.5074 2.85887C27.1998 6.39964 32.6344 8.7077 39.1295 9.96664C40.4285 10.2289 40.5876 10.4125 40.5876 11.7239V21.743C40.5876 22.6085 40.5876 23.474 40.5876 24.3133Z" fill="#FFB140"/>
<path d="M21.4735 13.5599C17.8946 13.5599 14.5013 14.95 11.9563 17.4941C9.41128 20.0382 8.00623 23.3691 8.00623 26.9099C8.03274 34.2537 14.0771 40.2075 21.4735 40.2337H21.5001C25.079 40.2337 28.4723 38.8436 31.0173 36.2995C33.5623 33.7554 34.9674 30.4244 34.9674 26.8837C34.9674 19.5661 28.8965 13.5861 21.4735 13.5599ZM21.5001 15.7892V15.8155C27.677 15.8417 32.714 20.825 32.714 26.9099C32.714 33.021 27.677 38.0043 21.4735 38.0043C18.4779 38.0043 15.6678 36.824 13.5469 34.7258C11.4261 32.6014 10.2596 29.8212 10.2861 26.8837C10.3126 20.7726 15.3496 15.8155 21.5001 15.7892Z" fill="#FFB140"/>
<path d="M42.9735 18.5432C42.9735 16.2089 42.9735 13.7697 42.9735 11.3829C42.9735 10.0191 42.4698 8.96996 41.4359 8.34049C40.9587 8.05198 40.3755 7.84216 39.5801 7.68479C33.6153 6.53076 28.2867 4.2227 23.7534 0.865522C22.9846 0.288507 22.2688 0 21.5265 0C20.7842 0 20.0684 0.262279 19.2201 0.839294L18.8224 1.1278C17.709 1.88841 16.569 2.64902 15.4026 3.33095C11.8767 5.37673 7.8471 6.81927 3.07522 7.73724C1.03391 8.13066 0 9.3896 0 11.4616C0 13.9008 0 16.34 0 18.8054C0 22.6347 0 26.464 0 30.2933C0 35.8536 1.85573 40.8894 5.54069 45.2957C9.11961 49.5446 13.7589 52.6133 19.7503 54.6853C20.3335 54.8951 20.9168 54.9738 21.5 54.9738C22.0832 54.9738 22.6399 54.8689 23.1967 54.6853C28.4457 52.9018 32.6344 50.3314 36.0543 46.8169C40.455 42.2794 42.7879 37.0601 42.947 31.2899C43 29.0868 43 26.8574 42.9735 24.7067V24.6543C42.9735 23.8674 42.9735 23.0544 42.947 22.2675L43 22.2413L42.9735 18.5432ZM40.455 30.6342C40.3755 36.1159 38.2546 41.0205 34.119 45.2432C31.0173 48.3906 27.1467 50.7248 22.2953 52.351C22.0567 52.4297 21.7916 52.4821 21.5 52.4821C21.2349 52.4821 20.9963 52.4559 20.7842 52.3772C15.164 50.515 10.8163 47.6824 7.47596 43.6958C4.21517 39.7878 2.54501 35.2504 2.54501 30.2933C2.54501 24.051 2.54501 17.8088 2.54501 11.5665C2.54501 10.5699 2.73058 10.36 3.71147 10.1764C7.60851 9.44206 11.0549 8.31426 14.2891 6.79304C16.463 5.74392 18.5838 4.48498 20.5721 2.98999C20.9963 2.67525 21.2879 2.51788 21.5265 2.51788C21.7651 2.51788 22.0567 2.67525 22.4809 2.98999C27.1998 6.53076 32.6344 8.86504 39.156 10.124C40.3755 10.36 40.508 10.4912 40.508 11.7501V21.7692C40.508 22.6347 40.508 23.474 40.508 24.3395V24.5494C40.4815 26.5165 40.4815 28.5885 40.455 30.6342Z" fill="#185494"/>
<path d="M21.4735 13.4287C17.8681 13.4287 14.4483 14.845 11.8502 17.4154C9.27871 19.9857 7.84714 23.3691 7.87365 26.9361C7.90016 34.3324 13.9976 40.3648 21.4735 40.391H21.5C25.1055 40.391 28.5253 38.9747 31.1234 36.4044C33.6949 33.8341 35.1264 30.4506 35.0999 26.8836C35.0999 19.4874 28.976 13.4549 21.4735 13.4287ZM21.4735 37.8732C18.5309 37.8732 15.7473 36.7191 13.6264 34.6209C11.5321 32.5227 10.3656 29.7687 10.3921 26.8574C10.4452 20.9037 15.3496 15.999 21.394 15.9204V15.9466H21.5C27.5975 15.9728 32.5814 20.8774 32.5814 26.9099C32.5814 32.9423 27.5975 37.8732 21.4735 37.8732Z" fill="#FFB140"/>
<path d="M28.2072 22.4511L27.9951 22.2413C27.2263 21.4807 26.5635 21.1397 25.8743 21.1397C25.185 21.1397 24.5222 21.4807 23.7269 22.2675L20.3336 25.6509L20.1745 25.4935C19.7503 25.0214 19.3262 24.6018 18.902 24.1559C18.3983 23.6576 17.7886 23.3953 17.1258 23.3953C16.5161 23.3953 15.9328 23.6314 15.4556 24.051C14.9785 24.4707 14.5543 24.8903 14.1036 25.3886C13.0697 26.4378 13.0962 27.9065 14.1301 28.9556C15.7208 30.5555 17.1523 31.9719 18.5309 33.3095C19.0876 33.8603 19.7503 34.1488 20.4131 34.1488C21.0494 34.1488 21.6856 33.8603 22.2423 33.3357C24.3367 31.2899 26.537 29.0868 29.0025 26.6214C29.9039 25.7034 29.9304 24.2871 29.0555 23.2904C28.7639 22.9757 28.4723 22.7134 28.2072 22.4511ZM26.9877 25.0477C25.6357 26.3853 24.3102 27.6967 22.9581 29.0343L20.4131 31.526C20.3866 31.5522 20.3601 31.5784 20.3601 31.5784C20.3336 31.5522 20.3071 31.5522 20.2806 31.4997C19.4587 30.6867 18.6634 29.8736 17.8416 29.0868L17.4704 28.7196C16.9933 28.2475 16.5161 27.7754 16.0389 27.3033C15.9859 27.2508 15.9328 27.1984 15.9063 27.1459C15.9328 27.1197 15.9593 27.0672 16.0389 26.9885C16.251 26.7787 16.4365 26.5689 16.6486 26.3591C16.7812 26.2279 16.9137 26.0968 17.0463 25.9657C17.0993 25.9132 17.1258 25.887 17.1523 25.887C17.1788 25.9132 17.2053 25.9394 17.2584 25.9657C17.709 26.4115 18.1332 26.8574 18.5839 27.3033L19.1406 27.8541C19.5118 28.2213 19.8829 28.5622 20.4131 28.5622C20.9168 28.5622 21.3145 28.2213 21.7121 27.8278L23.3028 26.2542C24.0981 25.4411 24.8934 24.6543 25.7152 23.8674C25.7682 23.815 25.8478 23.7363 25.9273 23.6838C25.9803 23.71 26.0333 23.7625 26.1394 23.8674L26.2984 23.9986C26.5635 24.2608 26.8552 24.5231 27.0938 24.8116C27.1203 24.8379 27.1203 24.8641 27.1468 24.8903C27.0672 24.969 27.0142 25.0214 26.9877 25.0477Z" fill="#FFB140"/>
</g>
<defs>
<clipPath id="clip0_517_851">
<rect width="43" height="55" fill="white"/>
</clipPath>
</defs>
</svg>
