<svg width="81" height="81" viewBox="0 0 81 81" fill="none" xmlns="http://www.w3.org/2000/svg">
<path d="M12.8734 80.2402C12.4853 80.2402 12.0972 80.2402 11.7092 80.2402C11.0278 80.2402 10.8272 80.0404 10.8272 79.3904C10.8117 77.8663 10.8117 76.283 10.8272 74.5591C10.8272 73.9135 10.9749 73.6807 11.7621 73.6807C12.2325 73.6807 12.7029 73.6807 13.1733 73.6807H16.0685V69.7279H1.40956C0.375414 69.7279 0.256348 69.6093 0.256348 68.5772V3.79471C0.256348 2.7516 0.364393 2.644 1.40736 2.644H15.9185L16.031 2.12354C16.042 2.06864 16.0508 2.02911 16.0596 1.99837C16.0912 1.89154 16.1046 1.7802 16.0993 1.66897C16.0464 0.911341 16.0993 0.434803 16.2735 0.252534C16.494 0.0197561 17.2283 0 17.8986 0H17.9471C26.7054 0.0153721 35.3667 0.0153603 41.9244 0.0153603H63.4387C63.7915 0.0153603 64.6205 0.0153603 64.7881 0.180062C64.9557 0.344763 64.9778 1.17706 64.9866 1.53282C64.9866 1.62944 64.9976 1.72607 65.0064 1.84904L65.0219 2.0357L65.066 2.6462H79.7315C80.7127 2.6462 80.834 2.77136 80.834 3.76176C80.834 25.3808 80.834 47.0006 80.834 68.6211C80.834 69.5896 80.6995 69.7191 79.7138 69.7191H65.0439V73.672H69.218C70.1 73.672 70.261 73.8279 70.2654 74.6843C70.2654 75.7589 70.2654 76.832 70.2654 77.9037V78.9556C70.2654 80.1722 70.1926 80.2446 68.9997 80.2446H14.6727L12.8734 80.2402ZM12.1744 78.8655H68.8762V75.0181H12.1744V78.8655ZM17.4797 73.5951H63.6173V1.34615H17.4797V73.5951ZM65.0549 68.3576H79.4845V63.1948H65.0549V68.3576ZM1.62566 68.3466H16.0486V63.1838H1.61683L1.62566 68.3466ZM65.0549 61.7827H79.4845V57.9309H65.0549V61.7827ZM1.59699 61.7717H16.0508V57.9419H1.59699V61.7717ZM65.0549 56.5211H79.4845V52.6693H65.0549V56.5211ZM1.6455 56.5211H16.0751V52.6715H1.6455V56.5211ZM65.0263 51.2506H79.4558V47.4032H65.0263V51.2506ZM1.5992 51.2506H16.0574V47.4318H1.5992V51.2506ZM1.6433 46.0175H16.0729V42.1459H1.6433V46.0175ZM65.0263 46H79.4558V42.1525H65.0263V46ZM1.64109 40.7603H16.0663V36.8997H1.64109V40.7603ZM65.0571 40.7603H79.4867V36.915H65.0549L65.0571 40.7603ZM1.64771 35.5008H16.0751V31.627H1.64771V35.5008ZM65.0285 35.4876H79.4581V31.6358H65.0285V35.4876ZM1.64771 30.2391H16.0751V26.3917H1.64771V30.2391ZM65.0483 30.2194H79.4801V26.3698H65.0483V30.2194ZM65.0483 24.9841H79.4735V21.1235H65.0483V24.9841ZM1.63889 24.9555H16.0927V21.1235H1.63889V24.9555ZM65.0395 19.7027H79.4669V15.8421H65.0395V19.7027ZM1.63669 19.7027H16.0663V15.8552H1.63669V19.7027ZM1.61463 14.4498H16.042V10.5892H1.61463V14.4498ZM65.0373 14.4212H79.4691V10.5738H65.0373V14.4212ZM65.0373 9.2079H79.436V4.00114H65.0549L65.0373 9.2079ZM1.62566 9.2079H16.0266V4.00114H1.62566V9.2079Z" fill="#FFB140"/>
<path d="M22.7056 72.3029C21.4487 72.3029 21.3826 72.2415 21.3826 70.9853V9.16527C21.3826 7.90256 21.4311 7.84766 22.7056 7.84766H58.3738C59.6329 7.84766 59.6968 7.90914 59.6968 9.16527V70.9853C59.6968 72.2393 59.6351 72.3029 58.3738 72.3029H22.7056ZM22.7673 70.9502H39.8341V60.5169H22.7673V70.9502ZM41.2651 70.9502H58.3363V60.5235H41.2651V70.9502ZM41.2365 59.0917H58.3099V47.3518H41.2409L41.2365 59.0917ZM22.7651 59.0917H39.8363V47.3518H22.7651V59.0917ZM41.2409 45.9617H58.3121V34.2218H41.2409V45.9617ZM22.7453 45.9617H39.8186V34.2218H22.7453V45.9617ZM41.2321 32.7856H58.3032V21.0479H41.2409L41.2321 32.7856ZM22.7607 32.7856H39.8319V21.0391H22.7607V32.7856ZM41.2409 19.6359H58.3143V9.20479H41.2409V19.6359ZM22.7651 19.6359H39.8363V9.21139H22.7651V19.6359Z" fill="#185494"/>
<path d="M1.23108 69.4772H16.6777V68.1172H1.46687V62.9677H16.6895V61.5705H1.43386V57.7571H16.6918V56.3423H1.46687V52.5092H16.6753V51.077H1.41735V47.2745H16.6777V45.862H1.46687V42.0223H16.6824V40.6141H1.46687V36.7679H16.6895V35.3663H1.46687V31.5353H16.6824V30.1272H1.46687V26.2941H16.6871V24.8706H1.46687V21.0572H16.6942V19.6556H1.46687V15.8246H16.6895V14.4252H1.4433V10.5943H16.6918V9.2058H1.46687V4.0345H16.7012V2.67224H1.23108C0.115796 2.67224 0.000265427 2.78157 0.000265427 3.82021V68.3249C-0.00680827 69.3482 0.120511 69.4772 1.23108 69.4772Z" fill="#FFB140"/>
<path d="M79.6029 69.4772H64.1563V68.1172H79.3671V62.9677H64.1445V61.5705H79.4001V57.7571H64.1422V56.3423H79.3671V52.5092H64.1587V51.077H79.4166V47.2745H64.1563V45.862H79.3671V42.0223H64.1516V40.6141H79.3671V36.7679H64.1445V35.3663H79.3671V31.5353H64.1516V30.1272H79.3671V26.2941H64.1469V24.8706H79.3671V21.0572H64.1398V19.6556H79.3671V15.8246H64.1445V14.4252H79.3907V10.5943H64.1422V9.2058H79.3671V4.0345H64.1327V2.67224H79.6029C80.7182 2.67224 80.8337 2.78157 80.8337 3.82021V68.3249C80.8408 69.3482 80.7135 69.4772 79.6029 69.4772Z" fill="#FFB140"/>
</svg>
